  0
SECTION
  2
HEADER
  9
$ACADVER
  1
AC1009
  9
$FILLMODE
 70
1
  9
$EXTMIN
 10
-9.2635
 20
-9.2635
 30
0.0000
  9
$EXTMAX
 10
247.3900
 20
89.9500
 30
0.0000
  0
ENDSEC
  0
SECTION
  2
TABLES
  0
TABLE
  2
LTYPE
 70
1
  0
LTYPE
  2
CONTINUOUS
 70
64
  3
Solid line
 72
65
 73
0
 40
0
  0
ENDTAB
  0
TABLE
  2
LAYER
 70
255
  0
LAYER
  2
102
 70
64
 62
4
  6
CONTINUOUS
  0
ENDTAB
  0
ENDSEC
  0
SECTION
  2
BLOCKS
  0
BLOCK
  8
0
  2
RECT
 70
64
 10
0.0000
 20
0.0000
 30
0.0000
  3
RECT
  0
SOLID
  8
0
 10
-0.5000
 20
-0.5000
 30
0.0000
 11
0.5000
 21
-0.5000
 31
0.0000
 12
-0.5000
 22
0.5000
 32
0.0000
 13
0.5000
 23
0.5000
 33
0.0000
  0
ENDBLK
  8
0
  0
BLOCK
  8
0
  2
PIE
 70
64
 10
0.0000
 20
0.0000
 30
0.0000
  3
PIE
  0
POLYLINE
  8
0
 66
1
 10
0.0000
 20
0.0000
 30
0.0000
 40
0.5000
 41
0.5000
 70
0
  0
VERTEX
  8
0
 10
0.0000
 20
-0.2500
 30
0.0000
 42
1.0000
  0
VERTEX
  8
0
 10
0.0000
 20
0.2500
 30
0.0000
 42
1.0000
  0
VERTEX
  8
0
 10
0.0000
 20
-0.2500
 30
0.0000
  0
SEQEND
  8
0
  0
ENDBLK
  8
0
  0
BLOCK
  8
0
  2
OCTAGONP
 70
64
 10
0.0000
 20
0.0000
 30
0.0000
  3
OCTAGONP
  0
POLYLINE
  8
0
 66
1
 10
0.0000
 20
0.0000
 30
0.0000
 40
0.5000
 41
0.5000
 70
0
  0
VERTEX
  8
0
 10
-0.2500
 20
-0.1036
 30
0.0000
  0
VERTEX
  8
0
 10
-0.2500
 20
0.1036
 30
0.0000
  0
VERTEX
  8
0
 10
-0.1036
 20
0.2500
 30
0.0000
  0
VERTEX
  8
0
 10
0.1036
 20
0.2500
 30
0.0000
  0
VERTEX
  8
0
 10
0.2500
 20
0.1036
 30
0.0000
  0
VERTEX
  8
0
 10
0.2500
 20
-0.1036
 30
0.0000
  0
VERTEX
  8
0
 10
0.1036
 20
-0.2500
 30
0.0000
  0
VERTEX
  8
0
 10
-0.1036
 20
-0.2500
 30
0.0000
  0
VERTEX
  8
0
 10
-0.2500
 20
-0.1036
 30
0.0000
  0
VERTEX
  8
0
 10
-0.2500
 20
0.1036
 30
0.0000
  0
SEQEND
  8
0
  0
ENDBLK
  8
0
  0
BLOCK
  8
0
  2
SQUAREP
 70
64
 10
0.0000
 20
0.0000
 30
0.0000
  3
SQUAREP
  0
SOLID
  8
0
 10
-0.5000
 20
-0.5000
 30
0.0000
 11
0.5000
 21
-0.5000
 31
0.0000
 12
-0.5000
 22
0.5000
 32
0.0000
 13
0.5000
 23
0.5000
 33
0.0000
  0
ENDBLK
  8
0
  0
BLOCK
  8
0
  2
ROUNDP
 70
64
 10
0.0000
 20
0.0000
 30
0.0000
  3
ROUNDP
  0
POLYLINE
  8
0
 66
1
 10
0.0000
 20
0.0000
 30
0.0000
 40
0.5000
 41
0.5000
 70
0
  0
VERTEX
  8
0
 10
0.0000
 20
-0.2500
 30
0.0000
 42
1.0000
  0
VERTEX
  8
0
 10
0.0000
 20
0.2500
 30
0.0000
 42
1.0000
  0
VERTEX
  8
0
 10
0.0000
 20
-0.2500
 30
0.0000
  0
SEQEND
  8
0
  0
ENDBLK
  8
0
  0
BLOCK
  8
0
  2
ANNULUSP
 70
64
 10
0.0000
 20
0.0000
 30
0.0000
  3
ANNULUSP
  0
POLYLINE
  8
0
 66
1
 10
0.0000
 20
0.0000
 30
0.0000
 40
0.5000
 41
0.5000
 70
0
  0
VERTEX
  8
0
 10
0.0000
 20
-0.2500
 30
0.0000
 42
1.0000
  0
VERTEX
  8
0
 10
0.0000
 20
0.2500
 30
0.0000
 42
1.0000
  0
VERTEX
  8
0
 10
0.0000
 20
-0.2500
 30
0.0000
  0
SEQEND
  8
0
  0
ENDBLK
  8
0
  0
BLOCK
  8
0
  2
THERMALP
 70
64
 10
0.0000
 20
0.0000
 30
0.0000
  3
THERMALP
  0
POLYLINE
  8
0
 66
1
 10
0.0000
 20
0.0000
 30
0.0000
 40
0.1000
 41
0.1000
 70
0
  0
VERTEX
  8
0
 10
-0.2379
 20
0.4500
 30
0.0000
  0
VERTEX
  8
0
 10
0.2379
 20
0.4500
 30
0.0000
  0
SEQEND
  8
0
  0
POLYLINE
  8
0
 66
1
 10
0.0000
 20
0.0000
 30
0.0000
 40
0.0500
 41
0.0500
 70
0
  0
VERTEX
  8
0
 10
0.2379
 20
0.4250
 30
0.0000
 42
1.0000
  0
VERTEX
  8
0
 10
0.2379
 20
0.4750
 30
0.0000
  0
SEQEND
  8
0
  0
POLYLINE
  8
0
 66
1
 10
0.0000
 20
0.0000
 30
0.0000
 40
0.0500
 41
0.0500
 70
0
  0
VERTEX
  8
0
 10
-0.2379
 20
0.4750
 30
0.0000
 42
1.0000
  0
VERTEX
  8
0
 10
-0.2379
 20
0.4250
 30
0.0000
  0
SEQEND
  8
0
  0
POLYLINE
  8
0
 66
1
 10
0.0000
 20
0.0000
 30
0.0000
 40
0.1000
 41
0.1000
 70
0
  0
VERTEX
  8
0
 10
0.4500
 20
0.2379
 30
0.0000
  0
VERTEX
  8
0
 10
0.4500
 20
-0.2379
 30
0.0000
  0
SEQEND
  8
0
  0
POLYLINE
  8
0
 66
1
 10
0.0000
 20
0.0000
 30
0.0000
 40
0.0500
 41
0.0500
 70
0
  0
VERTEX
  8
0
 10
0.4250
 20
-0.2379
 30
0.0000
 42
1.0000
  0
VERTEX
  8
0
 10
0.4750
 20
-0.2379
 30
0.0000
  0
SEQEND
  8
0
  0
POLYLINE
  8
0
 66
1
 10
0.0000
 20
0.0000
 30
0.0000
 40
0.0500
 41
0.0500
 70
0
  0
VERTEX
  8
0
 10
0.4750
 20
0.2379
 30
0.0000
 42
1.0000
  0
VERTEX
  8
0
 10
0.4250
 20
0.2379
 30
0.0000
  0
SEQEND
  8
0
  0
POLYLINE
  8
0
 66
1
 10
0.0000
 20
0.0000
 30
0.0000
 40
0.1000
 41
0.1000
 70
0
  0
VERTEX
  8
0
 10
0.2379
 20
-0.4500
 30
0.0000
  0
VERTEX
  8
0
 10
-0.2379
 20
-0.4500
 30
0.0000
  0
SEQEND
  8
0
  0
POLYLINE
  8
0
 66
1
 10
0.0000
 20
0.0000
 30
0.0000
 40
0.0500
 41
0.0500
 70
0
  0
VERTEX
  8
0
 10
-0.2379
 20
-0.4250
 30
0.0000
 42
1.0000
  0
VERTEX
  8
0
 10
-0.2379
 20
-0.4750
 30
0.0000
  0
SEQEND
  8
0
  0
POLYLINE
  8
0
 66
1
 10
0.0000
 20
0.0000
 30
0.0000
 40
0.0500
 41
0.0500
 70
0
  0
VERTEX
  8
0
 10
0.2379
 20
-0.4750
 30
0.0000
 42
1.0000
  0
VERTEX
  8
0
 10
0.2379
 20
-0.4250
 30
0.0000
  0
SEQEND
  8
0
  0
POLYLINE
  8
0
 66
1
 10
0.0000
 20
0.0000
 30
0.0000
 40
0.1000
 41
0.1000
 70
0
  0
VERTEX
  8
0
 10
-0.4500
 20
-0.2379
 30
0.0000
  0
VERTEX
  8
0
 10
-0.4500
 20
0.2379
 30
0.0000
  0
SEQEND
  8
0
  0
POLYLINE
  8
0
 66
1
 10
0.0000
 20
0.0000
 30
0.0000
 40
0.0500
 41
0.0500
 70
0
  0
VERTEX
  8
0
 10
-0.4250
 20
0.2379
 30
0.0000
 42
1.0000
  0
VERTEX
  8
0
 10
-0.4750
 20
0.2379
 30
0.0000
  0
SEQEND
  8
0
  0
POLYLINE
  8
0
 66
1
 10
0.0000
 20
0.0000
 30
0.0000
 40
0.0500
 41
0.0500
 70
0
  0
VERTEX
  8
0
 10
-0.4750
 20
-0.2379
 30
0.0000
 42
1.0000
  0
VERTEX
  8
0
 10
-0.4250
 20
-0.2379
 30
0.0000
  0
SEQEND
  8
0
  0
ENDBLK
  8
0
  0
BLOCK
  8
0
  2
OCTAGONV
 70
64
 10
0.0000
 20
0.0000
 30
0.0000
  3
OCTAGONV
  0
POLYLINE
  8
0
 66
1
 10
0.0000
 20
0.0000
 30
0.0000
 40
0.5000
 41
0.5000
 70
0
  0
VERTEX
  8
0
 10
-0.2500
 20
-0.1036
 30
0.0000
  0
VERTEX
  8
0
 10
-0.2500
 20
0.1036
 30
0.0000
  0
VERTEX
  8
0
 10
-0.1036
 20
0.2500
 30
0.0000
  0
VERTEX
  8
0
 10
0.1036
 20
0.2500
 30
0.0000
  0
VERTEX
  8
0
 10
0.2500
 20
0.1036
 30
0.0000
  0
VERTEX
  8
0
 10
0.2500
 20
-0.1036
 30
0.0000
  0
VERTEX
  8
0
 10
0.1036
 20
-0.2500
 30
0.0000
  0
VERTEX
  8
0
 10
-0.1036
 20
-0.2500
 30
0.0000
  0
VERTEX
  8
0
 10
-0.2500
 20
-0.1036
 30
0.0000
  0
VERTEX
  8
0
 10
-0.2500
 20
0.1036
 30
0.0000
  0
SEQEND
  8
0
  0
ENDBLK
  8
0
  0
BLOCK
  8
0
  2
SQUAREV
 70
64
 10
0.0000
 20
0.0000
 30
0.0000
  3
SQUAREV
  0
SOLID
  8
0
 10
-0.5000
 20
-0.5000
 30
0.0000
 11
0.5000
 21
-0.5000
 31
0.0000
 12
-0.5000
 22
0.5000
 32
0.0000
 13
0.5000
 23
0.5000
 33
0.0000
  0
ENDBLK
  8
0
  0
BLOCK
  8
0
  2
ROUNDV
 70
64
 10
0.0000
 20
0.0000
 30
0.0000
  3
ROUNDV
  0
POLYLINE
  8
0
 66
1
 10
0.0000
 20
0.0000
 30
0.0000
 40
0.5000
 41
0.5000
 70
0
  0
VERTEX
  8
0
 10
0.0000
 20
-0.2500
 30
0.0000
 42
1.0000
  0
VERTEX
  8
0
 10
0.0000
 20
0.2500
 30
0.0000
 42
1.0000
  0
VERTEX
  8
0
 10
0.0000
 20
-0.2500
 30
0.0000
  0
SEQEND
  8
0
  0
ENDBLK
  8
0
  0
BLOCK
  8
0
  2
ANNULUSV
 70
64
 10
0.0000
 20
0.0000
 30
0.0000
  3
ANNULUSV
  0
POLYLINE
  8
0
 66
1
 10
0.0000
 20
0.0000
 30
0.0000
 40
0.5000
 41
0.5000
 70
0
  0
VERTEX
  8
0
 10
0.0000
 20
-0.2500
 30
0.0000
 42
1.0000
  0
VERTEX
  8
0
 10
0.0000
 20
0.2500
 30
0.0000
 42
1.0000
  0
VERTEX
  8
0
 10
0.0000
 20
-0.2500
 30
0.0000
  0
SEQEND
  8
0
  0
ENDBLK
  8
0
  0
BLOCK
  8
0
  2
THERMALV
 70
64
 10
0.0000
 20
0.0000
 30
0.0000
  3
THERMALV
  0
POLYLINE
  8
0
 66
1
 10
0.0000
 20
0.0000
 30
0.0000
 40
0.1000
 41
0.1000
 70
0
  0
VERTEX
  8
0
 10
-0.2379
 20
0.4500
 30
0.0000
  0
VERTEX
  8
0
 10
0.2379
 20
0.4500
 30
0.0000
  0
SEQEND
  8
0
  0
POLYLINE
  8
0
 66
1
 10
0.0000
 20
0.0000
 30
0.0000
 40
0.0500
 41
0.0500
 70
0
  0
VERTEX
  8
0
 10
0.2379
 20
0.4250
 30
0.0000
 42
1.0000
  0
VERTEX
  8
0
 10
0.2379
 20
0.4750
 30
0.0000
  0
SEQEND
  8
0
  0
POLYLINE
  8
0
 66
1
 10
0.0000
 20
0.0000
 30
0.0000
 40
0.0500
 41
0.0500
 70
0
  0
VERTEX
  8
0
 10
-0.2379
 20
0.4750
 30
0.0000
 42
1.0000
  0
VERTEX
  8
0
 10
-0.2379
 20
0.4250
 30
0.0000
  0
SEQEND
  8
0
  0
POLYLINE
  8
0
 66
1
 10
0.0000
 20
0.0000
 30
0.0000
 40
0.1000
 41
0.1000
 70
0
  0
VERTEX
  8
0
 10
0.4500
 20
0.2379
 30
0.0000
  0
VERTEX
  8
0
 10
0.4500
 20
-0.2379
 30
0.0000
  0
SEQEND
  8
0
  0
POLYLINE
  8
0
 66
1
 10
0.0000
 20
0.0000
 30
0.0000
 40
0.0500
 41
0.0500
 70
0
  0
VERTEX
  8
0
 10
0.4250
 20
-0.2379
 30
0.0000
 42
1.0000
  0
VERTEX
  8
0
 10
0.4750
 20
-0.2379
 30
0.0000
  0
SEQEND
  8
0
  0
POLYLINE
  8
0
 66
1
 10
0.0000
 20
0.0000
 30
0.0000
 40
0.0500
 41
0.0500
 70
0
  0
VERTEX
  8
0
 10
0.4750
 20
0.2379
 30
0.0000
 42
1.0000
  0
VERTEX
  8
0
 10
0.4250
 20
0.2379
 30
0.0000
  0
SEQEND
  8
0
  0
POLYLINE
  8
0
 66
1
 10
0.0000
 20
0.0000
 30
0.0000
 40
0.1000
 41
0.1000
 70
0
  0
VERTEX
  8
0
 10
0.2379
 20
-0.4500
 30
0.0000
  0
VERTEX
  8
0
 10
-0.2379
 20
-0.4500
 30
0.0000
  0
SEQEND
  8
0
  0
POLYLINE
  8
0
 66
1
 10
0.0000
 20
0.0000
 30
0.0000
 40
0.0500
 41
0.0500
 70
0
  0
VERTEX
  8
0
 10
-0.2379
 20
-0.4250
 30
0.0000
 42
1.0000
  0
VERTEX
  8
0
 10
-0.2379
 20
-0.4750
 30
0.0000
  0
SEQEND
  8
0
  0
POLYLINE
  8
0
 66
1
 10
0.0000
 20
0.0000
 30
0.0000
 40
0.0500
 41
0.0500
 70
0
  0
VERTEX
  8
0
 10
0.2379
 20
-0.4750
 30
0.0000
 42
1.0000
  0
VERTEX
  8
0
 10
0.2379
 20
-0.4250
 30
0.0000
  0
SEQEND
  8
0
  0
POLYLINE
  8
0
 66
1
 10
0.0000
 20
0.0000
 30
0.0000
 40
0.1000
 41
0.1000
 70
0
  0
VERTEX
  8
0
 10
-0.4500
 20
-0.2379
 30
0.0000
  0
VERTEX
  8
0
 10
-0.4500
 20
0.2379
 30
0.0000
  0
SEQEND
  8
0
  0
POLYLINE
  8
0
 66
1
 10
0.0000
 20
0.0000
 30
0.0000
 40
0.0500
 41
0.0500
 70
0
  0
VERTEX
  8
0
 10
-0.4250
 20
0.2379
 30
0.0000
 42
1.0000
  0
VERTEX
  8
0
 10
-0.4750
 20
0.2379
 30
0.0000
  0
SEQEND
  8
0
  0
POLYLINE
  8
0
 66
1
 10
0.0000
 20
0.0000
 30
0.0000
 40
0.0500
 41
0.0500
 70
0
  0
VERTEX
  8
0
 10
-0.4750
 20
-0.2379
 30
0.0000
 42
1.0000
  0
VERTEX
  8
0
 10
-0.4250
 20
-0.2379
 30
0.0000
  0
SEQEND
  8
0
  0
ENDBLK
  8
0
  0
BLOCK
  8
0
  2
LONGP100
 70
64
 10
0.0000
 20
0.0000
 30
0.0000
  3
LONGP100
  0
POLYLINE
  8
0
 66
1
 10
0.0000
 20
0.0000
 30
0.0000
 40
1.0000
 41
1.0000
 70
0
  0
VERTEX
  8
0
 10
-0.5000
 20
0.0000
 30
0.0000
  0
VERTEX
  8
0
 10
0.5000
 20
0.0000
 30
0.0000
  0
SEQEND
  8
0
  0
POLYLINE
  8
0
 66
1
 10
0.0000
 20
0.0000
 30
0.0000
 40
0.5000
 41
0.5000
 70
0
  0
VERTEX
  8
0
 10
0.5000
 20
-0.2500
 30
0.0000
 42
1.0000
  0
VERTEX
  8
0
 10
0.5000
 20
0.2500
 30
0.0000
  0
SEQEND
  8
0
  0
POLYLINE
  8
0
 66
1
 10
0.0000
 20
0.0000
 30
0.0000
 40
0.5000
 41
0.5000
 70
0
  0
VERTEX
  8
0
 10
-0.5000
 20
0.2500
 30
0.0000
 42
1.0000
  0
VERTEX
  8
0
 10
-0.5000
 20
-0.2500
 30
0.0000
  0
SEQEND
  8
0
  0
ENDBLK
  8
0
  0
ENDSEC
  0
SECTION
  2
ENTITIES
  0
POLYLINE
  8
102
 66
1
 10
0.0000
 20
0.0000
 30
0.0000
 40
0.1270
 41
0.1270
 70
0
  0
VERTEX
  8
102
 10
-6.0000
 20
82.1000
 30
0.0000
  0
VERTEX
  8
102
 10
6.0000
 20
82.1000
 30
0.0000
  0
SEQEND
  8
0
  0
POLYLINE
  8
102
 66
1
 10
0.0000
 20
0.0000
 30
0.0000
 40
0.0635
 41
0.0635
 70
0
  0
VERTEX
  8
102
 10
6.0000
 20
82.0683
 30
0.0000
 42
1.0000
  0
VERTEX
  8
102
 10
6.0000
 20
82.1318
 30
0.0000
  0
SEQEND
  8
0
  0
POLYLINE
  8
102
 66
1
 10
0.0000
 20
0.0000
 30
0.0000
 40
0.0635
 41
0.0635
 70
0
  0
VERTEX
  8
102
 10
-6.0000
 20
82.1318
 30
0.0000
 42
1.0000
  0
VERTEX
  8
102
 10
-6.0000
 20
82.0683
 30
0.0000
  0
SEQEND
  8
0
  0
POLYLINE
  8
102
 66
1
 10
0.0000
 20
0.0000
 30
0.0000
 40
0.1270
 41
0.1270
 70
0
  0
VERTEX
  8
102
 10
6.0000
 20
82.1000
 30
0.0000
  0
VERTEX
  8
102
 10
6.0000
 20
70.7000
 30
0.0000
  0
SEQEND
  8
0
  0
POLYLINE
  8
102
 66
1
 10
0.0000
 20
0.0000
 30
0.0000
 40
0.0635
 41
0.0635
 70
0
  0
VERTEX
  8
102
 10
5.9683
 20
70.7000
 30
0.0000
 42
1.0000
  0
VERTEX
  8
102
 10
6.0317
 20
70.7000
 30
0.0000
  0
SEQEND
  8
0
  0
POLYLINE
  8
102
 66
1
 10
0.0000
 20
0.0000
 30
0.0000
 40
0.0635
 41
0.0635
 70
0
  0
VERTEX
  8
102
 10
6.0317
 20
82.1000
 30
0.0000
 42
1.0000
  0
VERTEX
  8
102
 10
5.9683
 20
82.1000
 30
0.0000
  0
SEQEND
  8
0
  0
POLYLINE
  8
102
 66
1
 10
0.0000
 20
0.0000
 30
0.0000
 40
0.1270
 41
0.1270
 70
0
  0
VERTEX
  8
102
 10
6.0000
 20
70.7000
 30
0.0000
  0
VERTEX
  8
102
 10
-6.0000
 20
70.7000
 30
0.0000
  0
SEQEND
  8
0
  0
POLYLINE
  8
102
 66
1
 10
0.0000
 20
0.0000
 30
0.0000
 40
0.0635
 41
0.0635
 70
0
  0
VERTEX
  8
102
 10
-6.0000
 20
70.7318
 30
0.0000
 42
1.0000
  0
VERTEX
  8
102
 10
-6.0000
 20
70.6683
 30
0.0000
  0
SEQEND
  8
0
  0
POLYLINE
  8
102
 66
1
 10
0.0000
 20
0.0000
 30
0.0000
 40
0.0635
 41
0.0635
 70
0
  0
VERTEX
  8
102
 10
6.0000
 20
70.6683
 30
0.0000
 42
1.0000
  0
VERTEX
  8
102
 10
6.0000
 20
70.7318
 30
0.0000
  0
SEQEND
  8
0
  0
POLYLINE
  8
102
 66
1
 10
0.0000
 20
0.0000
 30
0.0000
 40
0.1270
 41
0.1270
 70
0
  0
VERTEX
  8
102
 10
-6.0000
 20
70.7000
 30
0.0000
  0
VERTEX
  8
102
 10
-6.0000
 20
82.1000
 30
0.0000
  0
SEQEND
  8
0
  0
POLYLINE
  8
102
 66
1
 10
0.0000
 20
0.0000
 30
0.0000
 40
0.0635
 41
0.0635
 70
0
  0
VERTEX
  8
102
 10
-5.9683
 20
82.1000
 30
0.0000
 42
1.0000
  0
VERTEX
  8
102
 10
-6.0317
 20
82.1000
 30
0.0000
  0
SEQEND
  8
0
  0
POLYLINE
  8
102
 66
1
 10
0.0000
 20
0.0000
 30
0.0000
 40
0.0635
 41
0.0635
 70
0
  0
VERTEX
  8
102
 10
-6.0317
 20
70.7000
 30
0.0000
 42
1.0000
  0
VERTEX
  8
102
 10
-5.9683
 20
70.7000
 30
0.0000
  0
SEQEND
  8
0
  0
POLYLINE
  8
102
 66
1
 10
0.0000
 20
0.0000
 30
0.0000
 40
0.1270
 41
0.1270
 70
0
  0
VERTEX
  8
102
 10
13.0000
 20
82.1000
 30
0.0000
  0
VERTEX
  8
102
 10
25.0000
 20
82.1000
 30
0.0000
  0
SEQEND
  8
0
  0
POLYLINE
  8
102
 66
1
 10
0.0000
 20
0.0000
 30
0.0000
 40
0.0635
 41
0.0635
 70
0
  0
VERTEX
  8
102
 10
25.0000
 20
82.0683
 30
0.0000
 42
1.0000
  0
VERTEX
  8
102
 10
25.0000
 20
82.1318
 30
0.0000
  0
SEQEND
  8
0
  0
POLYLINE
  8
102
 66
1
 10
0.0000
 20
0.0000
 30
0.0000
 40
0.0635
 41
0.0635
 70
0
  0
VERTEX
  8
102
 10
13.0000
 20
82.1318
 30
0.0000
 42
1.0000
  0
VERTEX
  8
102
 10
13.0000
 20
82.0683
 30
0.0000
  0
SEQEND
  8
0
  0
POLYLINE
  8
102
 66
1
 10
0.0000
 20
0.0000
 30
0.0000
 40
0.1270
 41
0.1270
 70
0
  0
VERTEX
  8
102
 10
25.0000
 20
82.1000
 30
0.0000
  0
VERTEX
  8
102
 10
25.0000
 20
70.7000
 30
0.0000
  0
SEQEND
  8
0
  0
POLYLINE
  8
102
 66
1
 10
0.0000
 20
0.0000
 30
0.0000
 40
0.0635
 41
0.0635
 70
0
  0
VERTEX
  8
102
 10
24.9683
 20
70.7000
 30
0.0000
 42
1.0000
  0
VERTEX
  8
102
 10
25.0317
 20
70.7000
 30
0.0000
  0
SEQEND
  8
0
  0
POLYLINE
  8
102
 66
1
 10
0.0000
 20
0.0000
 30
0.0000
 40
0.0635
 41
0.0635
 70
0
  0
VERTEX
  8
102
 10
25.0317
 20
82.1000
 30
0.0000
 42
1.0000
  0
VERTEX
  8
102
 10
24.9683
 20
82.1000
 30
0.0000
  0
SEQEND
  8
0
  0
POLYLINE
  8
102
 66
1
 10
0.0000
 20
0.0000
 30
0.0000
 40
0.1270
 41
0.1270
 70
0
  0
VERTEX
  8
102
 10
25.0000
 20
70.7000
 30
0.0000
  0
VERTEX
  8
102
 10
13.0000
 20
70.7000
 30
0.0000
  0
SEQEND
  8
0
  0
POLYLINE
  8
102
 66
1
 10
0.0000
 20
0.0000
 30
0.0000
 40
0.0635
 41
0.0635
 70
0
  0
VERTEX
  8
102
 10
13.0000
 20
70.7318
 30
0.0000
 42
1.0000
  0
VERTEX
  8
102
 10
13.0000
 20
70.6683
 30
0.0000
  0
SEQEND
  8
0
  0
POLYLINE
  8
102
 66
1
 10
0.0000
 20
0.0000
 30
0.0000
 40
0.0635
 41
0.0635
 70
0
  0
VERTEX
  8
102
 10
25.0000
 20
70.6683
 30
0.0000
 42
1.0000
  0
VERTEX
  8
102
 10
25.0000
 20
70.7318
 30
0.0000
  0
SEQEND
  8
0
  0
POLYLINE
  8
102
 66
1
 10
0.0000
 20
0.0000
 30
0.0000
 40
0.1270
 41
0.1270
 70
0
  0
VERTEX
  8
102
 10
13.0000
 20
70.7000
 30
0.0000
  0
VERTEX
  8
102
 10
13.0000
 20
82.1000
 30
0.0000
  0
SEQEND
  8
0
  0
POLYLINE
  8
102
 66
1
 10
0.0000
 20
0.0000
 30
0.0000
 40
0.0635
 41
0.0635
 70
0
  0
VERTEX
  8
102
 10
13.0318
 20
82.1000
 30
0.0000
 42
1.0000
  0
VERTEX
  8
102
 10
12.9682
 20
82.1000
 30
0.0000
  0
SEQEND
  8
0
  0
POLYLINE
  8
102
 66
1
 10
0.0000
 20
0.0000
 30
0.0000
 40
0.0635
 41
0.0635
 70
0
  0
VERTEX
  8
102
 10
12.9682
 20
70.7000
 30
0.0000
 42
1.0000
  0
VERTEX
  8
102
 10
13.0318
 20
70.7000
 30
0.0000
  0
SEQEND
  8
0
  0
POLYLINE
  8
102
 66
1
 10
0.0000
 20
0.0000
 30
0.0000
 40
0.1270
 41
0.1270
 70
0
  0
VERTEX
  8
102
 10
32.0200
 20
82.1000
 30
0.0000
  0
VERTEX
  8
102
 10
44.0200
 20
82.1000
 30
0.0000
  0
SEQEND
  8
0
  0
POLYLINE
  8
102
 66
1
 10
0.0000
 20
0.0000
 30
0.0000
 40
0.0635
 41
0.0635
 70
0
  0
VERTEX
  8
102
 10
44.0200
 20
82.0683
 30
0.0000
 42
1.0000
  0
VERTEX
  8
102
 10
44.0200
 20
82.1318
 30
0.0000
  0
SEQEND
  8
0
  0
POLYLINE
  8
102
 66
1
 10
0.0000
 20
0.0000
 30
0.0000
 40
0.0635
 41
0.0635
 70
0
  0
VERTEX
  8
102
 10
32.0200
 20
82.1318
 30
0.0000
 42
1.0000
  0
VERTEX
  8
102
 10
32.0200
 20
82.0683
 30
0.0000
  0
SEQEND
  8
0
  0
POLYLINE
  8
102
 66
1
 10
0.0000
 20
0.0000
 30
0.0000
 40
0.1270
 41
0.1270
 70
0
  0
VERTEX
  8
102
 10
44.0200
 20
82.1000
 30
0.0000
  0
VERTEX
  8
102
 10
44.0200
 20
70.7000
 30
0.0000
  0
SEQEND
  8
0
  0
POLYLINE
  8
102
 66
1
 10
0.0000
 20
0.0000
 30
0.0000
 40
0.0635
 41
0.0635
 70
0
  0
VERTEX
  8
102
 10
43.9883
 20
70.7000
 30
0.0000
 42
1.0000
  0
VERTEX
  8
102
 10
44.0518
 20
70.7000
 30
0.0000
  0
SEQEND
  8
0
  0
POLYLINE
  8
102
 66
1
 10
0.0000
 20
0.0000
 30
0.0000
 40
0.0635
 41
0.0635
 70
0
  0
VERTEX
  8
102
 10
44.0518
 20
82.1000
 30
0.0000
 42
1.0000
  0
VERTEX
  8
102
 10
43.9883
 20
82.1000
 30
0.0000
  0
SEQEND
  8
0
  0
POLYLINE
  8
102
 66
1
 10
0.0000
 20
0.0000
 30
0.0000
 40
0.1270
 41
0.1270
 70
0
  0
VERTEX
  8
102
 10
44.0200
 20
70.7000
 30
0.0000
  0
VERTEX
  8
102
 10
32.0200
 20
70.7000
 30
0.0000
  0
SEQEND
  8
0
  0
POLYLINE
  8
102
 66
1
 10
0.0000
 20
0.0000
 30
0.0000
 40
0.0635
 41
0.0635
 70
0
  0
VERTEX
  8
102
 10
32.0200
 20
70.7318
 30
0.0000
 42
1.0000
  0
VERTEX
  8
102
 10
32.0200
 20
70.6683
 30
0.0000
  0
SEQEND
  8
0
  0
POLYLINE
  8
102
 66
1
 10
0.0000
 20
0.0000
 30
0.0000
 40
0.0635
 41
0.0635
 70
0
  0
VERTEX
  8
102
 10
44.0200
 20
70.6683
 30
0.0000
 42
1.0000
  0
VERTEX
  8
102
 10
44.0200
 20
70.7318
 30
0.0000
  0
SEQEND
  8
0
  0
POLYLINE
  8
102
 66
1
 10
0.0000
 20
0.0000
 30
0.0000
 40
0.1270
 41
0.1270
 70
0
  0
VERTEX
  8
102
 10
32.0200
 20
70.7000
 30
0.0000
  0
VERTEX
  8
102
 10
32.0200
 20
82.1000
 30
0.0000
  0
SEQEND
  8
0
  0
POLYLINE
  8
102
 66
1
 10
0.0000
 20
0.0000
 30
0.0000
 40
0.0635
 41
0.0635
 70
0
  0
VERTEX
  8
102
 10
32.0518
 20
82.1000
 30
0.0000
 42
1.0000
  0
VERTEX
  8
102
 10
31.9883
 20
82.1000
 30
0.0000
  0
SEQEND
  8
0
  0
POLYLINE
  8
102
 66
1
 10
0.0000
 20
0.0000
 30
0.0000
 40
0.0635
 41
0.0635
 70
0
  0
VERTEX
  8
102
 10
31.9883
 20
70.7000
 30
0.0000
 42
1.0000
  0
VERTEX
  8
102
 10
32.0518
 20
70.7000
 30
0.0000
  0
SEQEND
  8
0
  0
POLYLINE
  8
102
 66
1
 10
0.0000
 20
0.0000
 30
0.0000
 40
0.1270
 41
0.1270
 70
0
  0
VERTEX
  8
102
 10
51.0000
 20
82.1000
 30
0.0000
  0
VERTEX
  8
102
 10
63.0000
 20
82.1000
 30
0.0000
  0
SEQEND
  8
0
  0
POLYLINE
  8
102
 66
1
 10
0.0000
 20
0.0000
 30
0.0000
 40
0.0635
 41
0.0635
 70
0
  0
VERTEX
  8
102
 10
63.0000
 20
82.0683
 30
0.0000
 42
1.0000
  0
VERTEX
  8
102
 10
63.0000
 20
82.1318
 30
0.0000
  0
SEQEND
  8
0
  0
POLYLINE
  8
102
 66
1
 10
0.0000
 20
0.0000
 30
0.0000
 40
0.0635
 41
0.0635
 70
0
  0
VERTEX
  8
102
 10
51.0000
 20
82.1318
 30
0.0000
 42
1.0000
  0
VERTEX
  8
102
 10
51.0000
 20
82.0683
 30
0.0000
  0
SEQEND
  8
0
  0
POLYLINE
  8
102
 66
1
 10
0.0000
 20
0.0000
 30
0.0000
 40
0.1270
 41
0.1270
 70
0
  0
VERTEX
  8
102
 10
63.0000
 20
82.1000
 30
0.0000
  0
VERTEX
  8
102
 10
63.0000
 20
70.7000
 30
0.0000
  0
SEQEND
  8
0
  0
POLYLINE
  8
102
 66
1
 10
0.0000
 20
0.0000
 30
0.0000
 40
0.0635
 41
0.0635
 70
0
  0
VERTEX
  8
102
 10
62.9682
 20
70.7000
 30
0.0000
 42
1.0000
  0
VERTEX
  8
102
 10
63.0318
 20
70.7000
 30
0.0000
  0
SEQEND
  8
0
  0
POLYLINE
  8
102
 66
1
 10
0.0000
 20
0.0000
 30
0.0000
 40
0.0635
 41
0.0635
 70
0
  0
VERTEX
  8
102
 10
63.0318
 20
82.1000
 30
0.0000
 42
1.0000
  0
VERTEX
  8
102
 10
62.9682
 20
82.1000
 30
0.0000
  0
SEQEND
  8
0
  0
POLYLINE
  8
102
 66
1
 10
0.0000
 20
0.0000
 30
0.0000
 40
0.1270
 41
0.1270
 70
0
  0
VERTEX
  8
102
 10
63.0000
 20
70.7000
 30
0.0000
  0
VERTEX
  8
102
 10
51.0000
 20
70.7000
 30
0.0000
  0
SEQEND
  8
0
  0
POLYLINE
  8
102
 66
1
 10
0.0000
 20
0.0000
 30
0.0000
 40
0.0635
 41
0.0635
 70
0
  0
VERTEX
  8
102
 10
51.0000
 20
70.7318
 30
0.0000
 42
1.0000
  0
VERTEX
  8
102
 10
51.0000
 20
70.6683
 30
0.0000
  0
SEQEND
  8
0
  0
POLYLINE
  8
102
 66
1
 10
0.0000
 20
0.0000
 30
0.0000
 40
0.0635
 41
0.0635
 70
0
  0
VERTEX
  8
102
 10
63.0000
 20
70.6683
 30
0.0000
 42
1.0000
  0
VERTEX
  8
102
 10
63.0000
 20
70.7318
 30
0.0000
  0
SEQEND
  8
0
  0
POLYLINE
  8
102
 66
1
 10
0.0000
 20
0.0000
 30
0.0000
 40
0.1270
 41
0.1270
 70
0
  0
VERTEX
  8
102
 10
51.0000
 20
70.7000
 30
0.0000
  0
VERTEX
  8
102
 10
51.0000
 20
82.1000
 30
0.0000
  0
SEQEND
  8
0
  0
POLYLINE
  8
102
 66
1
 10
0.0000
 20
0.0000
 30
0.0000
 40
0.0635
 41
0.0635
 70
0
  0
VERTEX
  8
102
 10
51.0318
 20
82.1000
 30
0.0000
 42
1.0000
  0
VERTEX
  8
102
 10
50.9682
 20
82.1000
 30
0.0000
  0
SEQEND
  8
0
  0
POLYLINE
  8
102
 66
1
 10
0.0000
 20
0.0000
 30
0.0000
 40
0.0635
 41
0.0635
 70
0
  0
VERTEX
  8
102
 10
50.9682
 20
70.7000
 30
0.0000
 42
1.0000
  0
VERTEX
  8
102
 10
51.0318
 20
70.7000
 30
0.0000
  0
SEQEND
  8
0
  0
POLYLINE
  8
102
 66
1
 10
0.0000
 20
0.0000
 30
0.0000
 40
0.1270
 41
0.1270
 70
0
  0
VERTEX
  8
102
 10
70.0000
 20
82.1000
 30
0.0000
  0
VERTEX
  8
102
 10
82.0000
 20
82.1000
 30
0.0000
  0
SEQEND
  8
0
  0
POLYLINE
  8
102
 66
1
 10
0.0000
 20
0.0000
 30
0.0000
 40
0.0635
 41
0.0635
 70
0
  0
VERTEX
  8
102
 10
82.0000
 20
82.0683
 30
0.0000
 42
1.0000
  0
VERTEX
  8
102
 10
82.0000
 20
82.1318
 30
0.0000
  0
SEQEND
  8
0
  0
POLYLINE
  8
102
 66
1
 10
0.0000
 20
0.0000
 30
0.0000
 40
0.0635
 41
0.0635
 70
0
  0
VERTEX
  8
102
 10
70.0000
 20
82.1318
 30
0.0000
 42
1.0000
  0
VERTEX
  8
102
 10
70.0000
 20
82.0683
 30
0.0000
  0
SEQEND
  8
0
  0
POLYLINE
  8
102
 66
1
 10
0.0000
 20
0.0000
 30
0.0000
 40
0.1270
 41
0.1270
 70
0
  0
VERTEX
  8
102
 10
82.0000
 20
82.1000
 30
0.0000
  0
VERTEX
  8
102
 10
82.0000
 20
70.7000
 30
0.0000
  0
SEQEND
  8
0
  0
POLYLINE
  8
102
 66
1
 10
0.0000
 20
0.0000
 30
0.0000
 40
0.0635
 41
0.0635
 70
0
  0
VERTEX
  8
102
 10
81.9682
 20
70.7000
 30
0.0000
 42
1.0000
  0
VERTEX
  8
102
 10
82.0318
 20
70.7000
 30
0.0000
  0
SEQEND
  8
0
  0
POLYLINE
  8
102
 66
1
 10
0.0000
 20
0.0000
 30
0.0000
 40
0.0635
 41
0.0635
 70
0
  0
VERTEX
  8
102
 10
82.0318
 20
82.1000
 30
0.0000
 42
1.0000
  0
VERTEX
  8
102
 10
81.9682
 20
82.1000
 30
0.0000
  0
SEQEND
  8
0
  0
POLYLINE
  8
102
 66
1
 10
0.0000
 20
0.0000
 30
0.0000
 40
0.1270
 41
0.1270
 70
0
  0
VERTEX
  8
102
 10
82.0000
 20
70.7000
 30
0.0000
  0
VERTEX
  8
102
 10
70.0000
 20
70.7000
 30
0.0000
  0
SEQEND
  8
0
  0
POLYLINE
  8
102
 66
1
 10
0.0000
 20
0.0000
 30
0.0000
 40
0.0635
 41
0.0635
 70
0
  0
VERTEX
  8
102
 10
70.0000
 20
70.7318
 30
0.0000
 42
1.0000
  0
VERTEX
  8
102
 10
70.0000
 20
70.6683
 30
0.0000
  0
SEQEND
  8
0
  0
POLYLINE
  8
102
 66
1
 10
0.0000
 20
0.0000
 30
0.0000
 40
0.0635
 41
0.0635
 70
0
  0
VERTEX
  8
102
 10
82.0000
 20
70.6683
 30
0.0000
 42
1.0000
  0
VERTEX
  8
102
 10
82.0000
 20
70.7318
 30
0.0000
  0
SEQEND
  8
0
  0
POLYLINE
  8
102
 66
1
 10
0.0000
 20
0.0000
 30
0.0000
 40
0.1270
 41
0.1270
 70
0
  0
VERTEX
  8
102
 10
70.0000
 20
70.7000
 30
0.0000
  0
VERTEX
  8
102
 10
70.0000
 20
82.1000
 30
0.0000
  0
SEQEND
  8
0
  0
POLYLINE
  8
102
 66
1
 10
0.0000
 20
0.0000
 30
0.0000
 40
0.0635
 41
0.0635
 70
0
  0
VERTEX
  8
102
 10
70.0318
 20
82.1000
 30
0.0000
 42
1.0000
  0
VERTEX
  8
102
 10
69.9682
 20
82.1000
 30
0.0000
  0
SEQEND
  8
0
  0
POLYLINE
  8
102
 66
1
 10
0.0000
 20
0.0000
 30
0.0000
 40
0.0635
 41
0.0635
 70
0
  0
VERTEX
  8
102
 10
69.9682
 20
70.7000
 30
0.0000
 42
1.0000
  0
VERTEX
  8
102
 10
70.0318
 20
70.7000
 30
0.0000
  0
SEQEND
  8
0
  0
POLYLINE
  8
102
 66
1
 10
0.0000
 20
0.0000
 30
0.0000
 40
0.1270
 41
0.1270
 70
0
  0
VERTEX
  8
102
 10
89.0000
 20
82.1000
 30
0.0000
  0
VERTEX
  8
102
 10
101.0000
 20
82.1000
 30
0.0000
  0
SEQEND
  8
0
  0
POLYLINE
  8
102
 66
1
 10
0.0000
 20
0.0000
 30
0.0000
 40
0.0635
 41
0.0635
 70
0
  0
VERTEX
  8
102
 10
101.0000
 20
82.0683
 30
0.0000
 42
1.0000
  0
VERTEX
  8
102
 10
101.0000
 20
82.1318
 30
0.0000
  0
SEQEND
  8
0
  0
POLYLINE
  8
102
 66
1
 10
0.0000
 20
0.0000
 30
0.0000
 40
0.0635
 41
0.0635
 70
0
  0
VERTEX
  8
102
 10
89.0000
 20
82.1318
 30
0.0000
 42
1.0000
  0
VERTEX
  8
102
 10
89.0000
 20
82.0683
 30
0.0000
  0
SEQEND
  8
0
  0
POLYLINE
  8
102
 66
1
 10
0.0000
 20
0.0000
 30
0.0000
 40
0.1270
 41
0.1270
 70
0
  0
VERTEX
  8
102
 10
101.0000
 20
82.1000
 30
0.0000
  0
VERTEX
  8
102
 10
101.0000
 20
70.7000
 30
0.0000
  0
SEQEND
  8
0
  0
POLYLINE
  8
102
 66
1
 10
0.0000
 20
0.0000
 30
0.0000
 40
0.0635
 41
0.0635
 70
0
  0
VERTEX
  8
102
 10
100.9682
 20
70.7000
 30
0.0000
 42
1.0000
  0
VERTEX
  8
102
 10
101.0318
 20
70.7000
 30
0.0000
  0
SEQEND
  8
0
  0
POLYLINE
  8
102
 66
1
 10
0.0000
 20
0.0000
 30
0.0000
 40
0.0635
 41
0.0635
 70
0
  0
VERTEX
  8
102
 10
101.0318
 20
82.1000
 30
0.0000
 42
1.0000
  0
VERTEX
  8
102
 10
100.9682
 20
82.1000
 30
0.0000
  0
SEQEND
  8
0
  0
POLYLINE
  8
102
 66
1
 10
0.0000
 20
0.0000
 30
0.0000
 40
0.1270
 41
0.1270
 70
0
  0
VERTEX
  8
102
 10
101.0000
 20
70.7000
 30
0.0000
  0
VERTEX
  8
102
 10
89.0000
 20
70.7000
 30
0.0000
  0
SEQEND
  8
0
  0
POLYLINE
  8
102
 66
1
 10
0.0000
 20
0.0000
 30
0.0000
 40
0.0635
 41
0.0635
 70
0
  0
VERTEX
  8
102
 10
89.0000
 20
70.7318
 30
0.0000
 42
1.0000
  0
VERTEX
  8
102
 10
89.0000
 20
70.6683
 30
0.0000
  0
SEQEND
  8
0
  0
POLYLINE
  8
102
 66
1
 10
0.0000
 20
0.0000
 30
0.0000
 40
0.0635
 41
0.0635
 70
0
  0
VERTEX
  8
102
 10
101.0000
 20
70.6683
 30
0.0000
 42
1.0000
  0
VERTEX
  8
102
 10
101.0000
 20
70.7318
 30
0.0000
  0
SEQEND
  8
0
  0
POLYLINE
  8
102
 66
1
 10
0.0000
 20
0.0000
 30
0.0000
 40
0.1270
 41
0.1270
 70
0
  0
VERTEX
  8
102
 10
89.0000
 20
70.7000
 30
0.0000
  0
VERTEX
  8
102
 10
89.0000
 20
82.1000
 30
0.0000
  0
SEQEND
  8
0
  0
POLYLINE
  8
102
 66
1
 10
0.0000
 20
0.0000
 30
0.0000
 40
0.0635
 41
0.0635
 70
0
  0
VERTEX
  8
102
 10
89.0318
 20
82.1000
 30
0.0000
 42
1.0000
  0
VERTEX
  8
102
 10
88.9682
 20
82.1000
 30
0.0000
  0
SEQEND
  8
0
  0
POLYLINE
  8
102
 66
1
 10
0.0000
 20
0.0000
 30
0.0000
 40
0.0635
 41
0.0635
 70
0
  0
VERTEX
  8
102
 10
88.9682
 20
70.7000
 30
0.0000
 42
1.0000
  0
VERTEX
  8
102
 10
89.0318
 20
70.7000
 30
0.0000
  0
SEQEND
  8
0
  0
POLYLINE
  8
102
 66
1
 10
0.0000
 20
0.0000
 30
0.0000
 40
0.1270
 41
0.1270
 70
0
  0
VERTEX
  8
102
 10
108.0000
 20
82.1000
 30
0.0000
  0
VERTEX
  8
102
 10
120.0000
 20
82.1000
 30
0.0000
  0
SEQEND
  8
0
  0
POLYLINE
  8
102
 66
1
 10
0.0000
 20
0.0000
 30
0.0000
 40
0.0635
 41
0.0635
 70
0
  0
VERTEX
  8
102
 10
120.0000
 20
82.0683
 30
0.0000
 42
1.0000
  0
VERTEX
  8
102
 10
120.0000
 20
82.1318
 30
0.0000
  0
SEQEND
  8
0
  0
POLYLINE
  8
102
 66
1
 10
0.0000
 20
0.0000
 30
0.0000
 40
0.0635
 41
0.0635
 70
0
  0
VERTEX
  8
102
 10
108.0000
 20
82.1318
 30
0.0000
 42
1.0000
  0
VERTEX
  8
102
 10
108.0000
 20
82.0683
 30
0.0000
  0
SEQEND
  8
0
  0
POLYLINE
  8
102
 66
1
 10
0.0000
 20
0.0000
 30
0.0000
 40
0.1270
 41
0.1270
 70
0
  0
VERTEX
  8
102
 10
120.0000
 20
82.1000
 30
0.0000
  0
VERTEX
  8
102
 10
120.0000
 20
70.7000
 30
0.0000
  0
SEQEND
  8
0
  0
POLYLINE
  8
102
 66
1
 10
0.0000
 20
0.0000
 30
0.0000
 40
0.0635
 41
0.0635
 70
0
  0
VERTEX
  8
102
 10
119.9682
 20
70.7000
 30
0.0000
 42
1.0000
  0
VERTEX
  8
102
 10
120.0318
 20
70.7000
 30
0.0000
  0
SEQEND
  8
0
  0
POLYLINE
  8
102
 66
1
 10
0.0000
 20
0.0000
 30
0.0000
 40
0.0635
 41
0.0635
 70
0
  0
VERTEX
  8
102
 10
120.0318
 20
82.1000
 30
0.0000
 42
1.0000
  0
VERTEX
  8
102
 10
119.9682
 20
82.1000
 30
0.0000
  0
SEQEND
  8
0
  0
POLYLINE
  8
102
 66
1
 10
0.0000
 20
0.0000
 30
0.0000
 40
0.1270
 41
0.1270
 70
0
  0
VERTEX
  8
102
 10
120.0000
 20
70.7000
 30
0.0000
  0
VERTEX
  8
102
 10
108.0000
 20
70.7000
 30
0.0000
  0
SEQEND
  8
0
  0
POLYLINE
  8
102
 66
1
 10
0.0000
 20
0.0000
 30
0.0000
 40
0.0635
 41
0.0635
 70
0
  0
VERTEX
  8
102
 10
108.0000
 20
70.7318
 30
0.0000
 42
1.0000
  0
VERTEX
  8
102
 10
108.0000
 20
70.6683
 30
0.0000
  0
SEQEND
  8
0
  0
POLYLINE
  8
102
 66
1
 10
0.0000
 20
0.0000
 30
0.0000
 40
0.0635
 41
0.0635
 70
0
  0
VERTEX
  8
102
 10
120.0000
 20
70.6683
 30
0.0000
 42
1.0000
  0
VERTEX
  8
102
 10
120.0000
 20
70.7318
 30
0.0000
  0
SEQEND
  8
0
  0
POLYLINE
  8
102
 66
1
 10
0.0000
 20
0.0000
 30
0.0000
 40
0.1270
 41
0.1270
 70
0
  0
VERTEX
  8
102
 10
108.0000
 20
70.7000
 30
0.0000
  0
VERTEX
  8
102
 10
108.0000
 20
82.1000
 30
0.0000
  0
SEQEND
  8
0
  0
POLYLINE
  8
102
 66
1
 10
0.0000
 20
0.0000
 30
0.0000
 40
0.0635
 41
0.0635
 70
0
  0
VERTEX
  8
102
 10
108.0318
 20
82.1000
 30
0.0000
 42
1.0000
  0
VERTEX
  8
102
 10
107.9682
 20
82.1000
 30
0.0000
  0
SEQEND
  8
0
  0
POLYLINE
  8
102
 66
1
 10
0.0000
 20
0.0000
 30
0.0000
 40
0.0635
 41
0.0635
 70
0
  0
VERTEX
  8
102
 10
107.9682
 20
70.7000
 30
0.0000
 42
1.0000
  0
VERTEX
  8
102
 10
108.0318
 20
70.7000
 30
0.0000
  0
SEQEND
  8
0
  0
POLYLINE
  8
102
 66
1
 10
0.0000
 20
0.0000
 30
0.0000
 40
0.1270
 41
0.1270
 70
0
  0
VERTEX
  8
102
 10
127.0000
 20
82.1000
 30
0.0000
  0
VERTEX
  8
102
 10
139.0000
 20
82.1000
 30
0.0000
  0
SEQEND
  8
0
  0
POLYLINE
  8
102
 66
1
 10
0.0000
 20
0.0000
 30
0.0000
 40
0.0635
 41
0.0635
 70
0
  0
VERTEX
  8
102
 10
139.0000
 20
82.0683
 30
0.0000
 42
1.0000
  0
VERTEX
  8
102
 10
139.0000
 20
82.1318
 30
0.0000
  0
SEQEND
  8
0
  0
POLYLINE
  8
102
 66
1
 10
0.0000
 20
0.0000
 30
0.0000
 40
0.0635
 41
0.0635
 70
0
  0
VERTEX
  8
102
 10
127.0000
 20
82.1318
 30
0.0000
 42
1.0000
  0
VERTEX
  8
102
 10
127.0000
 20
82.0683
 30
0.0000
  0
SEQEND
  8
0
  0
POLYLINE
  8
102
 66
1
 10
0.0000
 20
0.0000
 30
0.0000
 40
0.1270
 41
0.1270
 70
0
  0
VERTEX
  8
102
 10
139.0000
 20
82.1000
 30
0.0000
  0
VERTEX
  8
102
 10
139.0000
 20
70.7000
 30
0.0000
  0
SEQEND
  8
0
  0
POLYLINE
  8
102
 66
1
 10
0.0000
 20
0.0000
 30
0.0000
 40
0.0635
 41
0.0635
 70
0
  0
VERTEX
  8
102
 10
138.9683
 20
70.7000
 30
0.0000
 42
1.0000
  0
VERTEX
  8
102
 10
139.0317
 20
70.7000
 30
0.0000
  0
SEQEND
  8
0
  0
POLYLINE
  8
102
 66
1
 10
0.0000
 20
0.0000
 30
0.0000
 40
0.0635
 41
0.0635
 70
0
  0
VERTEX
  8
102
 10
139.0317
 20
82.1000
 30
0.0000
 42
1.0000
  0
VERTEX
  8
102
 10
138.9683
 20
82.1000
 30
0.0000
  0
SEQEND
  8
0
  0
POLYLINE
  8
102
 66
1
 10
0.0000
 20
0.0000
 30
0.0000
 40
0.1270
 41
0.1270
 70
0
  0
VERTEX
  8
102
 10
139.0000
 20
70.7000
 30
0.0000
  0
VERTEX
  8
102
 10
127.0000
 20
70.7000
 30
0.0000
  0
SEQEND
  8
0
  0
POLYLINE
  8
102
 66
1
 10
0.0000
 20
0.0000
 30
0.0000
 40
0.0635
 41
0.0635
 70
0
  0
VERTEX
  8
102
 10
127.0000
 20
70.7318
 30
0.0000
 42
1.0000
  0
VERTEX
  8
102
 10
127.0000
 20
70.6683
 30
0.0000
  0
SEQEND
  8
0
  0
POLYLINE
  8
102
 66
1
 10
0.0000
 20
0.0000
 30
0.0000
 40
0.0635
 41
0.0635
 70
0
  0
VERTEX
  8
102
 10
139.0000
 20
70.6683
 30
0.0000
 42
1.0000
  0
VERTEX
  8
102
 10
139.0000
 20
70.7318
 30
0.0000
  0
SEQEND
  8
0
  0
POLYLINE
  8
102
 66
1
 10
0.0000
 20
0.0000
 30
0.0000
 40
0.1270
 41
0.1270
 70
0
  0
VERTEX
  8
102
 10
127.0000
 20
70.7000
 30
0.0000
  0
VERTEX
  8
102
 10
127.0000
 20
82.1000
 30
0.0000
  0
SEQEND
  8
0
  0
POLYLINE
  8
102
 66
1
 10
0.0000
 20
0.0000
 30
0.0000
 40
0.0635
 41
0.0635
 70
0
  0
VERTEX
  8
102
 10
127.0318
 20
82.1000
 30
0.0000
 42
1.0000
  0
VERTEX
  8
102
 10
126.9682
 20
82.1000
 30
0.0000
  0
SEQEND
  8
0
  0
POLYLINE
  8
102
 66
1
 10
0.0000
 20
0.0000
 30
0.0000
 40
0.0635
 41
0.0635
 70
0
  0
VERTEX
  8
102
 10
126.9682
 20
70.7000
 30
0.0000
 42
1.0000
  0
VERTEX
  8
102
 10
127.0318
 20
70.7000
 30
0.0000
  0
SEQEND
  8
0
  0
POLYLINE
  8
102
 66
1
 10
0.0000
 20
0.0000
 30
0.0000
 40
0.1270
 41
0.1270
 70
0
  0
VERTEX
  8
102
 10
146.0000
 20
82.1000
 30
0.0000
  0
VERTEX
  8
102
 10
158.0000
 20
82.1000
 30
0.0000
  0
SEQEND
  8
0
  0
POLYLINE
  8
102
 66
1
 10
0.0000
 20
0.0000
 30
0.0000
 40
0.0635
 41
0.0635
 70
0
  0
VERTEX
  8
102
 10
158.0000
 20
82.0683
 30
0.0000
 42
1.0000
  0
VERTEX
  8
102
 10
158.0000
 20
82.1318
 30
0.0000
  0
SEQEND
  8
0
  0
POLYLINE
  8
102
 66
1
 10
0.0000
 20
0.0000
 30
0.0000
 40
0.0635
 41
0.0635
 70
0
  0
VERTEX
  8
102
 10
146.0000
 20
82.1318
 30
0.0000
 42
1.0000
  0
VERTEX
  8
102
 10
146.0000
 20
82.0683
 30
0.0000
  0
SEQEND
  8
0
  0
POLYLINE
  8
102
 66
1
 10
0.0000
 20
0.0000
 30
0.0000
 40
0.1270
 41
0.1270
 70
0
  0
VERTEX
  8
102
 10
158.0000
 20
82.1000
 30
0.0000
  0
VERTEX
  8
102
 10
158.0000
 20
70.7000
 30
0.0000
  0
SEQEND
  8
0
  0
POLYLINE
  8
102
 66
1
 10
0.0000
 20
0.0000
 30
0.0000
 40
0.0635
 41
0.0635
 70
0
  0
VERTEX
  8
102
 10
157.9683
 20
70.7000
 30
0.0000
 42
1.0000
  0
VERTEX
  8
102
 10
158.0317
 20
70.7000
 30
0.0000
  0
SEQEND
  8
0
  0
POLYLINE
  8
102
 66
1
 10
0.0000
 20
0.0000
 30
0.0000
 40
0.0635
 41
0.0635
 70
0
  0
VERTEX
  8
102
 10
158.0317
 20
82.1000
 30
0.0000
 42
1.0000
  0
VERTEX
  8
102
 10
157.9683
 20
82.1000
 30
0.0000
  0
SEQEND
  8
0
  0
POLYLINE
  8
102
 66
1
 10
0.0000
 20
0.0000
 30
0.0000
 40
0.1270
 41
0.1270
 70
0
  0
VERTEX
  8
102
 10
158.0000
 20
70.7000
 30
0.0000
  0
VERTEX
  8
102
 10
146.0000
 20
70.7000
 30
0.0000
  0
SEQEND
  8
0
  0
POLYLINE
  8
102
 66
1
 10
0.0000
 20
0.0000
 30
0.0000
 40
0.0635
 41
0.0635
 70
0
  0
VERTEX
  8
102
 10
146.0000
 20
70.7318
 30
0.0000
 42
1.0000
  0
VERTEX
  8
102
 10
146.0000
 20
70.6683
 30
0.0000
  0
SEQEND
  8
0
  0
POLYLINE
  8
102
 66
1
 10
0.0000
 20
0.0000
 30
0.0000
 40
0.0635
 41
0.0635
 70
0
  0
VERTEX
  8
102
 10
158.0000
 20
70.6683
 30
0.0000
 42
1.0000
  0
VERTEX
  8
102
 10
158.0000
 20
70.7318
 30
0.0000
  0
SEQEND
  8
0
  0
POLYLINE
  8
102
 66
1
 10
0.0000
 20
0.0000
 30
0.0000
 40
0.1270
 41
0.1270
 70
0
  0
VERTEX
  8
102
 10
146.0000
 20
70.7000
 30
0.0000
  0
VERTEX
  8
102
 10
146.0000
 20
82.1000
 30
0.0000
  0
SEQEND
  8
0
  0
POLYLINE
  8
102
 66
1
 10
0.0000
 20
0.0000
 30
0.0000
 40
0.0635
 41
0.0635
 70
0
  0
VERTEX
  8
102
 10
146.0317
 20
82.1000
 30
0.0000
 42
1.0000
  0
VERTEX
  8
102
 10
145.9683
 20
82.1000
 30
0.0000
  0
SEQEND
  8
0
  0
POLYLINE
  8
102
 66
1
 10
0.0000
 20
0.0000
 30
0.0000
 40
0.0635
 41
0.0635
 70
0
  0
VERTEX
  8
102
 10
145.9683
 20
70.7000
 30
0.0000
 42
1.0000
  0
VERTEX
  8
102
 10
146.0317
 20
70.7000
 30
0.0000
  0
SEQEND
  8
0
  0
POLYLINE
  8
102
 66
1
 10
0.0000
 20
0.0000
 30
0.0000
 40
0.1270
 41
0.1270
 70
0
  0
VERTEX
  8
102
 10
165.0000
 20
82.1000
 30
0.0000
  0
VERTEX
  8
102
 10
177.0000
 20
82.1000
 30
0.0000
  0
SEQEND
  8
0
  0
POLYLINE
  8
102
 66
1
 10
0.0000
 20
0.0000
 30
0.0000
 40
0.0635
 41
0.0635
 70
0
  0
VERTEX
  8
102
 10
177.0000
 20
82.0683
 30
0.0000
 42
1.0000
  0
VERTEX
  8
102
 10
177.0000
 20
82.1318
 30
0.0000
  0
SEQEND
  8
0
  0
POLYLINE
  8
102
 66
1
 10
0.0000
 20
0.0000
 30
0.0000
 40
0.0635
 41
0.0635
 70
0
  0
VERTEX
  8
102
 10
165.0000
 20
82.1318
 30
0.0000
 42
1.0000
  0
VERTEX
  8
102
 10
165.0000
 20
82.0683
 30
0.0000
  0
SEQEND
  8
0
  0
POLYLINE
  8
102
 66
1
 10
0.0000
 20
0.0000
 30
0.0000
 40
0.1270
 41
0.1270
 70
0
  0
VERTEX
  8
102
 10
177.0000
 20
82.1000
 30
0.0000
  0
VERTEX
  8
102
 10
177.0000
 20
70.7000
 30
0.0000
  0
SEQEND
  8
0
  0
POLYLINE
  8
102
 66
1
 10
0.0000
 20
0.0000
 30
0.0000
 40
0.0635
 41
0.0635
 70
0
  0
VERTEX
  8
102
 10
176.9683
 20
70.7000
 30
0.0000
 42
1.0000
  0
VERTEX
  8
102
 10
177.0317
 20
70.7000
 30
0.0000
  0
SEQEND
  8
0
  0
POLYLINE
  8
102
 66
1
 10
0.0000
 20
0.0000
 30
0.0000
 40
0.0635
 41
0.0635
 70
0
  0
VERTEX
  8
102
 10
177.0317
 20
82.1000
 30
0.0000
 42
1.0000
  0
VERTEX
  8
102
 10
176.9683
 20
82.1000
 30
0.0000
  0
SEQEND
  8
0
  0
POLYLINE
  8
102
 66
1
 10
0.0000
 20
0.0000
 30
0.0000
 40
0.1270
 41
0.1270
 70
0
  0
VERTEX
  8
102
 10
177.0000
 20
70.7000
 30
0.0000
  0
VERTEX
  8
102
 10
165.0000
 20
70.7000
 30
0.0000
  0
SEQEND
  8
0
  0
POLYLINE
  8
102
 66
1
 10
0.0000
 20
0.0000
 30
0.0000
 40
0.0635
 41
0.0635
 70
0
  0
VERTEX
  8
102
 10
165.0000
 20
70.7318
 30
0.0000
 42
1.0000
  0
VERTEX
  8
102
 10
165.0000
 20
70.6683
 30
0.0000
  0
SEQEND
  8
0
  0
POLYLINE
  8
102
 66
1
 10
0.0000
 20
0.0000
 30
0.0000
 40
0.0635
 41
0.0635
 70
0
  0
VERTEX
  8
102
 10
177.0000
 20
70.6683
 30
0.0000
 42
1.0000
  0
VERTEX
  8
102
 10
177.0000
 20
70.7318
 30
0.0000
  0
SEQEND
  8
0
  0
POLYLINE
  8
102
 66
1
 10
0.0000
 20
0.0000
 30
0.0000
 40
0.1270
 41
0.1270
 70
0
  0
VERTEX
  8
102
 10
165.0000
 20
70.7000
 30
0.0000
  0
VERTEX
  8
102
 10
165.0000
 20
82.1000
 30
0.0000
  0
SEQEND
  8
0
  0
POLYLINE
  8
102
 66
1
 10
0.0000
 20
0.0000
 30
0.0000
 40
0.0635
 41
0.0635
 70
0
  0
VERTEX
  8
102
 10
165.0317
 20
82.1000
 30
0.0000
 42
1.0000
  0
VERTEX
  8
102
 10
164.9683
 20
82.1000
 30
0.0000
  0
SEQEND
  8
0
  0
POLYLINE
  8
102
 66
1
 10
0.0000
 20
0.0000
 30
0.0000
 40
0.0635
 41
0.0635
 70
0
  0
VERTEX
  8
102
 10
164.9683
 20
70.7000
 30
0.0000
 42
1.0000
  0
VERTEX
  8
102
 10
165.0317
 20
70.7000
 30
0.0000
  0
SEQEND
  8
0
  0
POLYLINE
  8
102
 66
1
 10
0.0000
 20
0.0000
 30
0.0000
 40
0.1270
 41
0.1270
 70
0
  0
VERTEX
  8
102
 10
184.0000
 20
82.1000
 30
0.0000
  0
VERTEX
  8
102
 10
196.0000
 20
82.1000
 30
0.0000
  0
SEQEND
  8
0
  0
POLYLINE
  8
102
 66
1
 10
0.0000
 20
0.0000
 30
0.0000
 40
0.0635
 41
0.0635
 70
0
  0
VERTEX
  8
102
 10
196.0000
 20
82.0683
 30
0.0000
 42
1.0000
  0
VERTEX
  8
102
 10
196.0000
 20
82.1318
 30
0.0000
  0
SEQEND
  8
0
  0
POLYLINE
  8
102
 66
1
 10
0.0000
 20
0.0000
 30
0.0000
 40
0.0635
 41
0.0635
 70
0
  0
VERTEX
  8
102
 10
184.0000
 20
82.1318
 30
0.0000
 42
1.0000
  0
VERTEX
  8
102
 10
184.0000
 20
82.0683
 30
0.0000
  0
SEQEND
  8
0
  0
POLYLINE
  8
102
 66
1
 10
0.0000
 20
0.0000
 30
0.0000
 40
0.1270
 41
0.1270
 70
0
  0
VERTEX
  8
102
 10
196.0000
 20
82.1000
 30
0.0000
  0
VERTEX
  8
102
 10
196.0000
 20
70.7000
 30
0.0000
  0
SEQEND
  8
0
  0
POLYLINE
  8
102
 66
1
 10
0.0000
 20
0.0000
 30
0.0000
 40
0.0635
 41
0.0635
 70
0
  0
VERTEX
  8
102
 10
195.9683
 20
70.7000
 30
0.0000
 42
1.0000
  0
VERTEX
  8
102
 10
196.0317
 20
70.7000
 30
0.0000
  0
SEQEND
  8
0
  0
POLYLINE
  8
102
 66
1
 10
0.0000
 20
0.0000
 30
0.0000
 40
0.0635
 41
0.0635
 70
0
  0
VERTEX
  8
102
 10
196.0317
 20
82.1000
 30
0.0000
 42
1.0000
  0
VERTEX
  8
102
 10
195.9683
 20
82.1000
 30
0.0000
  0
SEQEND
  8
0
  0
POLYLINE
  8
102
 66
1
 10
0.0000
 20
0.0000
 30
0.0000
 40
0.1270
 41
0.1270
 70
0
  0
VERTEX
  8
102
 10
196.0000
 20
70.7000
 30
0.0000
  0
VERTEX
  8
102
 10
184.0000
 20
70.7000
 30
0.0000
  0
SEQEND
  8
0
  0
POLYLINE
  8
102
 66
1
 10
0.0000
 20
0.0000
 30
0.0000
 40
0.0635
 41
0.0635
 70
0
  0
VERTEX
  8
102
 10
184.0000
 20
70.7318
 30
0.0000
 42
1.0000
  0
VERTEX
  8
102
 10
184.0000
 20
70.6683
 30
0.0000
  0
SEQEND
  8
0
  0
POLYLINE
  8
102
 66
1
 10
0.0000
 20
0.0000
 30
0.0000
 40
0.0635
 41
0.0635
 70
0
  0
VERTEX
  8
102
 10
196.0000
 20
70.6683
 30
0.0000
 42
1.0000
  0
VERTEX
  8
102
 10
196.0000
 20
70.7318
 30
0.0000
  0
SEQEND
  8
0
  0
POLYLINE
  8
102
 66
1
 10
0.0000
 20
0.0000
 30
0.0000
 40
0.1270
 41
0.1270
 70
0
  0
VERTEX
  8
102
 10
184.0000
 20
70.7000
 30
0.0000
  0
VERTEX
  8
102
 10
184.0000
 20
82.1000
 30
0.0000
  0
SEQEND
  8
0
  0
POLYLINE
  8
102
 66
1
 10
0.0000
 20
0.0000
 30
0.0000
 40
0.0635
 41
0.0635
 70
0
  0
VERTEX
  8
102
 10
184.0317
 20
82.1000
 30
0.0000
 42
1.0000
  0
VERTEX
  8
102
 10
183.9683
 20
82.1000
 30
0.0000
  0
SEQEND
  8
0
  0
POLYLINE
  8
102
 66
1
 10
0.0000
 20
0.0000
 30
0.0000
 40
0.0635
 41
0.0635
 70
0
  0
VERTEX
  8
102
 10
183.9683
 20
70.7000
 30
0.0000
 42
1.0000
  0
VERTEX
  8
102
 10
184.0317
 20
70.7000
 30
0.0000
  0
SEQEND
  8
0
  0
POLYLINE
  8
102
 66
1
 10
0.0000
 20
0.0000
 30
0.0000
 40
0.1270
 41
0.1270
 70
0
  0
VERTEX
  8
102
 10
203.0000
 20
82.1000
 30
0.0000
  0
VERTEX
  8
102
 10
215.0000
 20
82.1000
 30
0.0000
  0
SEQEND
  8
0
  0
POLYLINE
  8
102
 66
1
 10
0.0000
 20
0.0000
 30
0.0000
 40
0.0635
 41
0.0635
 70
0
  0
VERTEX
  8
102
 10
215.0000
 20
82.0683
 30
0.0000
 42
1.0000
  0
VERTEX
  8
102
 10
215.0000
 20
82.1318
 30
0.0000
  0
SEQEND
  8
0
  0
POLYLINE
  8
102
 66
1
 10
0.0000
 20
0.0000
 30
0.0000
 40
0.0635
 41
0.0635
 70
0
  0
VERTEX
  8
102
 10
203.0000
 20
82.1318
 30
0.0000
 42
1.0000
  0
VERTEX
  8
102
 10
203.0000
 20
82.0683
 30
0.0000
  0
SEQEND
  8
0
  0
POLYLINE
  8
102
 66
1
 10
0.0000
 20
0.0000
 30
0.0000
 40
0.1270
 41
0.1270
 70
0
  0
VERTEX
  8
102
 10
215.0000
 20
82.1000
 30
0.0000
  0
VERTEX
  8
102
 10
215.0000
 20
70.7000
 30
0.0000
  0
SEQEND
  8
0
  0
POLYLINE
  8
102
 66
1
 10
0.0000
 20
0.0000
 30
0.0000
 40
0.0635
 41
0.0635
 70
0
  0
VERTEX
  8
102
 10
214.9683
 20
70.7000
 30
0.0000
 42
1.0000
  0
VERTEX
  8
102
 10
215.0317
 20
70.7000
 30
0.0000
  0
SEQEND
  8
0
  0
POLYLINE
  8
102
 66
1
 10
0.0000
 20
0.0000
 30
0.0000
 40
0.0635
 41
0.0635
 70
0
  0
VERTEX
  8
102
 10
215.0317
 20
82.1000
 30
0.0000
 42
1.0000
  0
VERTEX
  8
102
 10
214.9683
 20
82.1000
 30
0.0000
  0
SEQEND
  8
0
  0
POLYLINE
  8
102
 66
1
 10
0.0000
 20
0.0000
 30
0.0000
 40
0.1270
 41
0.1270
 70
0
  0
VERTEX
  8
102
 10
215.0000
 20
70.7000
 30
0.0000
  0
VERTEX
  8
102
 10
203.0000
 20
70.7000
 30
0.0000
  0
SEQEND
  8
0
  0
POLYLINE
  8
102
 66
1
 10
0.0000
 20
0.0000
 30
0.0000
 40
0.0635
 41
0.0635
 70
0
  0
VERTEX
  8
102
 10
203.0000
 20
70.7318
 30
0.0000
 42
1.0000
  0
VERTEX
  8
102
 10
203.0000
 20
70.6683
 30
0.0000
  0
SEQEND
  8
0
  0
POLYLINE
  8
102
 66
1
 10
0.0000
 20
0.0000
 30
0.0000
 40
0.0635
 41
0.0635
 70
0
  0
VERTEX
  8
102
 10
215.0000
 20
70.6683
 30
0.0000
 42
1.0000
  0
VERTEX
  8
102
 10
215.0000
 20
70.7318
 30
0.0000
  0
SEQEND
  8
0
  0
POLYLINE
  8
102
 66
1
 10
0.0000
 20
0.0000
 30
0.0000
 40
0.1270
 41
0.1270
 70
0
  0
VERTEX
  8
102
 10
203.0000
 20
70.7000
 30
0.0000
  0
VERTEX
  8
102
 10
203.0000
 20
82.1000
 30
0.0000
  0
SEQEND
  8
0
  0
POLYLINE
  8
102
 66
1
 10
0.0000
 20
0.0000
 30
0.0000
 40
0.0635
 41
0.0635
 70
0
  0
VERTEX
  8
102
 10
203.0317
 20
82.1000
 30
0.0000
 42
1.0000
  0
VERTEX
  8
102
 10
202.9683
 20
82.1000
 30
0.0000
  0
SEQEND
  8
0
  0
POLYLINE
  8
102
 66
1
 10
0.0000
 20
0.0000
 30
0.0000
 40
0.0635
 41
0.0635
 70
0
  0
VERTEX
  8
102
 10
202.9683
 20
70.7000
 30
0.0000
 42
1.0000
  0
VERTEX
  8
102
 10
203.0317
 20
70.7000
 30
0.0000
  0
SEQEND
  8
0
  0
POLYLINE
  8
102
 66
1
 10
0.0000
 20
0.0000
 30
0.0000
 40
0.1270
 41
0.1270
 70
0
  0
VERTEX
  8
102
 10
226.7500
 20
82.1000
 30
0.0000
  0
VERTEX
  8
102
 10
238.7500
 20
82.1000
 30
0.0000
  0
SEQEND
  8
0
  0
POLYLINE
  8
102
 66
1
 10
0.0000
 20
0.0000
 30
0.0000
 40
0.0635
 41
0.0635
 70
0
  0
VERTEX
  8
102
 10
238.7500
 20
82.0683
 30
0.0000
 42
1.0000
  0
VERTEX
  8
102
 10
238.7500
 20
82.1318
 30
0.0000
  0
SEQEND
  8
0
  0
POLYLINE
  8
102
 66
1
 10
0.0000
 20
0.0000
 30
0.0000
 40
0.0635
 41
0.0635
 70
0
  0
VERTEX
  8
102
 10
226.7500
 20
82.1318
 30
0.0000
 42
1.0000
  0
VERTEX
  8
102
 10
226.7500
 20
82.0683
 30
0.0000
  0
SEQEND
  8
0
  0
POLYLINE
  8
102
 66
1
 10
0.0000
 20
0.0000
 30
0.0000
 40
0.1270
 41
0.1270
 70
0
  0
VERTEX
  8
102
 10
238.7500
 20
82.1000
 30
0.0000
  0
VERTEX
  8
102
 10
238.7500
 20
70.7000
 30
0.0000
  0
SEQEND
  8
0
  0
POLYLINE
  8
102
 66
1
 10
0.0000
 20
0.0000
 30
0.0000
 40
0.0635
 41
0.0635
 70
0
  0
VERTEX
  8
102
 10
238.7183
 20
70.7000
 30
0.0000
 42
1.0000
  0
VERTEX
  8
102
 10
238.7817
 20
70.7000
 30
0.0000
  0
SEQEND
  8
0
  0
POLYLINE
  8
102
 66
1
 10
0.0000
 20
0.0000
 30
0.0000
 40
0.0635
 41
0.0635
 70
0
  0
VERTEX
  8
102
 10
238.7817
 20
82.1000
 30
0.0000
 42
1.0000
  0
VERTEX
  8
102
 10
238.7183
 20
82.1000
 30
0.0000
  0
SEQEND
  8
0
  0
POLYLINE
  8
102
 66
1
 10
0.0000
 20
0.0000
 30
0.0000
 40
0.1270
 41
0.1270
 70
0
  0
VERTEX
  8
102
 10
238.7500
 20
70.7000
 30
0.0000
  0
VERTEX
  8
102
 10
226.7500
 20
70.7000
 30
0.0000
  0
SEQEND
  8
0
  0
POLYLINE
  8
102
 66
1
 10
0.0000
 20
0.0000
 30
0.0000
 40
0.0635
 41
0.0635
 70
0
  0
VERTEX
  8
102
 10
226.7500
 20
70.7318
 30
0.0000
 42
1.0000
  0
VERTEX
  8
102
 10
226.7500
 20
70.6683
 30
0.0000
  0
SEQEND
  8
0
  0
POLYLINE
  8
102
 66
1
 10
0.0000
 20
0.0000
 30
0.0000
 40
0.0635
 41
0.0635
 70
0
  0
VERTEX
  8
102
 10
238.7500
 20
70.6683
 30
0.0000
 42
1.0000
  0
VERTEX
  8
102
 10
238.7500
 20
70.7318
 30
0.0000
  0
SEQEND
  8
0
  0
POLYLINE
  8
102
 66
1
 10
0.0000
 20
0.0000
 30
0.0000
 40
0.1270
 41
0.1270
 70
0
  0
VERTEX
  8
102
 10
226.7500
 20
70.7000
 30
0.0000
  0
VERTEX
  8
102
 10
226.7500
 20
82.1000
 30
0.0000
  0
SEQEND
  8
0
  0
POLYLINE
  8
102
 66
1
 10
0.0000
 20
0.0000
 30
0.0000
 40
0.0635
 41
0.0635
 70
0
  0
VERTEX
  8
102
 10
226.7817
 20
82.1000
 30
0.0000
 42
1.0000
  0
VERTEX
  8
102
 10
226.7183
 20
82.1000
 30
0.0000
  0
SEQEND
  8
0
  0
POLYLINE
  8
102
 66
1
 10
0.0000
 20
0.0000
 30
0.0000
 40
0.0635
 41
0.0635
 70
0
  0
VERTEX
  8
102
 10
226.7183
 20
70.7000
 30
0.0000
 42
1.0000
  0
VERTEX
  8
102
 10
226.7817
 20
70.7000
 30
0.0000
  0
SEQEND
  8
0
  0
POLYLINE
  8
102
 66
1
 10
0.0000
 20
0.0000
 30
0.0000
 40
0.1270
 41
0.1270
 70
0
  0
VERTEX
  8
102
 10
-1.2500
 20
63.0000
 30
0.0000
  0
VERTEX
  8
102
 10
10.7500
 20
63.0000
 30
0.0000
  0
SEQEND
  8
0
  0
POLYLINE
  8
102
 66
1
 10
0.0000
 20
0.0000
 30
0.0000
 40
0.0635
 41
0.0635
 70
0
  0
VERTEX
  8
102
 10
10.7500
 20
62.9682
 30
0.0000
 42
1.0000
  0
VERTEX
  8
102
 10
10.7500
 20
63.0318
 30
0.0000
  0
SEQEND
  8
0
  0
POLYLINE
  8
102
 66
1
 10
0.0000
 20
0.0000
 30
0.0000
 40
0.0635
 41
0.0635
 70
0
  0
VERTEX
  8
102
 10
-1.2500
 20
63.0318
 30
0.0000
 42
1.0000
  0
VERTEX
  8
102
 10
-1.2500
 20
62.9682
 30
0.0000
  0
SEQEND
  8
0
  0
POLYLINE
  8
102
 66
1
 10
0.0000
 20
0.0000
 30
0.0000
 40
0.1270
 41
0.1270
 70
0
  0
VERTEX
  8
102
 10
10.7500
 20
63.0000
 30
0.0000
  0
VERTEX
  8
102
 10
10.7500
 20
51.6000
 30
0.0000
  0
SEQEND
  8
0
  0
POLYLINE
  8
102
 66
1
 10
0.0000
 20
0.0000
 30
0.0000
 40
0.0635
 41
0.0635
 70
0
  0
VERTEX
  8
102
 10
10.7182
 20
51.6000
 30
0.0000
 42
1.0000
  0
VERTEX
  8
102
 10
10.7818
 20
51.6000
 30
0.0000
  0
SEQEND
  8
0
  0
POLYLINE
  8
102
 66
1
 10
0.0000
 20
0.0000
 30
0.0000
 40
0.0635
 41
0.0635
 70
0
  0
VERTEX
  8
102
 10
10.7818
 20
63.0000
 30
0.0000
 42
1.0000
  0
VERTEX
  8
102
 10
10.7182
 20
63.0000
 30
0.0000
  0
SEQEND
  8
0
  0
POLYLINE
  8
102
 66
1
 10
0.0000
 20
0.0000
 30
0.0000
 40
0.1270
 41
0.1270
 70
0
  0
VERTEX
  8
102
 10
10.7500
 20
51.6000
 30
0.0000
  0
VERTEX
  8
102
 10
-1.2500
 20
51.6000
 30
0.0000
  0
SEQEND
  8
0
  0
POLYLINE
  8
102
 66
1
 10
0.0000
 20
0.0000
 30
0.0000
 40
0.0635
 41
0.0635
 70
0
  0
VERTEX
  8
102
 10
-1.2500
 20
51.6318
 30
0.0000
 42
1.0000
  0
VERTEX
  8
102
 10
-1.2500
 20
51.5682
 30
0.0000
  0
SEQEND
  8
0
  0
POLYLINE
  8
102
 66
1
 10
0.0000
 20
0.0000
 30
0.0000
 40
0.0635
 41
0.0635
 70
0
  0
VERTEX
  8
102
 10
10.7500
 20
51.5682
 30
0.0000
 42
1.0000
  0
VERTEX
  8
102
 10
10.7500
 20
51.6318
 30
0.0000
  0
SEQEND
  8
0
  0
POLYLINE
  8
102
 66
1
 10
0.0000
 20
0.0000
 30
0.0000
 40
0.1270
 41
0.1270
 70
0
  0
VERTEX
  8
102
 10
-1.2500
 20
51.6000
 30
0.0000
  0
VERTEX
  8
102
 10
-1.2500
 20
63.0000
 30
0.0000
  0
SEQEND
  8
0
  0
POLYLINE
  8
102
 66
1
 10
0.0000
 20
0.0000
 30
0.0000
 40
0.0635
 41
0.0635
 70
0
  0
VERTEX
  8
102
 10
-1.2183
 20
63.0000
 30
0.0000
 42
1.0000
  0
VERTEX
  8
102
 10
-1.2817
 20
63.0000
 30
0.0000
  0
SEQEND
  8
0
  0
POLYLINE
  8
102
 66
1
 10
0.0000
 20
0.0000
 30
0.0000
 40
0.0635
 41
0.0635
 70
0
  0
VERTEX
  8
102
 10
-1.2817
 20
51.6000
 30
0.0000
 42
1.0000
  0
VERTEX
  8
102
 10
-1.2183
 20
51.6000
 30
0.0000
  0
SEQEND
  8
0
  0
POLYLINE
  8
102
 66
1
 10
0.0000
 20
0.0000
 30
0.0000
 40
0.1270
 41
0.1270
 70
0
  0
VERTEX
  8
102
 10
22.5000
 20
63.0000
 30
0.0000
  0
VERTEX
  8
102
 10
34.5000
 20
63.0000
 30
0.0000
  0
SEQEND
  8
0
  0
POLYLINE
  8
102
 66
1
 10
0.0000
 20
0.0000
 30
0.0000
 40
0.0635
 41
0.0635
 70
0
  0
VERTEX
  8
102
 10
34.5000
 20
62.9682
 30
0.0000
 42
1.0000
  0
VERTEX
  8
102
 10
34.5000
 20
63.0318
 30
0.0000
  0
SEQEND
  8
0
  0
POLYLINE
  8
102
 66
1
 10
0.0000
 20
0.0000
 30
0.0000
 40
0.0635
 41
0.0635
 70
0
  0
VERTEX
  8
102
 10
22.5000
 20
63.0318
 30
0.0000
 42
1.0000
  0
VERTEX
  8
102
 10
22.5000
 20
62.9682
 30
0.0000
  0
SEQEND
  8
0
  0
POLYLINE
  8
102
 66
1
 10
0.0000
 20
0.0000
 30
0.0000
 40
0.1270
 41
0.1270
 70
0
  0
VERTEX
  8
102
 10
34.5000
 20
63.0000
 30
0.0000
  0
VERTEX
  8
102
 10
34.5000
 20
51.6000
 30
0.0000
  0
SEQEND
  8
0
  0
POLYLINE
  8
102
 66
1
 10
0.0000
 20
0.0000
 30
0.0000
 40
0.0635
 41
0.0635
 70
0
  0
VERTEX
  8
102
 10
34.4682
 20
51.6000
 30
0.0000
 42
1.0000
  0
VERTEX
  8
102
 10
34.5318
 20
51.6000
 30
0.0000
  0
SEQEND
  8
0
  0
POLYLINE
  8
102
 66
1
 10
0.0000
 20
0.0000
 30
0.0000
 40
0.0635
 41
0.0635
 70
0
  0
VERTEX
  8
102
 10
34.5318
 20
63.0000
 30
0.0000
 42
1.0000
  0
VERTEX
  8
102
 10
34.4682
 20
63.0000
 30
0.0000
  0
SEQEND
  8
0
  0
POLYLINE
  8
102
 66
1
 10
0.0000
 20
0.0000
 30
0.0000
 40
0.1270
 41
0.1270
 70
0
  0
VERTEX
  8
102
 10
34.5000
 20
51.6000
 30
0.0000
  0
VERTEX
  8
102
 10
22.5000
 20
51.6000
 30
0.0000
  0
SEQEND
  8
0
  0
POLYLINE
  8
102
 66
1
 10
0.0000
 20
0.0000
 30
0.0000
 40
0.0635
 41
0.0635
 70
0
  0
VERTEX
  8
102
 10
22.5000
 20
51.6318
 30
0.0000
 42
1.0000
  0
VERTEX
  8
102
 10
22.5000
 20
51.5682
 30
0.0000
  0
SEQEND
  8
0
  0
POLYLINE
  8
102
 66
1
 10
0.0000
 20
0.0000
 30
0.0000
 40
0.0635
 41
0.0635
 70
0
  0
VERTEX
  8
102
 10
34.5000
 20
51.5682
 30
0.0000
 42
1.0000
  0
VERTEX
  8
102
 10
34.5000
 20
51.6318
 30
0.0000
  0
SEQEND
  8
0
  0
POLYLINE
  8
102
 66
1
 10
0.0000
 20
0.0000
 30
0.0000
 40
0.1270
 41
0.1270
 70
0
  0
VERTEX
  8
102
 10
22.5000
 20
51.6000
 30
0.0000
  0
VERTEX
  8
102
 10
22.5000
 20
63.0000
 30
0.0000
  0
SEQEND
  8
0
  0
POLYLINE
  8
102
 66
1
 10
0.0000
 20
0.0000
 30
0.0000
 40
0.0635
 41
0.0635
 70
0
  0
VERTEX
  8
102
 10
22.5317
 20
63.0000
 30
0.0000
 42
1.0000
  0
VERTEX
  8
102
 10
22.4683
 20
63.0000
 30
0.0000
  0
SEQEND
  8
0
  0
POLYLINE
  8
102
 66
1
 10
0.0000
 20
0.0000
 30
0.0000
 40
0.0635
 41
0.0635
 70
0
  0
VERTEX
  8
102
 10
22.4683
 20
51.6000
 30
0.0000
 42
1.0000
  0
VERTEX
  8
102
 10
22.5317
 20
51.6000
 30
0.0000
  0
SEQEND
  8
0
  0
POLYLINE
  8
102
 66
1
 10
0.0000
 20
0.0000
 30
0.0000
 40
0.1270
 41
0.1270
 70
0
  0
VERTEX
  8
102
 10
41.5000
 20
63.0000
 30
0.0000
  0
VERTEX
  8
102
 10
53.5000
 20
63.0000
 30
0.0000
  0
SEQEND
  8
0
  0
POLYLINE
  8
102
 66
1
 10
0.0000
 20
0.0000
 30
0.0000
 40
0.0635
 41
0.0635
 70
0
  0
VERTEX
  8
102
 10
53.5000
 20
62.9682
 30
0.0000
 42
1.0000
  0
VERTEX
  8
102
 10
53.5000
 20
63.0318
 30
0.0000
  0
SEQEND
  8
0
  0
POLYLINE
  8
102
 66
1
 10
0.0000
 20
0.0000
 30
0.0000
 40
0.0635
 41
0.0635
 70
0
  0
VERTEX
  8
102
 10
41.5000
 20
63.0318
 30
0.0000
 42
1.0000
  0
VERTEX
  8
102
 10
41.5000
 20
62.9682
 30
0.0000
  0
SEQEND
  8
0
  0
POLYLINE
  8
102
 66
1
 10
0.0000
 20
0.0000
 30
0.0000
 40
0.1270
 41
0.1270
 70
0
  0
VERTEX
  8
102
 10
53.5000
 20
63.0000
 30
0.0000
  0
VERTEX
  8
102
 10
53.5000
 20
51.6000
 30
0.0000
  0
SEQEND
  8
0
  0
POLYLINE
  8
102
 66
1
 10
0.0000
 20
0.0000
 30
0.0000
 40
0.0635
 41
0.0635
 70
0
  0
VERTEX
  8
102
 10
53.4682
 20
51.6000
 30
0.0000
 42
1.0000
  0
VERTEX
  8
102
 10
53.5318
 20
51.6000
 30
0.0000
  0
SEQEND
  8
0
  0
POLYLINE
  8
102
 66
1
 10
0.0000
 20
0.0000
 30
0.0000
 40
0.0635
 41
0.0635
 70
0
  0
VERTEX
  8
102
 10
53.5318
 20
63.0000
 30
0.0000
 42
1.0000
  0
VERTEX
  8
102
 10
53.4682
 20
63.0000
 30
0.0000
  0
SEQEND
  8
0
  0
POLYLINE
  8
102
 66
1
 10
0.0000
 20
0.0000
 30
0.0000
 40
0.1270
 41
0.1270
 70
0
  0
VERTEX
  8
102
 10
53.5000
 20
51.6000
 30
0.0000
  0
VERTEX
  8
102
 10
41.5000
 20
51.6000
 30
0.0000
  0
SEQEND
  8
0
  0
POLYLINE
  8
102
 66
1
 10
0.0000
 20
0.0000
 30
0.0000
 40
0.0635
 41
0.0635
 70
0
  0
VERTEX
  8
102
 10
41.5000
 20
51.6318
 30
0.0000
 42
1.0000
  0
VERTEX
  8
102
 10
41.5000
 20
51.5682
 30
0.0000
  0
SEQEND
  8
0
  0
POLYLINE
  8
102
 66
1
 10
0.0000
 20
0.0000
 30
0.0000
 40
0.0635
 41
0.0635
 70
0
  0
VERTEX
  8
102
 10
53.5000
 20
51.5682
 30
0.0000
 42
1.0000
  0
VERTEX
  8
102
 10
53.5000
 20
51.6318
 30
0.0000
  0
SEQEND
  8
0
  0
POLYLINE
  8
102
 66
1
 10
0.0000
 20
0.0000
 30
0.0000
 40
0.1270
 41
0.1270
 70
0
  0
VERTEX
  8
102
 10
41.5000
 20
51.6000
 30
0.0000
  0
VERTEX
  8
102
 10
41.5000
 20
63.0000
 30
0.0000
  0
SEQEND
  8
0
  0
POLYLINE
  8
102
 66
1
 10
0.0000
 20
0.0000
 30
0.0000
 40
0.0635
 41
0.0635
 70
0
  0
VERTEX
  8
102
 10
41.5318
 20
63.0000
 30
0.0000
 42
1.0000
  0
VERTEX
  8
102
 10
41.4682
 20
63.0000
 30
0.0000
  0
SEQEND
  8
0
  0
POLYLINE
  8
102
 66
1
 10
0.0000
 20
0.0000
 30
0.0000
 40
0.0635
 41
0.0635
 70
0
  0
VERTEX
  8
102
 10
41.4682
 20
51.6000
 30
0.0000
 42
1.0000
  0
VERTEX
  8
102
 10
41.5318
 20
51.6000
 30
0.0000
  0
SEQEND
  8
0
  0
POLYLINE
  8
102
 66
1
 10
0.0000
 20
0.0000
 30
0.0000
 40
0.1270
 41
0.1270
 70
0
  0
VERTEX
  8
102
 10
60.5000
 20
63.0000
 30
0.0000
  0
VERTEX
  8
102
 10
72.5000
 20
63.0000
 30
0.0000
  0
SEQEND
  8
0
  0
POLYLINE
  8
102
 66
1
 10
0.0000
 20
0.0000
 30
0.0000
 40
0.0635
 41
0.0635
 70
0
  0
VERTEX
  8
102
 10
72.5000
 20
62.9682
 30
0.0000
 42
1.0000
  0
VERTEX
  8
102
 10
72.5000
 20
63.0318
 30
0.0000
  0
SEQEND
  8
0
  0
POLYLINE
  8
102
 66
1
 10
0.0000
 20
0.0000
 30
0.0000
 40
0.0635
 41
0.0635
 70
0
  0
VERTEX
  8
102
 10
60.5000
 20
63.0318
 30
0.0000
 42
1.0000
  0
VERTEX
  8
102
 10
60.5000
 20
62.9682
 30
0.0000
  0
SEQEND
  8
0
  0
POLYLINE
  8
102
 66
1
 10
0.0000
 20
0.0000
 30
0.0000
 40
0.1270
 41
0.1270
 70
0
  0
VERTEX
  8
102
 10
72.5000
 20
63.0000
 30
0.0000
  0
VERTEX
  8
102
 10
72.5000
 20
51.6000
 30
0.0000
  0
SEQEND
  8
0
  0
POLYLINE
  8
102
 66
1
 10
0.0000
 20
0.0000
 30
0.0000
 40
0.0635
 41
0.0635
 70
0
  0
VERTEX
  8
102
 10
72.4682
 20
51.6000
 30
0.0000
 42
1.0000
  0
VERTEX
  8
102
 10
72.5318
 20
51.6000
 30
0.0000
  0
SEQEND
  8
0
  0
POLYLINE
  8
102
 66
1
 10
0.0000
 20
0.0000
 30
0.0000
 40
0.0635
 41
0.0635
 70
0
  0
VERTEX
  8
102
 10
72.5318
 20
63.0000
 30
0.0000
 42
1.0000
  0
VERTEX
  8
102
 10
72.4682
 20
63.0000
 30
0.0000
  0
SEQEND
  8
0
  0
POLYLINE
  8
102
 66
1
 10
0.0000
 20
0.0000
 30
0.0000
 40
0.1270
 41
0.1270
 70
0
  0
VERTEX
  8
102
 10
72.5000
 20
51.6000
 30
0.0000
  0
VERTEX
  8
102
 10
60.5000
 20
51.6000
 30
0.0000
  0
SEQEND
  8
0
  0
POLYLINE
  8
102
 66
1
 10
0.0000
 20
0.0000
 30
0.0000
 40
0.0635
 41
0.0635
 70
0
  0
VERTEX
  8
102
 10
60.5000
 20
51.6318
 30
0.0000
 42
1.0000
  0
VERTEX
  8
102
 10
60.5000
 20
51.5682
 30
0.0000
  0
SEQEND
  8
0
  0
POLYLINE
  8
102
 66
1
 10
0.0000
 20
0.0000
 30
0.0000
 40
0.0635
 41
0.0635
 70
0
  0
VERTEX
  8
102
 10
72.5000
 20
51.5682
 30
0.0000
 42
1.0000
  0
VERTEX
  8
102
 10
72.5000
 20
51.6318
 30
0.0000
  0
SEQEND
  8
0
  0
POLYLINE
  8
102
 66
1
 10
0.0000
 20
0.0000
 30
0.0000
 40
0.1270
 41
0.1270
 70
0
  0
VERTEX
  8
102
 10
60.5000
 20
51.6000
 30
0.0000
  0
VERTEX
  8
102
 10
60.5000
 20
63.0000
 30
0.0000
  0
SEQEND
  8
0
  0
POLYLINE
  8
102
 66
1
 10
0.0000
 20
0.0000
 30
0.0000
 40
0.0635
 41
0.0635
 70
0
  0
VERTEX
  8
102
 10
60.5318
 20
63.0000
 30
0.0000
 42
1.0000
  0
VERTEX
  8
102
 10
60.4682
 20
63.0000
 30
0.0000
  0
SEQEND
  8
0
  0
POLYLINE
  8
102
 66
1
 10
0.0000
 20
0.0000
 30
0.0000
 40
0.0635
 41
0.0635
 70
0
  0
VERTEX
  8
102
 10
60.4682
 20
51.6000
 30
0.0000
 42
1.0000
  0
VERTEX
  8
102
 10
60.5318
 20
51.6000
 30
0.0000
  0
SEQEND
  8
0
  0
POLYLINE
  8
102
 66
1
 10
0.0000
 20
0.0000
 30
0.0000
 40
0.1270
 41
0.1270
 70
0
  0
VERTEX
  8
102
 10
79.5000
 20
63.0000
 30
0.0000
  0
VERTEX
  8
102
 10
91.5000
 20
63.0000
 30
0.0000
  0
SEQEND
  8
0
  0
POLYLINE
  8
102
 66
1
 10
0.0000
 20
0.0000
 30
0.0000
 40
0.0635
 41
0.0635
 70
0
  0
VERTEX
  8
102
 10
91.5000
 20
62.9682
 30
0.0000
 42
1.0000
  0
VERTEX
  8
102
 10
91.5000
 20
63.0318
 30
0.0000
  0
SEQEND
  8
0
  0
POLYLINE
  8
102
 66
1
 10
0.0000
 20
0.0000
 30
0.0000
 40
0.0635
 41
0.0635
 70
0
  0
VERTEX
  8
102
 10
79.5000
 20
63.0318
 30
0.0000
 42
1.0000
  0
VERTEX
  8
102
 10
79.5000
 20
62.9682
 30
0.0000
  0
SEQEND
  8
0
  0
POLYLINE
  8
102
 66
1
 10
0.0000
 20
0.0000
 30
0.0000
 40
0.1270
 41
0.1270
 70
0
  0
VERTEX
  8
102
 10
91.5000
 20
63.0000
 30
0.0000
  0
VERTEX
  8
102
 10
91.5000
 20
51.6000
 30
0.0000
  0
SEQEND
  8
0
  0
POLYLINE
  8
102
 66
1
 10
0.0000
 20
0.0000
 30
0.0000
 40
0.0635
 41
0.0635
 70
0
  0
VERTEX
  8
102
 10
91.4682
 20
51.6000
 30
0.0000
 42
1.0000
  0
VERTEX
  8
102
 10
91.5318
 20
51.6000
 30
0.0000
  0
SEQEND
  8
0
  0
POLYLINE
  8
102
 66
1
 10
0.0000
 20
0.0000
 30
0.0000
 40
0.0635
 41
0.0635
 70
0
  0
VERTEX
  8
102
 10
91.5318
 20
63.0000
 30
0.0000
 42
1.0000
  0
VERTEX
  8
102
 10
91.4682
 20
63.0000
 30
0.0000
  0
SEQEND
  8
0
  0
POLYLINE
  8
102
 66
1
 10
0.0000
 20
0.0000
 30
0.0000
 40
0.1270
 41
0.1270
 70
0
  0
VERTEX
  8
102
 10
91.5000
 20
51.6000
 30
0.0000
  0
VERTEX
  8
102
 10
79.5000
 20
51.6000
 30
0.0000
  0
SEQEND
  8
0
  0
POLYLINE
  8
102
 66
1
 10
0.0000
 20
0.0000
 30
0.0000
 40
0.0635
 41
0.0635
 70
0
  0
VERTEX
  8
102
 10
79.5000
 20
51.6318
 30
0.0000
 42
1.0000
  0
VERTEX
  8
102
 10
79.5000
 20
51.5682
 30
0.0000
  0
SEQEND
  8
0
  0
POLYLINE
  8
102
 66
1
 10
0.0000
 20
0.0000
 30
0.0000
 40
0.0635
 41
0.0635
 70
0
  0
VERTEX
  8
102
 10
91.5000
 20
51.5682
 30
0.0000
 42
1.0000
  0
VERTEX
  8
102
 10
91.5000
 20
51.6318
 30
0.0000
  0
SEQEND
  8
0
  0
POLYLINE
  8
102
 66
1
 10
0.0000
 20
0.0000
 30
0.0000
 40
0.1270
 41
0.1270
 70
0
  0
VERTEX
  8
102
 10
79.5000
 20
51.6000
 30
0.0000
  0
VERTEX
  8
102
 10
79.5000
 20
63.0000
 30
0.0000
  0
SEQEND
  8
0
  0
POLYLINE
  8
102
 66
1
 10
0.0000
 20
0.0000
 30
0.0000
 40
0.0635
 41
0.0635
 70
0
  0
VERTEX
  8
102
 10
79.5318
 20
63.0000
 30
0.0000
 42
1.0000
  0
VERTEX
  8
102
 10
79.4682
 20
63.0000
 30
0.0000
  0
SEQEND
  8
0
  0
POLYLINE
  8
102
 66
1
 10
0.0000
 20
0.0000
 30
0.0000
 40
0.0635
 41
0.0635
 70
0
  0
VERTEX
  8
102
 10
79.4682
 20
51.6000
 30
0.0000
 42
1.0000
  0
VERTEX
  8
102
 10
79.5318
 20
51.6000
 30
0.0000
  0
SEQEND
  8
0
  0
POLYLINE
  8
102
 66
1
 10
0.0000
 20
0.0000
 30
0.0000
 40
0.1270
 41
0.1270
 70
0
  0
VERTEX
  8
102
 10
98.5000
 20
63.0000
 30
0.0000
  0
VERTEX
  8
102
 10
110.5000
 20
63.0000
 30
0.0000
  0
SEQEND
  8
0
  0
POLYLINE
  8
102
 66
1
 10
0.0000
 20
0.0000
 30
0.0000
 40
0.0635
 41
0.0635
 70
0
  0
VERTEX
  8
102
 10
110.5000
 20
62.9682
 30
0.0000
 42
1.0000
  0
VERTEX
  8
102
 10
110.5000
 20
63.0318
 30
0.0000
  0
SEQEND
  8
0
  0
POLYLINE
  8
102
 66
1
 10
0.0000
 20
0.0000
 30
0.0000
 40
0.0635
 41
0.0635
 70
0
  0
VERTEX
  8
102
 10
98.5000
 20
63.0318
 30
0.0000
 42
1.0000
  0
VERTEX
  8
102
 10
98.5000
 20
62.9682
 30
0.0000
  0
SEQEND
  8
0
  0
POLYLINE
  8
102
 66
1
 10
0.0000
 20
0.0000
 30
0.0000
 40
0.1270
 41
0.1270
 70
0
  0
VERTEX
  8
102
 10
110.5000
 20
63.0000
 30
0.0000
  0
VERTEX
  8
102
 10
110.5000
 20
51.6000
 30
0.0000
  0
SEQEND
  8
0
  0
POLYLINE
  8
102
 66
1
 10
0.0000
 20
0.0000
 30
0.0000
 40
0.0635
 41
0.0635
 70
0
  0
VERTEX
  8
102
 10
110.4682
 20
51.6000
 30
0.0000
 42
1.0000
  0
VERTEX
  8
102
 10
110.5318
 20
51.6000
 30
0.0000
  0
SEQEND
  8
0
  0
POLYLINE
  8
102
 66
1
 10
0.0000
 20
0.0000
 30
0.0000
 40
0.0635
 41
0.0635
 70
0
  0
VERTEX
  8
102
 10
110.5318
 20
63.0000
 30
0.0000
 42
1.0000
  0
VERTEX
  8
102
 10
110.4682
 20
63.0000
 30
0.0000
  0
SEQEND
  8
0
  0
POLYLINE
  8
102
 66
1
 10
0.0000
 20
0.0000
 30
0.0000
 40
0.1270
 41
0.1270
 70
0
  0
VERTEX
  8
102
 10
110.5000
 20
51.6000
 30
0.0000
  0
VERTEX
  8
102
 10
98.5000
 20
51.6000
 30
0.0000
  0
SEQEND
  8
0
  0
POLYLINE
  8
102
 66
1
 10
0.0000
 20
0.0000
 30
0.0000
 40
0.0635
 41
0.0635
 70
0
  0
VERTEX
  8
102
 10
98.5000
 20
51.6318
 30
0.0000
 42
1.0000
  0
VERTEX
  8
102
 10
98.5000
 20
51.5682
 30
0.0000
  0
SEQEND
  8
0
  0
POLYLINE
  8
102
 66
1
 10
0.0000
 20
0.0000
 30
0.0000
 40
0.0635
 41
0.0635
 70
0
  0
VERTEX
  8
102
 10
110.5000
 20
51.5682
 30
0.0000
 42
1.0000
  0
VERTEX
  8
102
 10
110.5000
 20
51.6318
 30
0.0000
  0
SEQEND
  8
0
  0
POLYLINE
  8
102
 66
1
 10
0.0000
 20
0.0000
 30
0.0000
 40
0.1270
 41
0.1270
 70
0
  0
VERTEX
  8
102
 10
98.5000
 20
51.6000
 30
0.0000
  0
VERTEX
  8
102
 10
98.5000
 20
63.0000
 30
0.0000
  0
SEQEND
  8
0
  0
POLYLINE
  8
102
 66
1
 10
0.0000
 20
0.0000
 30
0.0000
 40
0.0635
 41
0.0635
 70
0
  0
VERTEX
  8
102
 10
98.5318
 20
63.0000
 30
0.0000
 42
1.0000
  0
VERTEX
  8
102
 10
98.4682
 20
63.0000
 30
0.0000
  0
SEQEND
  8
0
  0
POLYLINE
  8
102
 66
1
 10
0.0000
 20
0.0000
 30
0.0000
 40
0.0635
 41
0.0635
 70
0
  0
VERTEX
  8
102
 10
98.4682
 20
51.6000
 30
0.0000
 42
1.0000
  0
VERTEX
  8
102
 10
98.5318
 20
51.6000
 30
0.0000
  0
SEQEND
  8
0
  0
POLYLINE
  8
102
 66
1
 10
0.0000
 20
0.0000
 30
0.0000
 40
0.1270
 41
0.1270
 70
0
  0
VERTEX
  8
102
 10
117.5000
 20
63.0000
 30
0.0000
  0
VERTEX
  8
102
 10
129.5000
 20
63.0000
 30
0.0000
  0
SEQEND
  8
0
  0
POLYLINE
  8
102
 66
1
 10
0.0000
 20
0.0000
 30
0.0000
 40
0.0635
 41
0.0635
 70
0
  0
VERTEX
  8
102
 10
129.5000
 20
62.9682
 30
0.0000
 42
1.0000
  0
VERTEX
  8
102
 10
129.5000
 20
63.0318
 30
0.0000
  0
SEQEND
  8
0
  0
POLYLINE
  8
102
 66
1
 10
0.0000
 20
0.0000
 30
0.0000
 40
0.0635
 41
0.0635
 70
0
  0
VERTEX
  8
102
 10
117.5000
 20
63.0318
 30
0.0000
 42
1.0000
  0
VERTEX
  8
102
 10
117.5000
 20
62.9682
 30
0.0000
  0
SEQEND
  8
0
  0
POLYLINE
  8
102
 66
1
 10
0.0000
 20
0.0000
 30
0.0000
 40
0.1270
 41
0.1270
 70
0
  0
VERTEX
  8
102
 10
129.5000
 20
63.0000
 30
0.0000
  0
VERTEX
  8
102
 10
129.5000
 20
51.6000
 30
0.0000
  0
SEQEND
  8
0
  0
POLYLINE
  8
102
 66
1
 10
0.0000
 20
0.0000
 30
0.0000
 40
0.0635
 41
0.0635
 70
0
  0
VERTEX
  8
102
 10
129.4683
 20
51.6000
 30
0.0000
 42
1.0000
  0
VERTEX
  8
102
 10
129.5317
 20
51.6000
 30
0.0000
  0
SEQEND
  8
0
  0
POLYLINE
  8
102
 66
1
 10
0.0000
 20
0.0000
 30
0.0000
 40
0.0635
 41
0.0635
 70
0
  0
VERTEX
  8
102
 10
129.5317
 20
63.0000
 30
0.0000
 42
1.0000
  0
VERTEX
  8
102
 10
129.4683
 20
63.0000
 30
0.0000
  0
SEQEND
  8
0
  0
POLYLINE
  8
102
 66
1
 10
0.0000
 20
0.0000
 30
0.0000
 40
0.1270
 41
0.1270
 70
0
  0
VERTEX
  8
102
 10
129.5000
 20
51.6000
 30
0.0000
  0
VERTEX
  8
102
 10
117.5000
 20
51.6000
 30
0.0000
  0
SEQEND
  8
0
  0
POLYLINE
  8
102
 66
1
 10
0.0000
 20
0.0000
 30
0.0000
 40
0.0635
 41
0.0635
 70
0
  0
VERTEX
  8
102
 10
117.5000
 20
51.6318
 30
0.0000
 42
1.0000
  0
VERTEX
  8
102
 10
117.5000
 20
51.5682
 30
0.0000
  0
SEQEND
  8
0
  0
POLYLINE
  8
102
 66
1
 10
0.0000
 20
0.0000
 30
0.0000
 40
0.0635
 41
0.0635
 70
0
  0
VERTEX
  8
102
 10
129.5000
 20
51.5682
 30
0.0000
 42
1.0000
  0
VERTEX
  8
102
 10
129.5000
 20
51.6318
 30
0.0000
  0
SEQEND
  8
0
  0
POLYLINE
  8
102
 66
1
 10
0.0000
 20
0.0000
 30
0.0000
 40
0.1270
 41
0.1270
 70
0
  0
VERTEX
  8
102
 10
117.5000
 20
51.6000
 30
0.0000
  0
VERTEX
  8
102
 10
117.5000
 20
63.0000
 30
0.0000
  0
SEQEND
  8
0
  0
POLYLINE
  8
102
 66
1
 10
0.0000
 20
0.0000
 30
0.0000
 40
0.0635
 41
0.0635
 70
0
  0
VERTEX
  8
102
 10
117.5318
 20
63.0000
 30
0.0000
 42
1.0000
  0
VERTEX
  8
102
 10
117.4682
 20
63.0000
 30
0.0000
  0
SEQEND
  8
0
  0
POLYLINE
  8
102
 66
1
 10
0.0000
 20
0.0000
 30
0.0000
 40
0.0635
 41
0.0635
 70
0
  0
VERTEX
  8
102
 10
117.4682
 20
51.6000
 30
0.0000
 42
1.0000
  0
VERTEX
  8
102
 10
117.5318
 20
51.6000
 30
0.0000
  0
SEQEND
  8
0
  0
POLYLINE
  8
102
 66
1
 10
0.0000
 20
0.0000
 30
0.0000
 40
0.1270
 41
0.1270
 70
0
  0
VERTEX
  8
102
 10
136.5000
 20
63.0000
 30
0.0000
  0
VERTEX
  8
102
 10
148.5000
 20
63.0000
 30
0.0000
  0
SEQEND
  8
0
  0
POLYLINE
  8
102
 66
1
 10
0.0000
 20
0.0000
 30
0.0000
 40
0.0635
 41
0.0635
 70
0
  0
VERTEX
  8
102
 10
148.5000
 20
62.9682
 30
0.0000
 42
1.0000
  0
VERTEX
  8
102
 10
148.5000
 20
63.0318
 30
0.0000
  0
SEQEND
  8
0
  0
POLYLINE
  8
102
 66
1
 10
0.0000
 20
0.0000
 30
0.0000
 40
0.0635
 41
0.0635
 70
0
  0
VERTEX
  8
102
 10
136.5000
 20
63.0318
 30
0.0000
 42
1.0000
  0
VERTEX
  8
102
 10
136.5000
 20
62.9682
 30
0.0000
  0
SEQEND
  8
0
  0
POLYLINE
  8
102
 66
1
 10
0.0000
 20
0.0000
 30
0.0000
 40
0.1270
 41
0.1270
 70
0
  0
VERTEX
  8
102
 10
148.5000
 20
63.0000
 30
0.0000
  0
VERTEX
  8
102
 10
148.5000
 20
51.6000
 30
0.0000
  0
SEQEND
  8
0
  0
POLYLINE
  8
102
 66
1
 10
0.0000
 20
0.0000
 30
0.0000
 40
0.0635
 41
0.0635
 70
0
  0
VERTEX
  8
102
 10
148.4683
 20
51.6000
 30
0.0000
 42
1.0000
  0
VERTEX
  8
102
 10
148.5317
 20
51.6000
 30
0.0000
  0
SEQEND
  8
0
  0
POLYLINE
  8
102
 66
1
 10
0.0000
 20
0.0000
 30
0.0000
 40
0.0635
 41
0.0635
 70
0
  0
VERTEX
  8
102
 10
148.5317
 20
63.0000
 30
0.0000
 42
1.0000
  0
VERTEX
  8
102
 10
148.4683
 20
63.0000
 30
0.0000
  0
SEQEND
  8
0
  0
POLYLINE
  8
102
 66
1
 10
0.0000
 20
0.0000
 30
0.0000
 40
0.1270
 41
0.1270
 70
0
  0
VERTEX
  8
102
 10
148.5000
 20
51.6000
 30
0.0000
  0
VERTEX
  8
102
 10
136.5000
 20
51.6000
 30
0.0000
  0
SEQEND
  8
0
  0
POLYLINE
  8
102
 66
1
 10
0.0000
 20
0.0000
 30
0.0000
 40
0.0635
 41
0.0635
 70
0
  0
VERTEX
  8
102
 10
136.5000
 20
51.6318
 30
0.0000
 42
1.0000
  0
VERTEX
  8
102
 10
136.5000
 20
51.5682
 30
0.0000
  0
SEQEND
  8
0
  0
POLYLINE
  8
102
 66
1
 10
0.0000
 20
0.0000
 30
0.0000
 40
0.0635
 41
0.0635
 70
0
  0
VERTEX
  8
102
 10
148.5000
 20
51.5682
 30
0.0000
 42
1.0000
  0
VERTEX
  8
102
 10
148.5000
 20
51.6318
 30
0.0000
  0
SEQEND
  8
0
  0
POLYLINE
  8
102
 66
1
 10
0.0000
 20
0.0000
 30
0.0000
 40
0.1270
 41
0.1270
 70
0
  0
VERTEX
  8
102
 10
136.5000
 20
51.6000
 30
0.0000
  0
VERTEX
  8
102
 10
136.5000
 20
63.0000
 30
0.0000
  0
SEQEND
  8
0
  0
POLYLINE
  8
102
 66
1
 10
0.0000
 20
0.0000
 30
0.0000
 40
0.0635
 41
0.0635
 70
0
  0
VERTEX
  8
102
 10
136.5317
 20
63.0000
 30
0.0000
 42
1.0000
  0
VERTEX
  8
102
 10
136.4683
 20
63.0000
 30
0.0000
  0
SEQEND
  8
0
  0
POLYLINE
  8
102
 66
1
 10
0.0000
 20
0.0000
 30
0.0000
 40
0.0635
 41
0.0635
 70
0
  0
VERTEX
  8
102
 10
136.4683
 20
51.6000
 30
0.0000
 42
1.0000
  0
VERTEX
  8
102
 10
136.5317
 20
51.6000
 30
0.0000
  0
SEQEND
  8
0
  0
POLYLINE
  8
102
 66
1
 10
0.0000
 20
0.0000
 30
0.0000
 40
0.1270
 41
0.1270
 70
0
  0
VERTEX
  8
102
 10
155.5000
 20
63.0000
 30
0.0000
  0
VERTEX
  8
102
 10
167.5000
 20
63.0000
 30
0.0000
  0
SEQEND
  8
0
  0
POLYLINE
  8
102
 66
1
 10
0.0000
 20
0.0000
 30
0.0000
 40
0.0635
 41
0.0635
 70
0
  0
VERTEX
  8
102
 10
167.5000
 20
62.9682
 30
0.0000
 42
1.0000
  0
VERTEX
  8
102
 10
167.5000
 20
63.0318
 30
0.0000
  0
SEQEND
  8
0
  0
POLYLINE
  8
102
 66
1
 10
0.0000
 20
0.0000
 30
0.0000
 40
0.0635
 41
0.0635
 70
0
  0
VERTEX
  8
102
 10
155.5000
 20
63.0318
 30
0.0000
 42
1.0000
  0
VERTEX
  8
102
 10
155.5000
 20
62.9682
 30
0.0000
  0
SEQEND
  8
0
  0
POLYLINE
  8
102
 66
1
 10
0.0000
 20
0.0000
 30
0.0000
 40
0.1270
 41
0.1270
 70
0
  0
VERTEX
  8
102
 10
167.5000
 20
63.0000
 30
0.0000
  0
VERTEX
  8
102
 10
167.5000
 20
51.6000
 30
0.0000
  0
SEQEND
  8
0
  0
POLYLINE
  8
102
 66
1
 10
0.0000
 20
0.0000
 30
0.0000
 40
0.0635
 41
0.0635
 70
0
  0
VERTEX
  8
102
 10
167.4683
 20
51.6000
 30
0.0000
 42
1.0000
  0
VERTEX
  8
102
 10
167.5317
 20
51.6000
 30
0.0000
  0
SEQEND
  8
0
  0
POLYLINE
  8
102
 66
1
 10
0.0000
 20
0.0000
 30
0.0000
 40
0.0635
 41
0.0635
 70
0
  0
VERTEX
  8
102
 10
167.5317
 20
63.0000
 30
0.0000
 42
1.0000
  0
VERTEX
  8
102
 10
167.4683
 20
63.0000
 30
0.0000
  0
SEQEND
  8
0
  0
POLYLINE
  8
102
 66
1
 10
0.0000
 20
0.0000
 30
0.0000
 40
0.1270
 41
0.1270
 70
0
  0
VERTEX
  8
102
 10
167.5000
 20
51.6000
 30
0.0000
  0
VERTEX
  8
102
 10
155.5000
 20
51.6000
 30
0.0000
  0
SEQEND
  8
0
  0
POLYLINE
  8
102
 66
1
 10
0.0000
 20
0.0000
 30
0.0000
 40
0.0635
 41
0.0635
 70
0
  0
VERTEX
  8
102
 10
155.5000
 20
51.6318
 30
0.0000
 42
1.0000
  0
VERTEX
  8
102
 10
155.5000
 20
51.5682
 30
0.0000
  0
SEQEND
  8
0
  0
POLYLINE
  8
102
 66
1
 10
0.0000
 20
0.0000
 30
0.0000
 40
0.0635
 41
0.0635
 70
0
  0
VERTEX
  8
102
 10
167.5000
 20
51.5682
 30
0.0000
 42
1.0000
  0
VERTEX
  8
102
 10
167.5000
 20
51.6318
 30
0.0000
  0
SEQEND
  8
0
  0
POLYLINE
  8
102
 66
1
 10
0.0000
 20
0.0000
 30
0.0000
 40
0.1270
 41
0.1270
 70
0
  0
VERTEX
  8
102
 10
155.5000
 20
51.6000
 30
0.0000
  0
VERTEX
  8
102
 10
155.5000
 20
63.0000
 30
0.0000
  0
SEQEND
  8
0
  0
POLYLINE
  8
102
 66
1
 10
0.0000
 20
0.0000
 30
0.0000
 40
0.0635
 41
0.0635
 70
0
  0
VERTEX
  8
102
 10
155.5317
 20
63.0000
 30
0.0000
 42
1.0000
  0
VERTEX
  8
102
 10
155.4683
 20
63.0000
 30
0.0000
  0
SEQEND
  8
0
  0
POLYLINE
  8
102
 66
1
 10
0.0000
 20
0.0000
 30
0.0000
 40
0.0635
 41
0.0635
 70
0
  0
VERTEX
  8
102
 10
155.4683
 20
51.6000
 30
0.0000
 42
1.0000
  0
VERTEX
  8
102
 10
155.5317
 20
51.6000
 30
0.0000
  0
SEQEND
  8
0
  0
POLYLINE
  8
102
 66
1
 10
0.0000
 20
0.0000
 30
0.0000
 40
0.1270
 41
0.1270
 70
0
  0
VERTEX
  8
102
 10
174.5000
 20
63.0000
 30
0.0000
  0
VERTEX
  8
102
 10
186.5000
 20
63.0000
 30
0.0000
  0
SEQEND
  8
0
  0
POLYLINE
  8
102
 66
1
 10
0.0000
 20
0.0000
 30
0.0000
 40
0.0635
 41
0.0635
 70
0
  0
VERTEX
  8
102
 10
186.5000
 20
62.9682
 30
0.0000
 42
1.0000
  0
VERTEX
  8
102
 10
186.5000
 20
63.0318
 30
0.0000
  0
SEQEND
  8
0
  0
POLYLINE
  8
102
 66
1
 10
0.0000
 20
0.0000
 30
0.0000
 40
0.0635
 41
0.0635
 70
0
  0
VERTEX
  8
102
 10
174.5000
 20
63.0318
 30
0.0000
 42
1.0000
  0
VERTEX
  8
102
 10
174.5000
 20
62.9682
 30
0.0000
  0
SEQEND
  8
0
  0
POLYLINE
  8
102
 66
1
 10
0.0000
 20
0.0000
 30
0.0000
 40
0.1270
 41
0.1270
 70
0
  0
VERTEX
  8
102
 10
186.5000
 20
63.0000
 30
0.0000
  0
VERTEX
  8
102
 10
186.5000
 20
51.6000
 30
0.0000
  0
SEQEND
  8
0
  0
POLYLINE
  8
102
 66
1
 10
0.0000
 20
0.0000
 30
0.0000
 40
0.0635
 41
0.0635
 70
0
  0
VERTEX
  8
102
 10
186.4683
 20
51.6000
 30
0.0000
 42
1.0000
  0
VERTEX
  8
102
 10
186.5317
 20
51.6000
 30
0.0000
  0
SEQEND
  8
0
  0
POLYLINE
  8
102
 66
1
 10
0.0000
 20
0.0000
 30
0.0000
 40
0.0635
 41
0.0635
 70
0
  0
VERTEX
  8
102
 10
186.5317
 20
63.0000
 30
0.0000
 42
1.0000
  0
VERTEX
  8
102
 10
186.4683
 20
63.0000
 30
0.0000
  0
SEQEND
  8
0
  0
POLYLINE
  8
102
 66
1
 10
0.0000
 20
0.0000
 30
0.0000
 40
0.1270
 41
0.1270
 70
0
  0
VERTEX
  8
102
 10
186.5000
 20
51.6000
 30
0.0000
  0
VERTEX
  8
102
 10
174.5000
 20
51.6000
 30
0.0000
  0
SEQEND
  8
0
  0
POLYLINE
  8
102
 66
1
 10
0.0000
 20
0.0000
 30
0.0000
 40
0.0635
 41
0.0635
 70
0
  0
VERTEX
  8
102
 10
174.5000
 20
51.6318
 30
0.0000
 42
1.0000
  0
VERTEX
  8
102
 10
174.5000
 20
51.5682
 30
0.0000
  0
SEQEND
  8
0
  0
POLYLINE
  8
102
 66
1
 10
0.0000
 20
0.0000
 30
0.0000
 40
0.0635
 41
0.0635
 70
0
  0
VERTEX
  8
102
 10
186.5000
 20
51.5682
 30
0.0000
 42
1.0000
  0
VERTEX
  8
102
 10
186.5000
 20
51.6318
 30
0.0000
  0
SEQEND
  8
0
  0
POLYLINE
  8
102
 66
1
 10
0.0000
 20
0.0000
 30
0.0000
 40
0.1270
 41
0.1270
 70
0
  0
VERTEX
  8
102
 10
174.5000
 20
51.6000
 30
0.0000
  0
VERTEX
  8
102
 10
174.5000
 20
63.0000
 30
0.0000
  0
SEQEND
  8
0
  0
POLYLINE
  8
102
 66
1
 10
0.0000
 20
0.0000
 30
0.0000
 40
0.0635
 41
0.0635
 70
0
  0
VERTEX
  8
102
 10
174.5317
 20
63.0000
 30
0.0000
 42
1.0000
  0
VERTEX
  8
102
 10
174.4683
 20
63.0000
 30
0.0000
  0
SEQEND
  8
0
  0
POLYLINE
  8
102
 66
1
 10
0.0000
 20
0.0000
 30
0.0000
 40
0.0635
 41
0.0635
 70
0
  0
VERTEX
  8
102
 10
174.4683
 20
51.6000
 30
0.0000
 42
1.0000
  0
VERTEX
  8
102
 10
174.5317
 20
51.6000
 30
0.0000
  0
SEQEND
  8
0
  0
POLYLINE
  8
102
 66
1
 10
0.0000
 20
0.0000
 30
0.0000
 40
0.1270
 41
0.1270
 70
0
  0
VERTEX
  8
102
 10
193.5000
 20
63.0000
 30
0.0000
  0
VERTEX
  8
102
 10
205.5000
 20
63.0000
 30
0.0000
  0
SEQEND
  8
0
  0
POLYLINE
  8
102
 66
1
 10
0.0000
 20
0.0000
 30
0.0000
 40
0.0635
 41
0.0635
 70
0
  0
VERTEX
  8
102
 10
205.5000
 20
62.9682
 30
0.0000
 42
1.0000
  0
VERTEX
  8
102
 10
205.5000
 20
63.0318
 30
0.0000
  0
SEQEND
  8
0
  0
POLYLINE
  8
102
 66
1
 10
0.0000
 20
0.0000
 30
0.0000
 40
0.0635
 41
0.0635
 70
0
  0
VERTEX
  8
102
 10
193.5000
 20
63.0318
 30
0.0000
 42
1.0000
  0
VERTEX
  8
102
 10
193.5000
 20
62.9682
 30
0.0000
  0
SEQEND
  8
0
  0
POLYLINE
  8
102
 66
1
 10
0.0000
 20
0.0000
 30
0.0000
 40
0.1270
 41
0.1270
 70
0
  0
VERTEX
  8
102
 10
205.5000
 20
63.0000
 30
0.0000
  0
VERTEX
  8
102
 10
205.5000
 20
51.6000
 30
0.0000
  0
SEQEND
  8
0
  0
POLYLINE
  8
102
 66
1
 10
0.0000
 20
0.0000
 30
0.0000
 40
0.0635
 41
0.0635
 70
0
  0
VERTEX
  8
102
 10
205.4683
 20
51.6000
 30
0.0000
 42
1.0000
  0
VERTEX
  8
102
 10
205.5317
 20
51.6000
 30
0.0000
  0
SEQEND
  8
0
  0
POLYLINE
  8
102
 66
1
 10
0.0000
 20
0.0000
 30
0.0000
 40
0.0635
 41
0.0635
 70
0
  0
VERTEX
  8
102
 10
205.5317
 20
63.0000
 30
0.0000
 42
1.0000
  0
VERTEX
  8
102
 10
205.4683
 20
63.0000
 30
0.0000
  0
SEQEND
  8
0
  0
POLYLINE
  8
102
 66
1
 10
0.0000
 20
0.0000
 30
0.0000
 40
0.1270
 41
0.1270
 70
0
  0
VERTEX
  8
102
 10
205.5000
 20
51.6000
 30
0.0000
  0
VERTEX
  8
102
 10
193.5000
 20
51.6000
 30
0.0000
  0
SEQEND
  8
0
  0
POLYLINE
  8
102
 66
1
 10
0.0000
 20
0.0000
 30
0.0000
 40
0.0635
 41
0.0635
 70
0
  0
VERTEX
  8
102
 10
193.5000
 20
51.6318
 30
0.0000
 42
1.0000
  0
VERTEX
  8
102
 10
193.5000
 20
51.5682
 30
0.0000
  0
SEQEND
  8
0
  0
POLYLINE
  8
102
 66
1
 10
0.0000
 20
0.0000
 30
0.0000
 40
0.0635
 41
0.0635
 70
0
  0
VERTEX
  8
102
 10
205.5000
 20
51.5682
 30
0.0000
 42
1.0000
  0
VERTEX
  8
102
 10
205.5000
 20
51.6318
 30
0.0000
  0
SEQEND
  8
0
  0
POLYLINE
  8
102
 66
1
 10
0.0000
 20
0.0000
 30
0.0000
 40
0.1270
 41
0.1270
 70
0
  0
VERTEX
  8
102
 10
193.5000
 20
51.6000
 30
0.0000
  0
VERTEX
  8
102
 10
193.5000
 20
63.0000
 30
0.0000
  0
SEQEND
  8
0
  0
POLYLINE
  8
102
 66
1
 10
0.0000
 20
0.0000
 30
0.0000
 40
0.0635
 41
0.0635
 70
0
  0
VERTEX
  8
102
 10
193.5317
 20
63.0000
 30
0.0000
 42
1.0000
  0
VERTEX
  8
102
 10
193.4683
 20
63.0000
 30
0.0000
  0
SEQEND
  8
0
  0
POLYLINE
  8
102
 66
1
 10
0.0000
 20
0.0000
 30
0.0000
 40
0.0635
 41
0.0635
 70
0
  0
VERTEX
  8
102
 10
193.4683
 20
51.6000
 30
0.0000
 42
1.0000
  0
VERTEX
  8
102
 10
193.5317
 20
51.6000
 30
0.0000
  0
SEQEND
  8
0
  0
POLYLINE
  8
102
 66
1
 10
0.0000
 20
0.0000
 30
0.0000
 40
0.1270
 41
0.1270
 70
0
  0
VERTEX
  8
102
 10
212.5000
 20
63.0000
 30
0.0000
  0
VERTEX
  8
102
 10
224.5000
 20
63.0000
 30
0.0000
  0
SEQEND
  8
0
  0
POLYLINE
  8
102
 66
1
 10
0.0000
 20
0.0000
 30
0.0000
 40
0.0635
 41
0.0635
 70
0
  0
VERTEX
  8
102
 10
224.5000
 20
62.9682
 30
0.0000
 42
1.0000
  0
VERTEX
  8
102
 10
224.5000
 20
63.0318
 30
0.0000
  0
SEQEND
  8
0
  0
POLYLINE
  8
102
 66
1
 10
0.0000
 20
0.0000
 30
0.0000
 40
0.0635
 41
0.0635
 70
0
  0
VERTEX
  8
102
 10
212.5000
 20
63.0318
 30
0.0000
 42
1.0000
  0
VERTEX
  8
102
 10
212.5000
 20
62.9682
 30
0.0000
  0
SEQEND
  8
0
  0
POLYLINE
  8
102
 66
1
 10
0.0000
 20
0.0000
 30
0.0000
 40
0.1270
 41
0.1270
 70
0
  0
VERTEX
  8
102
 10
224.5000
 20
63.0000
 30
0.0000
  0
VERTEX
  8
102
 10
224.5000
 20
51.6000
 30
0.0000
  0
SEQEND
  8
0
  0
POLYLINE
  8
102
 66
1
 10
0.0000
 20
0.0000
 30
0.0000
 40
0.0635
 41
0.0635
 70
0
  0
VERTEX
  8
102
 10
224.4683
 20
51.6000
 30
0.0000
 42
1.0000
  0
VERTEX
  8
102
 10
224.5317
 20
51.6000
 30
0.0000
  0
SEQEND
  8
0
  0
POLYLINE
  8
102
 66
1
 10
0.0000
 20
0.0000
 30
0.0000
 40
0.0635
 41
0.0635
 70
0
  0
VERTEX
  8
102
 10
224.5317
 20
63.0000
 30
0.0000
 42
1.0000
  0
VERTEX
  8
102
 10
224.4683
 20
63.0000
 30
0.0000
  0
SEQEND
  8
0
  0
POLYLINE
  8
102
 66
1
 10
0.0000
 20
0.0000
 30
0.0000
 40
0.1270
 41
0.1270
 70
0
  0
VERTEX
  8
102
 10
224.5000
 20
51.6000
 30
0.0000
  0
VERTEX
  8
102
 10
212.5000
 20
51.6000
 30
0.0000
  0
SEQEND
  8
0
  0
POLYLINE
  8
102
 66
1
 10
0.0000
 20
0.0000
 30
0.0000
 40
0.0635
 41
0.0635
 70
0
  0
VERTEX
  8
102
 10
212.5000
 20
51.6318
 30
0.0000
 42
1.0000
  0
VERTEX
  8
102
 10
212.5000
 20
51.5682
 30
0.0000
  0
SEQEND
  8
0
  0
POLYLINE
  8
102
 66
1
 10
0.0000
 20
0.0000
 30
0.0000
 40
0.0635
 41
0.0635
 70
0
  0
VERTEX
  8
102
 10
224.5000
 20
51.5682
 30
0.0000
 42
1.0000
  0
VERTEX
  8
102
 10
224.5000
 20
51.6318
 30
0.0000
  0
SEQEND
  8
0
  0
POLYLINE
  8
102
 66
1
 10
0.0000
 20
0.0000
 30
0.0000
 40
0.1270
 41
0.1270
 70
0
  0
VERTEX
  8
102
 10
212.5000
 20
51.6000
 30
0.0000
  0
VERTEX
  8
102
 10
212.5000
 20
63.0000
 30
0.0000
  0
SEQEND
  8
0
  0
POLYLINE
  8
102
 66
1
 10
0.0000
 20
0.0000
 30
0.0000
 40
0.0635
 41
0.0635
 70
0
  0
VERTEX
  8
102
 10
212.5317
 20
63.0000
 30
0.0000
 42
1.0000
  0
VERTEX
  8
102
 10
212.4683
 20
63.0000
 30
0.0000
  0
SEQEND
  8
0
  0
POLYLINE
  8
102
 66
1
 10
0.0000
 20
0.0000
 30
0.0000
 40
0.0635
 41
0.0635
 70
0
  0
VERTEX
  8
102
 10
212.4683
 20
51.6000
 30
0.0000
 42
1.0000
  0
VERTEX
  8
102
 10
212.5317
 20
51.6000
 30
0.0000
  0
SEQEND
  8
0
  0
POLYLINE
  8
102
 66
1
 10
0.0000
 20
0.0000
 30
0.0000
 40
0.1270
 41
0.1270
 70
0
  0
VERTEX
  8
102
 10
-1.2500
 20
43.9000
 30
0.0000
  0
VERTEX
  8
102
 10
10.7500
 20
43.9000
 30
0.0000
  0
SEQEND
  8
0
  0
POLYLINE
  8
102
 66
1
 10
0.0000
 20
0.0000
 30
0.0000
 40
0.0635
 41
0.0635
 70
0
  0
VERTEX
  8
102
 10
10.7500
 20
43.8682
 30
0.0000
 42
1.0000
  0
VERTEX
  8
102
 10
10.7500
 20
43.9318
 30
0.0000
  0
SEQEND
  8
0
  0
POLYLINE
  8
102
 66
1
 10
0.0000
 20
0.0000
 30
0.0000
 40
0.0635
 41
0.0635
 70
0
  0
VERTEX
  8
102
 10
-1.2500
 20
43.9318
 30
0.0000
 42
1.0000
  0
VERTEX
  8
102
 10
-1.2500
 20
43.8682
 30
0.0000
  0
SEQEND
  8
0
  0
POLYLINE
  8
102
 66
1
 10
0.0000
 20
0.0000
 30
0.0000
 40
0.1270
 41
0.1270
 70
0
  0
VERTEX
  8
102
 10
10.7500
 20
43.9000
 30
0.0000
  0
VERTEX
  8
102
 10
10.7500
 20
32.5000
 30
0.0000
  0
SEQEND
  8
0
  0
POLYLINE
  8
102
 66
1
 10
0.0000
 20
0.0000
 30
0.0000
 40
0.0635
 41
0.0635
 70
0
  0
VERTEX
  8
102
 10
10.7182
 20
32.5000
 30
0.0000
 42
1.0000
  0
VERTEX
  8
102
 10
10.7818
 20
32.5000
 30
0.0000
  0
SEQEND
  8
0
  0
POLYLINE
  8
102
 66
1
 10
0.0000
 20
0.0000
 30
0.0000
 40
0.0635
 41
0.0635
 70
0
  0
VERTEX
  8
102
 10
10.7818
 20
43.9000
 30
0.0000
 42
1.0000
  0
VERTEX
  8
102
 10
10.7182
 20
43.9000
 30
0.0000
  0
SEQEND
  8
0
  0
POLYLINE
  8
102
 66
1
 10
0.0000
 20
0.0000
 30
0.0000
 40
0.1270
 41
0.1270
 70
0
  0
VERTEX
  8
102
 10
10.7500
 20
32.5000
 30
0.0000
  0
VERTEX
  8
102
 10
-1.2500
 20
32.5000
 30
0.0000
  0
SEQEND
  8
0
  0
POLYLINE
  8
102
 66
1
 10
0.0000
 20
0.0000
 30
0.0000
 40
0.0635
 41
0.0635
 70
0
  0
VERTEX
  8
102
 10
-1.2500
 20
32.5318
 30
0.0000
 42
1.0000
  0
VERTEX
  8
102
 10
-1.2500
 20
32.4682
 30
0.0000
  0
SEQEND
  8
0
  0
POLYLINE
  8
102
 66
1
 10
0.0000
 20
0.0000
 30
0.0000
 40
0.0635
 41
0.0635
 70
0
  0
VERTEX
  8
102
 10
10.7500
 20
32.4682
 30
0.0000
 42
1.0000
  0
VERTEX
  8
102
 10
10.7500
 20
32.5318
 30
0.0000
  0
SEQEND
  8
0
  0
POLYLINE
  8
102
 66
1
 10
0.0000
 20
0.0000
 30
0.0000
 40
0.1270
 41
0.1270
 70
0
  0
VERTEX
  8
102
 10
-1.2500
 20
32.5000
 30
0.0000
  0
VERTEX
  8
102
 10
-1.2500
 20
43.9000
 30
0.0000
  0
SEQEND
  8
0
  0
POLYLINE
  8
102
 66
1
 10
0.0000
 20
0.0000
 30
0.0000
 40
0.0635
 41
0.0635
 70
0
  0
VERTEX
  8
102
 10
-1.2183
 20
43.9000
 30
0.0000
 42
1.0000
  0
VERTEX
  8
102
 10
-1.2817
 20
43.9000
 30
0.0000
  0
SEQEND
  8
0
  0
POLYLINE
  8
102
 66
1
 10
0.0000
 20
0.0000
 30
0.0000
 40
0.0635
 41
0.0635
 70
0
  0
VERTEX
  8
102
 10
-1.2817
 20
32.5000
 30
0.0000
 42
1.0000
  0
VERTEX
  8
102
 10
-1.2183
 20
32.5000
 30
0.0000
  0
SEQEND
  8
0
  0
POLYLINE
  8
102
 66
1
 10
0.0000
 20
0.0000
 30
0.0000
 40
0.1270
 41
0.1270
 70
0
  0
VERTEX
  8
102
 10
24.9000
 20
43.9000
 30
0.0000
  0
VERTEX
  8
102
 10
36.9000
 20
43.9000
 30
0.0000
  0
SEQEND
  8
0
  0
POLYLINE
  8
102
 66
1
 10
0.0000
 20
0.0000
 30
0.0000
 40
0.0635
 41
0.0635
 70
0
  0
VERTEX
  8
102
 10
36.9000
 20
43.8682
 30
0.0000
 42
1.0000
  0
VERTEX
  8
102
 10
36.9000
 20
43.9318
 30
0.0000
  0
SEQEND
  8
0
  0
POLYLINE
  8
102
 66
1
 10
0.0000
 20
0.0000
 30
0.0000
 40
0.0635
 41
0.0635
 70
0
  0
VERTEX
  8
102
 10
24.9000
 20
43.9318
 30
0.0000
 42
1.0000
  0
VERTEX
  8
102
 10
24.9000
 20
43.8682
 30
0.0000
  0
SEQEND
  8
0
  0
POLYLINE
  8
102
 66
1
 10
0.0000
 20
0.0000
 30
0.0000
 40
0.1270
 41
0.1270
 70
0
  0
VERTEX
  8
102
 10
36.9000
 20
43.9000
 30
0.0000
  0
VERTEX
  8
102
 10
36.9000
 20
32.5000
 30
0.0000
  0
SEQEND
  8
0
  0
POLYLINE
  8
102
 66
1
 10
0.0000
 20
0.0000
 30
0.0000
 40
0.0635
 41
0.0635
 70
0
  0
VERTEX
  8
102
 10
36.8682
 20
32.5000
 30
0.0000
 42
1.0000
  0
VERTEX
  8
102
 10
36.9318
 20
32.5000
 30
0.0000
  0
SEQEND
  8
0
  0
POLYLINE
  8
102
 66
1
 10
0.0000
 20
0.0000
 30
0.0000
 40
0.0635
 41
0.0635
 70
0
  0
VERTEX
  8
102
 10
36.9318
 20
43.9000
 30
0.0000
 42
1.0000
  0
VERTEX
  8
102
 10
36.8682
 20
43.9000
 30
0.0000
  0
SEQEND
  8
0
  0
POLYLINE
  8
102
 66
1
 10
0.0000
 20
0.0000
 30
0.0000
 40
0.1270
 41
0.1270
 70
0
  0
VERTEX
  8
102
 10
36.9000
 20
32.5000
 30
0.0000
  0
VERTEX
  8
102
 10
24.9000
 20
32.5000
 30
0.0000
  0
SEQEND
  8
0
  0
POLYLINE
  8
102
 66
1
 10
0.0000
 20
0.0000
 30
0.0000
 40
0.0635
 41
0.0635
 70
0
  0
VERTEX
  8
102
 10
24.9000
 20
32.5318
 30
0.0000
 42
1.0000
  0
VERTEX
  8
102
 10
24.9000
 20
32.4682
 30
0.0000
  0
SEQEND
  8
0
  0
POLYLINE
  8
102
 66
1
 10
0.0000
 20
0.0000
 30
0.0000
 40
0.0635
 41
0.0635
 70
0
  0
VERTEX
  8
102
 10
36.9000
 20
32.4682
 30
0.0000
 42
1.0000
  0
VERTEX
  8
102
 10
36.9000
 20
32.5318
 30
0.0000
  0
SEQEND
  8
0
  0
POLYLINE
  8
102
 66
1
 10
0.0000
 20
0.0000
 30
0.0000
 40
0.1270
 41
0.1270
 70
0
  0
VERTEX
  8
102
 10
24.9000
 20
32.5000
 30
0.0000
  0
VERTEX
  8
102
 10
24.9000
 20
43.9000
 30
0.0000
  0
SEQEND
  8
0
  0
POLYLINE
  8
102
 66
1
 10
0.0000
 20
0.0000
 30
0.0000
 40
0.0635
 41
0.0635
 70
0
  0
VERTEX
  8
102
 10
24.9318
 20
43.9000
 30
0.0000
 42
1.0000
  0
VERTEX
  8
102
 10
24.8683
 20
43.9000
 30
0.0000
  0
SEQEND
  8
0
  0
POLYLINE
  8
102
 66
1
 10
0.0000
 20
0.0000
 30
0.0000
 40
0.0635
 41
0.0635
 70
0
  0
VERTEX
  8
102
 10
24.8683
 20
32.5000
 30
0.0000
 42
1.0000
  0
VERTEX
  8
102
 10
24.9318
 20
32.5000
 30
0.0000
  0
SEQEND
  8
0
  0
POLYLINE
  8
102
 66
1
 10
0.0000
 20
0.0000
 30
0.0000
 40
0.1270
 41
0.1270
 70
0
  0
VERTEX
  8
102
 10
46.3000
 20
43.9000
 30
0.0000
  0
VERTEX
  8
102
 10
58.3000
 20
43.9000
 30
0.0000
  0
SEQEND
  8
0
  0
POLYLINE
  8
102
 66
1
 10
0.0000
 20
0.0000
 30
0.0000
 40
0.0635
 41
0.0635
 70
0
  0
VERTEX
  8
102
 10
58.3000
 20
43.8682
 30
0.0000
 42
1.0000
  0
VERTEX
  8
102
 10
58.3000
 20
43.9318
 30
0.0000
  0
SEQEND
  8
0
  0
POLYLINE
  8
102
 66
1
 10
0.0000
 20
0.0000
 30
0.0000
 40
0.0635
 41
0.0635
 70
0
  0
VERTEX
  8
102
 10
46.3000
 20
43.9318
 30
0.0000
 42
1.0000
  0
VERTEX
  8
102
 10
46.3000
 20
43.8682
 30
0.0000
  0
SEQEND
  8
0
  0
POLYLINE
  8
102
 66
1
 10
0.0000
 20
0.0000
 30
0.0000
 40
0.1270
 41
0.1270
 70
0
  0
VERTEX
  8
102
 10
58.3000
 20
43.9000
 30
0.0000
  0
VERTEX
  8
102
 10
58.3000
 20
32.5000
 30
0.0000
  0
SEQEND
  8
0
  0
POLYLINE
  8
102
 66
1
 10
0.0000
 20
0.0000
 30
0.0000
 40
0.0635
 41
0.0635
 70
0
  0
VERTEX
  8
102
 10
58.2683
 20
32.5000
 30
0.0000
 42
1.0000
  0
VERTEX
  8
102
 10
58.3318
 20
32.5000
 30
0.0000
  0
SEQEND
  8
0
  0
POLYLINE
  8
102
 66
1
 10
0.0000
 20
0.0000
 30
0.0000
 40
0.0635
 41
0.0635
 70
0
  0
VERTEX
  8
102
 10
58.3318
 20
43.9000
 30
0.0000
 42
1.0000
  0
VERTEX
  8
102
 10
58.2683
 20
43.9000
 30
0.0000
  0
SEQEND
  8
0
  0
POLYLINE
  8
102
 66
1
 10
0.0000
 20
0.0000
 30
0.0000
 40
0.1270
 41
0.1270
 70
0
  0
VERTEX
  8
102
 10
58.3000
 20
32.5000
 30
0.0000
  0
VERTEX
  8
102
 10
46.3000
 20
32.5000
 30
0.0000
  0
SEQEND
  8
0
  0
POLYLINE
  8
102
 66
1
 10
0.0000
 20
0.0000
 30
0.0000
 40
0.0635
 41
0.0635
 70
0
  0
VERTEX
  8
102
 10
46.3000
 20
32.5318
 30
0.0000
 42
1.0000
  0
VERTEX
  8
102
 10
46.3000
 20
32.4682
 30
0.0000
  0
SEQEND
  8
0
  0
POLYLINE
  8
102
 66
1
 10
0.0000
 20
0.0000
 30
0.0000
 40
0.0635
 41
0.0635
 70
0
  0
VERTEX
  8
102
 10
58.3000
 20
32.4682
 30
0.0000
 42
1.0000
  0
VERTEX
  8
102
 10
58.3000
 20
32.5318
 30
0.0000
  0
SEQEND
  8
0
  0
POLYLINE
  8
102
 66
1
 10
0.0000
 20
0.0000
 30
0.0000
 40
0.1270
 41
0.1270
 70
0
  0
VERTEX
  8
102
 10
46.3000
 20
32.5000
 30
0.0000
  0
VERTEX
  8
102
 10
46.3000
 20
43.9000
 30
0.0000
  0
SEQEND
  8
0
  0
POLYLINE
  8
102
 66
1
 10
0.0000
 20
0.0000
 30
0.0000
 40
0.0635
 41
0.0635
 70
0
  0
VERTEX
  8
102
 10
46.3318
 20
43.9000
 30
0.0000
 42
1.0000
  0
VERTEX
  8
102
 10
46.2683
 20
43.9000
 30
0.0000
  0
SEQEND
  8
0
  0
POLYLINE
  8
102
 66
1
 10
0.0000
 20
0.0000
 30
0.0000
 40
0.0635
 41
0.0635
 70
0
  0
VERTEX
  8
102
 10
46.2683
 20
32.5000
 30
0.0000
 42
1.0000
  0
VERTEX
  8
102
 10
46.3318
 20
32.5000
 30
0.0000
  0
SEQEND
  8
0
  0
POLYLINE
  8
102
 66
1
 10
0.0000
 20
0.0000
 30
0.0000
 40
0.1270
 41
0.1270
 70
0
  0
VERTEX
  8
102
 10
65.3000
 20
43.9000
 30
0.0000
  0
VERTEX
  8
102
 10
77.3000
 20
43.9000
 30
0.0000
  0
SEQEND
  8
0
  0
POLYLINE
  8
102
 66
1
 10
0.0000
 20
0.0000
 30
0.0000
 40
0.0635
 41
0.0635
 70
0
  0
VERTEX
  8
102
 10
77.3000
 20
43.8682
 30
0.0000
 42
1.0000
  0
VERTEX
  8
102
 10
77.3000
 20
43.9318
 30
0.0000
  0
SEQEND
  8
0
  0
POLYLINE
  8
102
 66
1
 10
0.0000
 20
0.0000
 30
0.0000
 40
0.0635
 41
0.0635
 70
0
  0
VERTEX
  8
102
 10
65.3000
 20
43.9318
 30
0.0000
 42
1.0000
  0
VERTEX
  8
102
 10
65.3000
 20
43.8682
 30
0.0000
  0
SEQEND
  8
0
  0
POLYLINE
  8
102
 66
1
 10
0.0000
 20
0.0000
 30
0.0000
 40
0.1270
 41
0.1270
 70
0
  0
VERTEX
  8
102
 10
77.3000
 20
43.9000
 30
0.0000
  0
VERTEX
  8
102
 10
77.3000
 20
32.5000
 30
0.0000
  0
SEQEND
  8
0
  0
POLYLINE
  8
102
 66
1
 10
0.0000
 20
0.0000
 30
0.0000
 40
0.0635
 41
0.0635
 70
0
  0
VERTEX
  8
102
 10
77.2682
 20
32.5000
 30
0.0000
 42
1.0000
  0
VERTEX
  8
102
 10
77.3317
 20
32.5000
 30
0.0000
  0
SEQEND
  8
0
  0
POLYLINE
  8
102
 66
1
 10
0.0000
 20
0.0000
 30
0.0000
 40
0.0635
 41
0.0635
 70
0
  0
VERTEX
  8
102
 10
77.3317
 20
43.9000
 30
0.0000
 42
1.0000
  0
VERTEX
  8
102
 10
77.2682
 20
43.9000
 30
0.0000
  0
SEQEND
  8
0
  0
POLYLINE
  8
102
 66
1
 10
0.0000
 20
0.0000
 30
0.0000
 40
0.1270
 41
0.1270
 70
0
  0
VERTEX
  8
102
 10
77.3000
 20
32.5000
 30
0.0000
  0
VERTEX
  8
102
 10
65.3000
 20
32.5000
 30
0.0000
  0
SEQEND
  8
0
  0
POLYLINE
  8
102
 66
1
 10
0.0000
 20
0.0000
 30
0.0000
 40
0.0635
 41
0.0635
 70
0
  0
VERTEX
  8
102
 10
65.3000
 20
32.5318
 30
0.0000
 42
1.0000
  0
VERTEX
  8
102
 10
65.3000
 20
32.4682
 30
0.0000
  0
SEQEND
  8
0
  0
POLYLINE
  8
102
 66
1
 10
0.0000
 20
0.0000
 30
0.0000
 40
0.0635
 41
0.0635
 70
0
  0
VERTEX
  8
102
 10
77.3000
 20
32.4682
 30
0.0000
 42
1.0000
  0
VERTEX
  8
102
 10
77.3000
 20
32.5318
 30
0.0000
  0
SEQEND
  8
0
  0
POLYLINE
  8
102
 66
1
 10
0.0000
 20
0.0000
 30
0.0000
 40
0.1270
 41
0.1270
 70
0
  0
VERTEX
  8
102
 10
65.3000
 20
32.5000
 30
0.0000
  0
VERTEX
  8
102
 10
65.3000
 20
43.9000
 30
0.0000
  0
SEQEND
  8
0
  0
POLYLINE
  8
102
 66
1
 10
0.0000
 20
0.0000
 30
0.0000
 40
0.0635
 41
0.0635
 70
0
  0
VERTEX
  8
102
 10
65.3317
 20
43.9000
 30
0.0000
 42
1.0000
  0
VERTEX
  8
102
 10
65.2682
 20
43.9000
 30
0.0000
  0
SEQEND
  8
0
  0
POLYLINE
  8
102
 66
1
 10
0.0000
 20
0.0000
 30
0.0000
 40
0.0635
 41
0.0635
 70
0
  0
VERTEX
  8
102
 10
65.2682
 20
32.5000
 30
0.0000
 42
1.0000
  0
VERTEX
  8
102
 10
65.3317
 20
32.5000
 30
0.0000
  0
SEQEND
  8
0
  0
POLYLINE
  8
102
 66
1
 10
0.0000
 20
0.0000
 30
0.0000
 40
0.1270
 41
0.1270
 70
0
  0
VERTEX
  8
102
 10
84.3000
 20
43.9000
 30
0.0000
  0
VERTEX
  8
102
 10
96.3000
 20
43.9000
 30
0.0000
  0
SEQEND
  8
0
  0
POLYLINE
  8
102
 66
1
 10
0.0000
 20
0.0000
 30
0.0000
 40
0.0635
 41
0.0635
 70
0
  0
VERTEX
  8
102
 10
96.3000
 20
43.8682
 30
0.0000
 42
1.0000
  0
VERTEX
  8
102
 10
96.3000
 20
43.9318
 30
0.0000
  0
SEQEND
  8
0
  0
POLYLINE
  8
102
 66
1
 10
0.0000
 20
0.0000
 30
0.0000
 40
0.0635
 41
0.0635
 70
0
  0
VERTEX
  8
102
 10
84.3000
 20
43.9318
 30
0.0000
 42
1.0000
  0
VERTEX
  8
102
 10
84.3000
 20
43.8682
 30
0.0000
  0
SEQEND
  8
0
  0
POLYLINE
  8
102
 66
1
 10
0.0000
 20
0.0000
 30
0.0000
 40
0.1270
 41
0.1270
 70
0
  0
VERTEX
  8
102
 10
96.3000
 20
43.9000
 30
0.0000
  0
VERTEX
  8
102
 10
96.3000
 20
32.5000
 30
0.0000
  0
SEQEND
  8
0
  0
POLYLINE
  8
102
 66
1
 10
0.0000
 20
0.0000
 30
0.0000
 40
0.0635
 41
0.0635
 70
0
  0
VERTEX
  8
102
 10
96.2683
 20
32.5000
 30
0.0000
 42
1.0000
  0
VERTEX
  8
102
 10
96.3318
 20
32.5000
 30
0.0000
  0
SEQEND
  8
0
  0
POLYLINE
  8
102
 66
1
 10
0.0000
 20
0.0000
 30
0.0000
 40
0.0635
 41
0.0635
 70
0
  0
VERTEX
  8
102
 10
96.3318
 20
43.9000
 30
0.0000
 42
1.0000
  0
VERTEX
  8
102
 10
96.2683
 20
43.9000
 30
0.0000
  0
SEQEND
  8
0
  0
POLYLINE
  8
102
 66
1
 10
0.0000
 20
0.0000
 30
0.0000
 40
0.1270
 41
0.1270
 70
0
  0
VERTEX
  8
102
 10
96.3000
 20
32.5000
 30
0.0000
  0
VERTEX
  8
102
 10
84.3000
 20
32.5000
 30
0.0000
  0
SEQEND
  8
0
  0
POLYLINE
  8
102
 66
1
 10
0.0000
 20
0.0000
 30
0.0000
 40
0.0635
 41
0.0635
 70
0
  0
VERTEX
  8
102
 10
84.3000
 20
32.5318
 30
0.0000
 42
1.0000
  0
VERTEX
  8
102
 10
84.3000
 20
32.4682
 30
0.0000
  0
SEQEND
  8
0
  0
POLYLINE
  8
102
 66
1
 10
0.0000
 20
0.0000
 30
0.0000
 40
0.0635
 41
0.0635
 70
0
  0
VERTEX
  8
102
 10
96.3000
 20
32.4682
 30
0.0000
 42
1.0000
  0
VERTEX
  8
102
 10
96.3000
 20
32.5318
 30
0.0000
  0
SEQEND
  8
0
  0
POLYLINE
  8
102
 66
1
 10
0.0000
 20
0.0000
 30
0.0000
 40
0.1270
 41
0.1270
 70
0
  0
VERTEX
  8
102
 10
84.3000
 20
32.5000
 30
0.0000
  0
VERTEX
  8
102
 10
84.3000
 20
43.9000
 30
0.0000
  0
SEQEND
  8
0
  0
POLYLINE
  8
102
 66
1
 10
0.0000
 20
0.0000
 30
0.0000
 40
0.0635
 41
0.0635
 70
0
  0
VERTEX
  8
102
 10
84.3317
 20
43.9000
 30
0.0000
 42
1.0000
  0
VERTEX
  8
102
 10
84.2682
 20
43.9000
 30
0.0000
  0
SEQEND
  8
0
  0
POLYLINE
  8
102
 66
1
 10
0.0000
 20
0.0000
 30
0.0000
 40
0.0635
 41
0.0635
 70
0
  0
VERTEX
  8
102
 10
84.2682
 20
32.5000
 30
0.0000
 42
1.0000
  0
VERTEX
  8
102
 10
84.3317
 20
32.5000
 30
0.0000
  0
SEQEND
  8
0
  0
POLYLINE
  8
102
 66
1
 10
0.0000
 20
0.0000
 30
0.0000
 40
0.1270
 41
0.1270
 70
0
  0
VERTEX
  8
102
 10
103.3000
 20
43.9000
 30
0.0000
  0
VERTEX
  8
102
 10
115.3000
 20
43.9000
 30
0.0000
  0
SEQEND
  8
0
  0
POLYLINE
  8
102
 66
1
 10
0.0000
 20
0.0000
 30
0.0000
 40
0.0635
 41
0.0635
 70
0
  0
VERTEX
  8
102
 10
115.3000
 20
43.8682
 30
0.0000
 42
1.0000
  0
VERTEX
  8
102
 10
115.3000
 20
43.9318
 30
0.0000
  0
SEQEND
  8
0
  0
POLYLINE
  8
102
 66
1
 10
0.0000
 20
0.0000
 30
0.0000
 40
0.0635
 41
0.0635
 70
0
  0
VERTEX
  8
102
 10
103.3000
 20
43.9318
 30
0.0000
 42
1.0000
  0
VERTEX
  8
102
 10
103.3000
 20
43.8682
 30
0.0000
  0
SEQEND
  8
0
  0
POLYLINE
  8
102
 66
1
 10
0.0000
 20
0.0000
 30
0.0000
 40
0.1270
 41
0.1270
 70
0
  0
VERTEX
  8
102
 10
115.3000
 20
43.9000
 30
0.0000
  0
VERTEX
  8
102
 10
115.3000
 20
32.5000
 30
0.0000
  0
SEQEND
  8
0
  0
POLYLINE
  8
102
 66
1
 10
0.0000
 20
0.0000
 30
0.0000
 40
0.0635
 41
0.0635
 70
0
  0
VERTEX
  8
102
 10
115.2683
 20
32.5000
 30
0.0000
 42
1.0000
  0
VERTEX
  8
102
 10
115.3318
 20
32.5000
 30
0.0000
  0
SEQEND
  8
0
  0
POLYLINE
  8
102
 66
1
 10
0.0000
 20
0.0000
 30
0.0000
 40
0.0635
 41
0.0635
 70
0
  0
VERTEX
  8
102
 10
115.3318
 20
43.9000
 30
0.0000
 42
1.0000
  0
VERTEX
  8
102
 10
115.2683
 20
43.9000
 30
0.0000
  0
SEQEND
  8
0
  0
POLYLINE
  8
102
 66
1
 10
0.0000
 20
0.0000
 30
0.0000
 40
0.1270
 41
0.1270
 70
0
  0
VERTEX
  8
102
 10
115.3000
 20
32.5000
 30
0.0000
  0
VERTEX
  8
102
 10
103.3000
 20
32.5000
 30
0.0000
  0
SEQEND
  8
0
  0
POLYLINE
  8
102
 66
1
 10
0.0000
 20
0.0000
 30
0.0000
 40
0.0635
 41
0.0635
 70
0
  0
VERTEX
  8
102
 10
103.3000
 20
32.5318
 30
0.0000
 42
1.0000
  0
VERTEX
  8
102
 10
103.3000
 20
32.4682
 30
0.0000
  0
SEQEND
  8
0
  0
POLYLINE
  8
102
 66
1
 10
0.0000
 20
0.0000
 30
0.0000
 40
0.0635
 41
0.0635
 70
0
  0
VERTEX
  8
102
 10
115.3000
 20
32.4682
 30
0.0000
 42
1.0000
  0
VERTEX
  8
102
 10
115.3000
 20
32.5318
 30
0.0000
  0
SEQEND
  8
0
  0
POLYLINE
  8
102
 66
1
 10
0.0000
 20
0.0000
 30
0.0000
 40
0.1270
 41
0.1270
 70
0
  0
VERTEX
  8
102
 10
103.3000
 20
32.5000
 30
0.0000
  0
VERTEX
  8
102
 10
103.3000
 20
43.9000
 30
0.0000
  0
SEQEND
  8
0
  0
POLYLINE
  8
102
 66
1
 10
0.0000
 20
0.0000
 30
0.0000
 40
0.0635
 41
0.0635
 70
0
  0
VERTEX
  8
102
 10
103.3318
 20
43.9000
 30
0.0000
 42
1.0000
  0
VERTEX
  8
102
 10
103.2683
 20
43.9000
 30
0.0000
  0
SEQEND
  8
0
  0
POLYLINE
  8
102
 66
1
 10
0.0000
 20
0.0000
 30
0.0000
 40
0.0635
 41
0.0635
 70
0
  0
VERTEX
  8
102
 10
103.2683
 20
32.5000
 30
0.0000
 42
1.0000
  0
VERTEX
  8
102
 10
103.3318
 20
32.5000
 30
0.0000
  0
SEQEND
  8
0
  0
POLYLINE
  8
102
 66
1
 10
0.0000
 20
0.0000
 30
0.0000
 40
0.1270
 41
0.1270
 70
0
  0
VERTEX
  8
102
 10
122.3000
 20
43.9000
 30
0.0000
  0
VERTEX
  8
102
 10
134.3000
 20
43.9000
 30
0.0000
  0
SEQEND
  8
0
  0
POLYLINE
  8
102
 66
1
 10
0.0000
 20
0.0000
 30
0.0000
 40
0.0635
 41
0.0635
 70
0
  0
VERTEX
  8
102
 10
134.3000
 20
43.8682
 30
0.0000
 42
1.0000
  0
VERTEX
  8
102
 10
134.3000
 20
43.9318
 30
0.0000
  0
SEQEND
  8
0
  0
POLYLINE
  8
102
 66
1
 10
0.0000
 20
0.0000
 30
0.0000
 40
0.0635
 41
0.0635
 70
0
  0
VERTEX
  8
102
 10
122.3000
 20
43.9318
 30
0.0000
 42
1.0000
  0
VERTEX
  8
102
 10
122.3000
 20
43.8682
 30
0.0000
  0
SEQEND
  8
0
  0
POLYLINE
  8
102
 66
1
 10
0.0000
 20
0.0000
 30
0.0000
 40
0.1270
 41
0.1270
 70
0
  0
VERTEX
  8
102
 10
134.3000
 20
43.9000
 30
0.0000
  0
VERTEX
  8
102
 10
134.3000
 20
32.5000
 30
0.0000
  0
SEQEND
  8
0
  0
POLYLINE
  8
102
 66
1
 10
0.0000
 20
0.0000
 30
0.0000
 40
0.0635
 41
0.0635
 70
0
  0
VERTEX
  8
102
 10
134.2683
 20
32.5000
 30
0.0000
 42
1.0000
  0
VERTEX
  8
102
 10
134.3317
 20
32.5000
 30
0.0000
  0
SEQEND
  8
0
  0
POLYLINE
  8
102
 66
1
 10
0.0000
 20
0.0000
 30
0.0000
 40
0.0635
 41
0.0635
 70
0
  0
VERTEX
  8
102
 10
134.3317
 20
43.9000
 30
0.0000
 42
1.0000
  0
VERTEX
  8
102
 10
134.2683
 20
43.9000
 30
0.0000
  0
SEQEND
  8
0
  0
POLYLINE
  8
102
 66
1
 10
0.0000
 20
0.0000
 30
0.0000
 40
0.1270
 41
0.1270
 70
0
  0
VERTEX
  8
102
 10
134.3000
 20
32.5000
 30
0.0000
  0
VERTEX
  8
102
 10
122.3000
 20
32.5000
 30
0.0000
  0
SEQEND
  8
0
  0
POLYLINE
  8
102
 66
1
 10
0.0000
 20
0.0000
 30
0.0000
 40
0.0635
 41
0.0635
 70
0
  0
VERTEX
  8
102
 10
122.3000
 20
32.5318
 30
0.0000
 42
1.0000
  0
VERTEX
  8
102
 10
122.3000
 20
32.4682
 30
0.0000
  0
SEQEND
  8
0
  0
POLYLINE
  8
102
 66
1
 10
0.0000
 20
0.0000
 30
0.0000
 40
0.0635
 41
0.0635
 70
0
  0
VERTEX
  8
102
 10
134.3000
 20
32.4682
 30
0.0000
 42
1.0000
  0
VERTEX
  8
102
 10
134.3000
 20
32.5318
 30
0.0000
  0
SEQEND
  8
0
  0
POLYLINE
  8
102
 66
1
 10
0.0000
 20
0.0000
 30
0.0000
 40
0.1270
 41
0.1270
 70
0
  0
VERTEX
  8
102
 10
122.3000
 20
32.5000
 30
0.0000
  0
VERTEX
  8
102
 10
122.3000
 20
43.9000
 30
0.0000
  0
SEQEND
  8
0
  0
POLYLINE
  8
102
 66
1
 10
0.0000
 20
0.0000
 30
0.0000
 40
0.0635
 41
0.0635
 70
0
  0
VERTEX
  8
102
 10
122.3318
 20
43.9000
 30
0.0000
 42
1.0000
  0
VERTEX
  8
102
 10
122.2683
 20
43.9000
 30
0.0000
  0
SEQEND
  8
0
  0
POLYLINE
  8
102
 66
1
 10
0.0000
 20
0.0000
 30
0.0000
 40
0.0635
 41
0.0635
 70
0
  0
VERTEX
  8
102
 10
122.2683
 20
32.5000
 30
0.0000
 42
1.0000
  0
VERTEX
  8
102
 10
122.3318
 20
32.5000
 30
0.0000
  0
SEQEND
  8
0
  0
POLYLINE
  8
102
 66
1
 10
0.0000
 20
0.0000
 30
0.0000
 40
0.1270
 41
0.1270
 70
0
  0
VERTEX
  8
102
 10
141.3000
 20
43.9000
 30
0.0000
  0
VERTEX
  8
102
 10
153.3000
 20
43.9000
 30
0.0000
  0
SEQEND
  8
0
  0
POLYLINE
  8
102
 66
1
 10
0.0000
 20
0.0000
 30
0.0000
 40
0.0635
 41
0.0635
 70
0
  0
VERTEX
  8
102
 10
153.3000
 20
43.8682
 30
0.0000
 42
1.0000
  0
VERTEX
  8
102
 10
153.3000
 20
43.9318
 30
0.0000
  0
SEQEND
  8
0
  0
POLYLINE
  8
102
 66
1
 10
0.0000
 20
0.0000
 30
0.0000
 40
0.0635
 41
0.0635
 70
0
  0
VERTEX
  8
102
 10
141.3000
 20
43.9318
 30
0.0000
 42
1.0000
  0
VERTEX
  8
102
 10
141.3000
 20
43.8682
 30
0.0000
  0
SEQEND
  8
0
  0
POLYLINE
  8
102
 66
1
 10
0.0000
 20
0.0000
 30
0.0000
 40
0.1270
 41
0.1270
 70
0
  0
VERTEX
  8
102
 10
153.3000
 20
43.9000
 30
0.0000
  0
VERTEX
  8
102
 10
153.3000
 20
32.5000
 30
0.0000
  0
SEQEND
  8
0
  0
POLYLINE
  8
102
 66
1
 10
0.0000
 20
0.0000
 30
0.0000
 40
0.0635
 41
0.0635
 70
0
  0
VERTEX
  8
102
 10
153.2683
 20
32.5000
 30
0.0000
 42
1.0000
  0
VERTEX
  8
102
 10
153.3317
 20
32.5000
 30
0.0000
  0
SEQEND
  8
0
  0
POLYLINE
  8
102
 66
1
 10
0.0000
 20
0.0000
 30
0.0000
 40
0.0635
 41
0.0635
 70
0
  0
VERTEX
  8
102
 10
153.3317
 20
43.9000
 30
0.0000
 42
1.0000
  0
VERTEX
  8
102
 10
153.2683
 20
43.9000
 30
0.0000
  0
SEQEND
  8
0
  0
POLYLINE
  8
102
 66
1
 10
0.0000
 20
0.0000
 30
0.0000
 40
0.1270
 41
0.1270
 70
0
  0
VERTEX
  8
102
 10
153.3000
 20
32.5000
 30
0.0000
  0
VERTEX
  8
102
 10
141.3000
 20
32.5000
 30
0.0000
  0
SEQEND
  8
0
  0
POLYLINE
  8
102
 66
1
 10
0.0000
 20
0.0000
 30
0.0000
 40
0.0635
 41
0.0635
 70
0
  0
VERTEX
  8
102
 10
141.3000
 20
32.5318
 30
0.0000
 42
1.0000
  0
VERTEX
  8
102
 10
141.3000
 20
32.4682
 30
0.0000
  0
SEQEND
  8
0
  0
POLYLINE
  8
102
 66
1
 10
0.0000
 20
0.0000
 30
0.0000
 40
0.0635
 41
0.0635
 70
0
  0
VERTEX
  8
102
 10
153.3000
 20
32.4682
 30
0.0000
 42
1.0000
  0
VERTEX
  8
102
 10
153.3000
 20
32.5318
 30
0.0000
  0
SEQEND
  8
0
  0
POLYLINE
  8
102
 66
1
 10
0.0000
 20
0.0000
 30
0.0000
 40
0.1270
 41
0.1270
 70
0
  0
VERTEX
  8
102
 10
141.3000
 20
32.5000
 30
0.0000
  0
VERTEX
  8
102
 10
141.3000
 20
43.9000
 30
0.0000
  0
SEQEND
  8
0
  0
POLYLINE
  8
102
 66
1
 10
0.0000
 20
0.0000
 30
0.0000
 40
0.0635
 41
0.0635
 70
0
  0
VERTEX
  8
102
 10
141.3317
 20
43.9000
 30
0.0000
 42
1.0000
  0
VERTEX
  8
102
 10
141.2683
 20
43.9000
 30
0.0000
  0
SEQEND
  8
0
  0
POLYLINE
  8
102
 66
1
 10
0.0000
 20
0.0000
 30
0.0000
 40
0.0635
 41
0.0635
 70
0
  0
VERTEX
  8
102
 10
141.2683
 20
32.5000
 30
0.0000
 42
1.0000
  0
VERTEX
  8
102
 10
141.3317
 20
32.5000
 30
0.0000
  0
SEQEND
  8
0
  0
POLYLINE
  8
102
 66
1
 10
0.0000
 20
0.0000
 30
0.0000
 40
0.1270
 41
0.1270
 70
0
  0
VERTEX
  8
102
 10
160.3000
 20
43.9000
 30
0.0000
  0
VERTEX
  8
102
 10
172.3000
 20
43.9000
 30
0.0000
  0
SEQEND
  8
0
  0
POLYLINE
  8
102
 66
1
 10
0.0000
 20
0.0000
 30
0.0000
 40
0.0635
 41
0.0635
 70
0
  0
VERTEX
  8
102
 10
172.3000
 20
43.8682
 30
0.0000
 42
1.0000
  0
VERTEX
  8
102
 10
172.3000
 20
43.9318
 30
0.0000
  0
SEQEND
  8
0
  0
POLYLINE
  8
102
 66
1
 10
0.0000
 20
0.0000
 30
0.0000
 40
0.0635
 41
0.0635
 70
0
  0
VERTEX
  8
102
 10
160.3000
 20
43.9318
 30
0.0000
 42
1.0000
  0
VERTEX
  8
102
 10
160.3000
 20
43.8682
 30
0.0000
  0
SEQEND
  8
0
  0
POLYLINE
  8
102
 66
1
 10
0.0000
 20
0.0000
 30
0.0000
 40
0.1270
 41
0.1270
 70
0
  0
VERTEX
  8
102
 10
172.3000
 20
43.9000
 30
0.0000
  0
VERTEX
  8
102
 10
172.3000
 20
32.5000
 30
0.0000
  0
SEQEND
  8
0
  0
POLYLINE
  8
102
 66
1
 10
0.0000
 20
0.0000
 30
0.0000
 40
0.0635
 41
0.0635
 70
0
  0
VERTEX
  8
102
 10
172.2683
 20
32.5000
 30
0.0000
 42
1.0000
  0
VERTEX
  8
102
 10
172.3317
 20
32.5000
 30
0.0000
  0
SEQEND
  8
0
  0
POLYLINE
  8
102
 66
1
 10
0.0000
 20
0.0000
 30
0.0000
 40
0.0635
 41
0.0635
 70
0
  0
VERTEX
  8
102
 10
172.3317
 20
43.9000
 30
0.0000
 42
1.0000
  0
VERTEX
  8
102
 10
172.2683
 20
43.9000
 30
0.0000
  0
SEQEND
  8
0
  0
POLYLINE
  8
102
 66
1
 10
0.0000
 20
0.0000
 30
0.0000
 40
0.1270
 41
0.1270
 70
0
  0
VERTEX
  8
102
 10
172.3000
 20
32.5000
 30
0.0000
  0
VERTEX
  8
102
 10
160.3000
 20
32.5000
 30
0.0000
  0
SEQEND
  8
0
  0
POLYLINE
  8
102
 66
1
 10
0.0000
 20
0.0000
 30
0.0000
 40
0.0635
 41
0.0635
 70
0
  0
VERTEX
  8
102
 10
160.3000
 20
32.5318
 30
0.0000
 42
1.0000
  0
VERTEX
  8
102
 10
160.3000
 20
32.4682
 30
0.0000
  0
SEQEND
  8
0
  0
POLYLINE
  8
102
 66
1
 10
0.0000
 20
0.0000
 30
0.0000
 40
0.0635
 41
0.0635
 70
0
  0
VERTEX
  8
102
 10
172.3000
 20
32.4682
 30
0.0000
 42
1.0000
  0
VERTEX
  8
102
 10
172.3000
 20
32.5318
 30
0.0000
  0
SEQEND
  8
0
  0
POLYLINE
  8
102
 66
1
 10
0.0000
 20
0.0000
 30
0.0000
 40
0.1270
 41
0.1270
 70
0
  0
VERTEX
  8
102
 10
160.3000
 20
32.5000
 30
0.0000
  0
VERTEX
  8
102
 10
160.3000
 20
43.9000
 30
0.0000
  0
SEQEND
  8
0
  0
POLYLINE
  8
102
 66
1
 10
0.0000
 20
0.0000
 30
0.0000
 40
0.0635
 41
0.0635
 70
0
  0
VERTEX
  8
102
 10
160.3317
 20
43.9000
 30
0.0000
 42
1.0000
  0
VERTEX
  8
102
 10
160.2683
 20
43.9000
 30
0.0000
  0
SEQEND
  8
0
  0
POLYLINE
  8
102
 66
1
 10
0.0000
 20
0.0000
 30
0.0000
 40
0.0635
 41
0.0635
 70
0
  0
VERTEX
  8
102
 10
160.2683
 20
32.5000
 30
0.0000
 42
1.0000
  0
VERTEX
  8
102
 10
160.3317
 20
32.5000
 30
0.0000
  0
SEQEND
  8
0
  0
POLYLINE
  8
102
 66
1
 10
0.0000
 20
0.0000
 30
0.0000
 40
0.1270
 41
0.1270
 70
0
  0
VERTEX
  8
102
 10
179.3000
 20
43.9000
 30
0.0000
  0
VERTEX
  8
102
 10
191.3000
 20
43.9000
 30
0.0000
  0
SEQEND
  8
0
  0
POLYLINE
  8
102
 66
1
 10
0.0000
 20
0.0000
 30
0.0000
 40
0.0635
 41
0.0635
 70
0
  0
VERTEX
  8
102
 10
191.3000
 20
43.8682
 30
0.0000
 42
1.0000
  0
VERTEX
  8
102
 10
191.3000
 20
43.9318
 30
0.0000
  0
SEQEND
  8
0
  0
POLYLINE
  8
102
 66
1
 10
0.0000
 20
0.0000
 30
0.0000
 40
0.0635
 41
0.0635
 70
0
  0
VERTEX
  8
102
 10
179.3000
 20
43.9318
 30
0.0000
 42
1.0000
  0
VERTEX
  8
102
 10
179.3000
 20
43.8682
 30
0.0000
  0
SEQEND
  8
0
  0
POLYLINE
  8
102
 66
1
 10
0.0000
 20
0.0000
 30
0.0000
 40
0.1270
 41
0.1270
 70
0
  0
VERTEX
  8
102
 10
191.3000
 20
43.9000
 30
0.0000
  0
VERTEX
  8
102
 10
191.3000
 20
32.5000
 30
0.0000
  0
SEQEND
  8
0
  0
POLYLINE
  8
102
 66
1
 10
0.0000
 20
0.0000
 30
0.0000
 40
0.0635
 41
0.0635
 70
0
  0
VERTEX
  8
102
 10
191.2683
 20
32.5000
 30
0.0000
 42
1.0000
  0
VERTEX
  8
102
 10
191.3317
 20
32.5000
 30
0.0000
  0
SEQEND
  8
0
  0
POLYLINE
  8
102
 66
1
 10
0.0000
 20
0.0000
 30
0.0000
 40
0.0635
 41
0.0635
 70
0
  0
VERTEX
  8
102
 10
191.3317
 20
43.9000
 30
0.0000
 42
1.0000
  0
VERTEX
  8
102
 10
191.2683
 20
43.9000
 30
0.0000
  0
SEQEND
  8
0
  0
POLYLINE
  8
102
 66
1
 10
0.0000
 20
0.0000
 30
0.0000
 40
0.1270
 41
0.1270
 70
0
  0
VERTEX
  8
102
 10
191.3000
 20
32.5000
 30
0.0000
  0
VERTEX
  8
102
 10
179.3000
 20
32.5000
 30
0.0000
  0
SEQEND
  8
0
  0
POLYLINE
  8
102
 66
1
 10
0.0000
 20
0.0000
 30
0.0000
 40
0.0635
 41
0.0635
 70
0
  0
VERTEX
  8
102
 10
179.3000
 20
32.5318
 30
0.0000
 42
1.0000
  0
VERTEX
  8
102
 10
179.3000
 20
32.4682
 30
0.0000
  0
SEQEND
  8
0
  0
POLYLINE
  8
102
 66
1
 10
0.0000
 20
0.0000
 30
0.0000
 40
0.0635
 41
0.0635
 70
0
  0
VERTEX
  8
102
 10
191.3000
 20
32.4682
 30
0.0000
 42
1.0000
  0
VERTEX
  8
102
 10
191.3000
 20
32.5318
 30
0.0000
  0
SEQEND
  8
0
  0
POLYLINE
  8
102
 66
1
 10
0.0000
 20
0.0000
 30
0.0000
 40
0.1270
 41
0.1270
 70
0
  0
VERTEX
  8
102
 10
179.3000
 20
32.5000
 30
0.0000
  0
VERTEX
  8
102
 10
179.3000
 20
43.9000
 30
0.0000
  0
SEQEND
  8
0
  0
POLYLINE
  8
102
 66
1
 10
0.0000
 20
0.0000
 30
0.0000
 40
0.0635
 41
0.0635
 70
0
  0
VERTEX
  8
102
 10
179.3317
 20
43.9000
 30
0.0000
 42
1.0000
  0
VERTEX
  8
102
 10
179.2683
 20
43.9000
 30
0.0000
  0
SEQEND
  8
0
  0
POLYLINE
  8
102
 66
1
 10
0.0000
 20
0.0000
 30
0.0000
 40
0.0635
 41
0.0635
 70
0
  0
VERTEX
  8
102
 10
179.2683
 20
32.5000
 30
0.0000
 42
1.0000
  0
VERTEX
  8
102
 10
179.3317
 20
32.5000
 30
0.0000
  0
SEQEND
  8
0
  0
POLYLINE
  8
102
 66
1
 10
0.0000
 20
0.0000
 30
0.0000
 40
0.1270
 41
0.1270
 70
0
  0
VERTEX
  8
102
 10
198.3000
 20
43.9000
 30
0.0000
  0
VERTEX
  8
102
 10
210.3000
 20
43.9000
 30
0.0000
  0
SEQEND
  8
0
  0
POLYLINE
  8
102
 66
1
 10
0.0000
 20
0.0000
 30
0.0000
 40
0.0635
 41
0.0635
 70
0
  0
VERTEX
  8
102
 10
210.3000
 20
43.8682
 30
0.0000
 42
1.0000
  0
VERTEX
  8
102
 10
210.3000
 20
43.9318
 30
0.0000
  0
SEQEND
  8
0
  0
POLYLINE
  8
102
 66
1
 10
0.0000
 20
0.0000
 30
0.0000
 40
0.0635
 41
0.0635
 70
0
  0
VERTEX
  8
102
 10
198.3000
 20
43.9318
 30
0.0000
 42
1.0000
  0
VERTEX
  8
102
 10
198.3000
 20
43.8682
 30
0.0000
  0
SEQEND
  8
0
  0
POLYLINE
  8
102
 66
1
 10
0.0000
 20
0.0000
 30
0.0000
 40
0.1270
 41
0.1270
 70
0
  0
VERTEX
  8
102
 10
210.3000
 20
43.9000
 30
0.0000
  0
VERTEX
  8
102
 10
210.3000
 20
32.5000
 30
0.0000
  0
SEQEND
  8
0
  0
POLYLINE
  8
102
 66
1
 10
0.0000
 20
0.0000
 30
0.0000
 40
0.0635
 41
0.0635
 70
0
  0
VERTEX
  8
102
 10
210.2683
 20
32.5000
 30
0.0000
 42
1.0000
  0
VERTEX
  8
102
 10
210.3317
 20
32.5000
 30
0.0000
  0
SEQEND
  8
0
  0
POLYLINE
  8
102
 66
1
 10
0.0000
 20
0.0000
 30
0.0000
 40
0.0635
 41
0.0635
 70
0
  0
VERTEX
  8
102
 10
210.3317
 20
43.9000
 30
0.0000
 42
1.0000
  0
VERTEX
  8
102
 10
210.2683
 20
43.9000
 30
0.0000
  0
SEQEND
  8
0
  0
POLYLINE
  8
102
 66
1
 10
0.0000
 20
0.0000
 30
0.0000
 40
0.1270
 41
0.1270
 70
0
  0
VERTEX
  8
102
 10
210.3000
 20
32.5000
 30
0.0000
  0
VERTEX
  8
102
 10
198.3000
 20
32.5000
 30
0.0000
  0
SEQEND
  8
0
  0
POLYLINE
  8
102
 66
1
 10
0.0000
 20
0.0000
 30
0.0000
 40
0.0635
 41
0.0635
 70
0
  0
VERTEX
  8
102
 10
198.3000
 20
32.5318
 30
0.0000
 42
1.0000
  0
VERTEX
  8
102
 10
198.3000
 20
32.4682
 30
0.0000
  0
SEQEND
  8
0
  0
POLYLINE
  8
102
 66
1
 10
0.0000
 20
0.0000
 30
0.0000
 40
0.0635
 41
0.0635
 70
0
  0
VERTEX
  8
102
 10
210.3000
 20
32.4682
 30
0.0000
 42
1.0000
  0
VERTEX
  8
102
 10
210.3000
 20
32.5318
 30
0.0000
  0
SEQEND
  8
0
  0
POLYLINE
  8
102
 66
1
 10
0.0000
 20
0.0000
 30
0.0000
 40
0.1270
 41
0.1270
 70
0
  0
VERTEX
  8
102
 10
198.3000
 20
32.5000
 30
0.0000
  0
VERTEX
  8
102
 10
198.3000
 20
43.9000
 30
0.0000
  0
SEQEND
  8
0
  0
POLYLINE
  8
102
 66
1
 10
0.0000
 20
0.0000
 30
0.0000
 40
0.0635
 41
0.0635
 70
0
  0
VERTEX
  8
102
 10
198.3317
 20
43.9000
 30
0.0000
 42
1.0000
  0
VERTEX
  8
102
 10
198.2683
 20
43.9000
 30
0.0000
  0
SEQEND
  8
0
  0
POLYLINE
  8
102
 66
1
 10
0.0000
 20
0.0000
 30
0.0000
 40
0.0635
 41
0.0635
 70
0
  0
VERTEX
  8
102
 10
198.2683
 20
32.5000
 30
0.0000
 42
1.0000
  0
VERTEX
  8
102
 10
198.3317
 20
32.5000
 30
0.0000
  0
SEQEND
  8
0
  0
POLYLINE
  8
102
 66
1
 10
0.0000
 20
0.0000
 30
0.0000
 40
0.1270
 41
0.1270
 70
0
  0
VERTEX
  8
102
 10
231.5000
 20
53.4500
 30
0.0000
  0
VERTEX
  8
102
 10
243.5000
 20
53.4500
 30
0.0000
  0
SEQEND
  8
0
  0
POLYLINE
  8
102
 66
1
 10
0.0000
 20
0.0000
 30
0.0000
 40
0.0635
 41
0.0635
 70
0
  0
VERTEX
  8
102
 10
243.5000
 20
53.4183
 30
0.0000
 42
1.0000
  0
VERTEX
  8
102
 10
243.5000
 20
53.4818
 30
0.0000
  0
SEQEND
  8
0
  0
POLYLINE
  8
102
 66
1
 10
0.0000
 20
0.0000
 30
0.0000
 40
0.0635
 41
0.0635
 70
0
  0
VERTEX
  8
102
 10
231.5000
 20
53.4818
 30
0.0000
 42
1.0000
  0
VERTEX
  8
102
 10
231.5000
 20
53.4183
 30
0.0000
  0
SEQEND
  8
0
  0
POLYLINE
  8
102
 66
1
 10
0.0000
 20
0.0000
 30
0.0000
 40
0.1270
 41
0.1270
 70
0
  0
VERTEX
  8
102
 10
243.5000
 20
53.4500
 30
0.0000
  0
VERTEX
  8
102
 10
243.5000
 20
42.0500
 30
0.0000
  0
SEQEND
  8
0
  0
POLYLINE
  8
102
 66
1
 10
0.0000
 20
0.0000
 30
0.0000
 40
0.0635
 41
0.0635
 70
0
  0
VERTEX
  8
102
 10
243.4683
 20
42.0500
 30
0.0000
 42
1.0000
  0
VERTEX
  8
102
 10
243.5317
 20
42.0500
 30
0.0000
  0
SEQEND
  8
0
  0
POLYLINE
  8
102
 66
1
 10
0.0000
 20
0.0000
 30
0.0000
 40
0.0635
 41
0.0635
 70
0
  0
VERTEX
  8
102
 10
243.5317
 20
53.4500
 30
0.0000
 42
1.0000
  0
VERTEX
  8
102
 10
243.4683
 20
53.4500
 30
0.0000
  0
SEQEND
  8
0
  0
POLYLINE
  8
102
 66
1
 10
0.0000
 20
0.0000
 30
0.0000
 40
0.1270
 41
0.1270
 70
0
  0
VERTEX
  8
102
 10
243.5000
 20
42.0500
 30
0.0000
  0
VERTEX
  8
102
 10
231.5000
 20
42.0500
 30
0.0000
  0
SEQEND
  8
0
  0
POLYLINE
  8
102
 66
1
 10
0.0000
 20
0.0000
 30
0.0000
 40
0.0635
 41
0.0635
 70
0
  0
VERTEX
  8
102
 10
231.5000
 20
42.0818
 30
0.0000
 42
1.0000
  0
VERTEX
  8
102
 10
231.5000
 20
42.0183
 30
0.0000
  0
SEQEND
  8
0
  0
POLYLINE
  8
102
 66
1
 10
0.0000
 20
0.0000
 30
0.0000
 40
0.0635
 41
0.0635
 70
0
  0
VERTEX
  8
102
 10
243.5000
 20
42.0183
 30
0.0000
 42
1.0000
  0
VERTEX
  8
102
 10
243.5000
 20
42.0818
 30
0.0000
  0
SEQEND
  8
0
  0
POLYLINE
  8
102
 66
1
 10
0.0000
 20
0.0000
 30
0.0000
 40
0.1270
 41
0.1270
 70
0
  0
VERTEX
  8
102
 10
231.5000
 20
42.0500
 30
0.0000
  0
VERTEX
  8
102
 10
231.5000
 20
53.4500
 30
0.0000
  0
SEQEND
  8
0
  0
POLYLINE
  8
102
 66
1
 10
0.0000
 20
0.0000
 30
0.0000
 40
0.0635
 41
0.0635
 70
0
  0
VERTEX
  8
102
 10
231.5317
 20
53.4500
 30
0.0000
 42
1.0000
  0
VERTEX
  8
102
 10
231.4683
 20
53.4500
 30
0.0000
  0
SEQEND
  8
0
  0
POLYLINE
  8
102
 66
1
 10
0.0000
 20
0.0000
 30
0.0000
 40
0.0635
 41
0.0635
 70
0
  0
VERTEX
  8
102
 10
231.4683
 20
42.0500
 30
0.0000
 42
1.0000
  0
VERTEX
  8
102
 10
231.5317
 20
42.0500
 30
0.0000
  0
SEQEND
  8
0
  0
POLYLINE
  8
102
 66
1
 10
0.0000
 20
0.0000
 30
0.0000
 40
0.1270
 41
0.1270
 70
0
  0
VERTEX
  8
102
 10
5.9500
 20
24.8000
 30
0.0000
  0
VERTEX
  8
102
 10
17.9500
 20
24.8000
 30
0.0000
  0
SEQEND
  8
0
  0
POLYLINE
  8
102
 66
1
 10
0.0000
 20
0.0000
 30
0.0000
 40
0.0635
 41
0.0635
 70
0
  0
VERTEX
  8
102
 10
17.9500
 20
24.7683
 30
0.0000
 42
1.0000
  0
VERTEX
  8
102
 10
17.9500
 20
24.8317
 30
0.0000
  0
SEQEND
  8
0
  0
POLYLINE
  8
102
 66
1
 10
0.0000
 20
0.0000
 30
0.0000
 40
0.0635
 41
0.0635
 70
0
  0
VERTEX
  8
102
 10
5.9500
 20
24.8317
 30
0.0000
 42
1.0000
  0
VERTEX
  8
102
 10
5.9500
 20
24.7683
 30
0.0000
  0
SEQEND
  8
0
  0
POLYLINE
  8
102
 66
1
 10
0.0000
 20
0.0000
 30
0.0000
 40
0.1270
 41
0.1270
 70
0
  0
VERTEX
  8
102
 10
17.9500
 20
24.8000
 30
0.0000
  0
VERTEX
  8
102
 10
17.9500
 20
13.4000
 30
0.0000
  0
SEQEND
  8
0
  0
POLYLINE
  8
102
 66
1
 10
0.0000
 20
0.0000
 30
0.0000
 40
0.0635
 41
0.0635
 70
0
  0
VERTEX
  8
102
 10
17.9183
 20
13.4000
 30
0.0000
 42
1.0000
  0
VERTEX
  8
102
 10
17.9817
 20
13.4000
 30
0.0000
  0
SEQEND
  8
0
  0
POLYLINE
  8
102
 66
1
 10
0.0000
 20
0.0000
 30
0.0000
 40
0.0635
 41
0.0635
 70
0
  0
VERTEX
  8
102
 10
17.9817
 20
24.8000
 30
0.0000
 42
1.0000
  0
VERTEX
  8
102
 10
17.9183
 20
24.8000
 30
0.0000
  0
SEQEND
  8
0
  0
POLYLINE
  8
102
 66
1
 10
0.0000
 20
0.0000
 30
0.0000
 40
0.1270
 41
0.1270
 70
0
  0
VERTEX
  8
102
 10
17.9500
 20
13.4000
 30
0.0000
  0
VERTEX
  8
102
 10
5.9500
 20
13.4000
 30
0.0000
  0
SEQEND
  8
0
  0
POLYLINE
  8
102
 66
1
 10
0.0000
 20
0.0000
 30
0.0000
 40
0.0635
 41
0.0635
 70
0
  0
VERTEX
  8
102
 10
5.9500
 20
13.4318
 30
0.0000
 42
1.0000
  0
VERTEX
  8
102
 10
5.9500
 20
13.3682
 30
0.0000
  0
SEQEND
  8
0
  0
POLYLINE
  8
102
 66
1
 10
0.0000
 20
0.0000
 30
0.0000
 40
0.0635
 41
0.0635
 70
0
  0
VERTEX
  8
102
 10
17.9500
 20
13.3682
 30
0.0000
 42
1.0000
  0
VERTEX
  8
102
 10
17.9500
 20
13.4318
 30
0.0000
  0
SEQEND
  8
0
  0
POLYLINE
  8
102
 66
1
 10
0.0000
 20
0.0000
 30
0.0000
 40
0.1270
 41
0.1270
 70
0
  0
VERTEX
  8
102
 10
5.9500
 20
13.4000
 30
0.0000
  0
VERTEX
  8
102
 10
5.9500
 20
24.8000
 30
0.0000
  0
SEQEND
  8
0
  0
POLYLINE
  8
102
 66
1
 10
0.0000
 20
0.0000
 30
0.0000
 40
0.0635
 41
0.0635
 70
0
  0
VERTEX
  8
102
 10
5.9817
 20
24.8000
 30
0.0000
 42
1.0000
  0
VERTEX
  8
102
 10
5.9183
 20
24.8000
 30
0.0000
  0
SEQEND
  8
0
  0
POLYLINE
  8
102
 66
1
 10
0.0000
 20
0.0000
 30
0.0000
 40
0.0635
 41
0.0635
 70
0
  0
VERTEX
  8
102
 10
5.9183
 20
13.4000
 30
0.0000
 42
1.0000
  0
VERTEX
  8
102
 10
5.9817
 20
13.4000
 30
0.0000
  0
SEQEND
  8
0
  0
POLYLINE
  8
102
 66
1
 10
0.0000
 20
0.0000
 30
0.0000
 40
0.1270
 41
0.1270
 70
0
  0
VERTEX
  8
102
 10
36.7000
 20
24.8000
 30
0.0000
  0
VERTEX
  8
102
 10
48.7000
 20
24.8000
 30
0.0000
  0
SEQEND
  8
0
  0
POLYLINE
  8
102
 66
1
 10
0.0000
 20
0.0000
 30
0.0000
 40
0.0635
 41
0.0635
 70
0
  0
VERTEX
  8
102
 10
48.7000
 20
24.7683
 30
0.0000
 42
1.0000
  0
VERTEX
  8
102
 10
48.7000
 20
24.8317
 30
0.0000
  0
SEQEND
  8
0
  0
POLYLINE
  8
102
 66
1
 10
0.0000
 20
0.0000
 30
0.0000
 40
0.0635
 41
0.0635
 70
0
  0
VERTEX
  8
102
 10
36.7000
 20
24.8317
 30
0.0000
 42
1.0000
  0
VERTEX
  8
102
 10
36.7000
 20
24.7683
 30
0.0000
  0
SEQEND
  8
0
  0
POLYLINE
  8
102
 66
1
 10
0.0000
 20
0.0000
 30
0.0000
 40
0.1270
 41
0.1270
 70
0
  0
VERTEX
  8
102
 10
48.7000
 20
24.8000
 30
0.0000
  0
VERTEX
  8
102
 10
48.7000
 20
13.4000
 30
0.0000
  0
SEQEND
  8
0
  0
POLYLINE
  8
102
 66
1
 10
0.0000
 20
0.0000
 30
0.0000
 40
0.0635
 41
0.0635
 70
0
  0
VERTEX
  8
102
 10
48.6683
 20
13.4000
 30
0.0000
 42
1.0000
  0
VERTEX
  8
102
 10
48.7318
 20
13.4000
 30
0.0000
  0
SEQEND
  8
0
  0
POLYLINE
  8
102
 66
1
 10
0.0000
 20
0.0000
 30
0.0000
 40
0.0635
 41
0.0635
 70
0
  0
VERTEX
  8
102
 10
48.7318
 20
24.8000
 30
0.0000
 42
1.0000
  0
VERTEX
  8
102
 10
48.6683
 20
24.8000
 30
0.0000
  0
SEQEND
  8
0
  0
POLYLINE
  8
102
 66
1
 10
0.0000
 20
0.0000
 30
0.0000
 40
0.1270
 41
0.1270
 70
0
  0
VERTEX
  8
102
 10
48.7000
 20
13.4000
 30
0.0000
  0
VERTEX
  8
102
 10
36.7000
 20
13.4000
 30
0.0000
  0
SEQEND
  8
0
  0
POLYLINE
  8
102
 66
1
 10
0.0000
 20
0.0000
 30
0.0000
 40
0.0635
 41
0.0635
 70
0
  0
VERTEX
  8
102
 10
36.7000
 20
13.4318
 30
0.0000
 42
1.0000
  0
VERTEX
  8
102
 10
36.7000
 20
13.3682
 30
0.0000
  0
SEQEND
  8
0
  0
POLYLINE
  8
102
 66
1
 10
0.0000
 20
0.0000
 30
0.0000
 40
0.0635
 41
0.0635
 70
0
  0
VERTEX
  8
102
 10
48.7000
 20
13.3682
 30
0.0000
 42
1.0000
  0
VERTEX
  8
102
 10
48.7000
 20
13.4318
 30
0.0000
  0
SEQEND
  8
0
  0
POLYLINE
  8
102
 66
1
 10
0.0000
 20
0.0000
 30
0.0000
 40
0.1270
 41
0.1270
 70
0
  0
VERTEX
  8
102
 10
36.7000
 20
13.4000
 30
0.0000
  0
VERTEX
  8
102
 10
36.7000
 20
24.8000
 30
0.0000
  0
SEQEND
  8
0
  0
POLYLINE
  8
102
 66
1
 10
0.0000
 20
0.0000
 30
0.0000
 40
0.0635
 41
0.0635
 70
0
  0
VERTEX
  8
102
 10
36.7318
 20
24.8000
 30
0.0000
 42
1.0000
  0
VERTEX
  8
102
 10
36.6683
 20
24.8000
 30
0.0000
  0
SEQEND
  8
0
  0
POLYLINE
  8
102
 66
1
 10
0.0000
 20
0.0000
 30
0.0000
 40
0.0635
 41
0.0635
 70
0
  0
VERTEX
  8
102
 10
36.6683
 20
13.4000
 30
0.0000
 42
1.0000
  0
VERTEX
  8
102
 10
36.7318
 20
13.4000
 30
0.0000
  0
SEQEND
  8
0
  0
POLYLINE
  8
102
 66
1
 10
0.0000
 20
0.0000
 30
0.0000
 40
0.1270
 41
0.1270
 70
0
  0
VERTEX
  8
102
 10
55.7000
 20
24.8000
 30
0.0000
  0
VERTEX
  8
102
 10
67.7000
 20
24.8000
 30
0.0000
  0
SEQEND
  8
0
  0
POLYLINE
  8
102
 66
1
 10
0.0000
 20
0.0000
 30
0.0000
 40
0.0635
 41
0.0635
 70
0
  0
VERTEX
  8
102
 10
67.7000
 20
24.7683
 30
0.0000
 42
1.0000
  0
VERTEX
  8
102
 10
67.7000
 20
24.8317
 30
0.0000
  0
SEQEND
  8
0
  0
POLYLINE
  8
102
 66
1
 10
0.0000
 20
0.0000
 30
0.0000
 40
0.0635
 41
0.0635
 70
0
  0
VERTEX
  8
102
 10
55.7000
 20
24.8317
 30
0.0000
 42
1.0000
  0
VERTEX
  8
102
 10
55.7000
 20
24.7683
 30
0.0000
  0
SEQEND
  8
0
  0
POLYLINE
  8
102
 66
1
 10
0.0000
 20
0.0000
 30
0.0000
 40
0.1270
 41
0.1270
 70
0
  0
VERTEX
  8
102
 10
67.7000
 20
24.8000
 30
0.0000
  0
VERTEX
  8
102
 10
67.7000
 20
13.4000
 30
0.0000
  0
SEQEND
  8
0
  0
POLYLINE
  8
102
 66
1
 10
0.0000
 20
0.0000
 30
0.0000
 40
0.0635
 41
0.0635
 70
0
  0
VERTEX
  8
102
 10
67.6683
 20
13.4000
 30
0.0000
 42
1.0000
  0
VERTEX
  8
102
 10
67.7318
 20
13.4000
 30
0.0000
  0
SEQEND
  8
0
  0
POLYLINE
  8
102
 66
1
 10
0.0000
 20
0.0000
 30
0.0000
 40
0.0635
 41
0.0635
 70
0
  0
VERTEX
  8
102
 10
67.7318
 20
24.8000
 30
0.0000
 42
1.0000
  0
VERTEX
  8
102
 10
67.6683
 20
24.8000
 30
0.0000
  0
SEQEND
  8
0
  0
POLYLINE
  8
102
 66
1
 10
0.0000
 20
0.0000
 30
0.0000
 40
0.1270
 41
0.1270
 70
0
  0
VERTEX
  8
102
 10
67.7000
 20
13.4000
 30
0.0000
  0
VERTEX
  8
102
 10
55.7000
 20
13.4000
 30
0.0000
  0
SEQEND
  8
0
  0
POLYLINE
  8
102
 66
1
 10
0.0000
 20
0.0000
 30
0.0000
 40
0.0635
 41
0.0635
 70
0
  0
VERTEX
  8
102
 10
55.7000
 20
13.4318
 30
0.0000
 42
1.0000
  0
VERTEX
  8
102
 10
55.7000
 20
13.3682
 30
0.0000
  0
SEQEND
  8
0
  0
POLYLINE
  8
102
 66
1
 10
0.0000
 20
0.0000
 30
0.0000
 40
0.0635
 41
0.0635
 70
0
  0
VERTEX
  8
102
 10
67.7000
 20
13.3682
 30
0.0000
 42
1.0000
  0
VERTEX
  8
102
 10
67.7000
 20
13.4318
 30
0.0000
  0
SEQEND
  8
0
  0
POLYLINE
  8
102
 66
1
 10
0.0000
 20
0.0000
 30
0.0000
 40
0.1270
 41
0.1270
 70
0
  0
VERTEX
  8
102
 10
55.7000
 20
13.4000
 30
0.0000
  0
VERTEX
  8
102
 10
55.7000
 20
24.8000
 30
0.0000
  0
SEQEND
  8
0
  0
POLYLINE
  8
102
 66
1
 10
0.0000
 20
0.0000
 30
0.0000
 40
0.0635
 41
0.0635
 70
0
  0
VERTEX
  8
102
 10
55.7318
 20
24.8000
 30
0.0000
 42
1.0000
  0
VERTEX
  8
102
 10
55.6683
 20
24.8000
 30
0.0000
  0
SEQEND
  8
0
  0
POLYLINE
  8
102
 66
1
 10
0.0000
 20
0.0000
 30
0.0000
 40
0.0635
 41
0.0635
 70
0
  0
VERTEX
  8
102
 10
55.6683
 20
13.4000
 30
0.0000
 42
1.0000
  0
VERTEX
  8
102
 10
55.7318
 20
13.4000
 30
0.0000
  0
SEQEND
  8
0
  0
POLYLINE
  8
102
 66
1
 10
0.0000
 20
0.0000
 30
0.0000
 40
0.1270
 41
0.1270
 70
0
  0
VERTEX
  8
102
 10
74.7000
 20
24.8000
 30
0.0000
  0
VERTEX
  8
102
 10
86.7000
 20
24.8000
 30
0.0000
  0
SEQEND
  8
0
  0
POLYLINE
  8
102
 66
1
 10
0.0000
 20
0.0000
 30
0.0000
 40
0.0635
 41
0.0635
 70
0
  0
VERTEX
  8
102
 10
86.7000
 20
24.7683
 30
0.0000
 42
1.0000
  0
VERTEX
  8
102
 10
86.7000
 20
24.8317
 30
0.0000
  0
SEQEND
  8
0
  0
POLYLINE
  8
102
 66
1
 10
0.0000
 20
0.0000
 30
0.0000
 40
0.0635
 41
0.0635
 70
0
  0
VERTEX
  8
102
 10
74.7000
 20
24.8317
 30
0.0000
 42
1.0000
  0
VERTEX
  8
102
 10
74.7000
 20
24.7683
 30
0.0000
  0
SEQEND
  8
0
  0
POLYLINE
  8
102
 66
1
 10
0.0000
 20
0.0000
 30
0.0000
 40
0.1270
 41
0.1270
 70
0
  0
VERTEX
  8
102
 10
86.7000
 20
24.8000
 30
0.0000
  0
VERTEX
  8
102
 10
86.7000
 20
13.4000
 30
0.0000
  0
SEQEND
  8
0
  0
POLYLINE
  8
102
 66
1
 10
0.0000
 20
0.0000
 30
0.0000
 40
0.0635
 41
0.0635
 70
0
  0
VERTEX
  8
102
 10
86.6683
 20
13.4000
 30
0.0000
 42
1.0000
  0
VERTEX
  8
102
 10
86.7318
 20
13.4000
 30
0.0000
  0
SEQEND
  8
0
  0
POLYLINE
  8
102
 66
1
 10
0.0000
 20
0.0000
 30
0.0000
 40
0.0635
 41
0.0635
 70
0
  0
VERTEX
  8
102
 10
86.7318
 20
24.8000
 30
0.0000
 42
1.0000
  0
VERTEX
  8
102
 10
86.6683
 20
24.8000
 30
0.0000
  0
SEQEND
  8
0
  0
POLYLINE
  8
102
 66
1
 10
0.0000
 20
0.0000
 30
0.0000
 40
0.1270
 41
0.1270
 70
0
  0
VERTEX
  8
102
 10
86.7000
 20
13.4000
 30
0.0000
  0
VERTEX
  8
102
 10
74.7000
 20
13.4000
 30
0.0000
  0
SEQEND
  8
0
  0
POLYLINE
  8
102
 66
1
 10
0.0000
 20
0.0000
 30
0.0000
 40
0.0635
 41
0.0635
 70
0
  0
VERTEX
  8
102
 10
74.7000
 20
13.4318
 30
0.0000
 42
1.0000
  0
VERTEX
  8
102
 10
74.7000
 20
13.3682
 30
0.0000
  0
SEQEND
  8
0
  0
POLYLINE
  8
102
 66
1
 10
0.0000
 20
0.0000
 30
0.0000
 40
0.0635
 41
0.0635
 70
0
  0
VERTEX
  8
102
 10
86.7000
 20
13.3682
 30
0.0000
 42
1.0000
  0
VERTEX
  8
102
 10
86.7000
 20
13.4318
 30
0.0000
  0
SEQEND
  8
0
  0
POLYLINE
  8
102
 66
1
 10
0.0000
 20
0.0000
 30
0.0000
 40
0.1270
 41
0.1270
 70
0
  0
VERTEX
  8
102
 10
74.7000
 20
13.4000
 30
0.0000
  0
VERTEX
  8
102
 10
74.7000
 20
24.8000
 30
0.0000
  0
SEQEND
  8
0
  0
POLYLINE
  8
102
 66
1
 10
0.0000
 20
0.0000
 30
0.0000
 40
0.0635
 41
0.0635
 70
0
  0
VERTEX
  8
102
 10
74.7318
 20
24.8000
 30
0.0000
 42
1.0000
  0
VERTEX
  8
102
 10
74.6683
 20
24.8000
 30
0.0000
  0
SEQEND
  8
0
  0
POLYLINE
  8
102
 66
1
 10
0.0000
 20
0.0000
 30
0.0000
 40
0.0635
 41
0.0635
 70
0
  0
VERTEX
  8
102
 10
74.6683
 20
13.4000
 30
0.0000
 42
1.0000
  0
VERTEX
  8
102
 10
74.7318
 20
13.4000
 30
0.0000
  0
SEQEND
  8
0
  0
POLYLINE
  8
102
 66
1
 10
0.0000
 20
0.0000
 30
0.0000
 40
0.1270
 41
0.1270
 70
0
  0
VERTEX
  8
102
 10
93.7000
 20
24.8000
 30
0.0000
  0
VERTEX
  8
102
 10
105.7000
 20
24.8000
 30
0.0000
  0
SEQEND
  8
0
  0
POLYLINE
  8
102
 66
1
 10
0.0000
 20
0.0000
 30
0.0000
 40
0.0635
 41
0.0635
 70
0
  0
VERTEX
  8
102
 10
105.7000
 20
24.7683
 30
0.0000
 42
1.0000
  0
VERTEX
  8
102
 10
105.7000
 20
24.8317
 30
0.0000
  0
SEQEND
  8
0
  0
POLYLINE
  8
102
 66
1
 10
0.0000
 20
0.0000
 30
0.0000
 40
0.0635
 41
0.0635
 70
0
  0
VERTEX
  8
102
 10
93.7000
 20
24.8317
 30
0.0000
 42
1.0000
  0
VERTEX
  8
102
 10
93.7000
 20
24.7683
 30
0.0000
  0
SEQEND
  8
0
  0
POLYLINE
  8
102
 66
1
 10
0.0000
 20
0.0000
 30
0.0000
 40
0.1270
 41
0.1270
 70
0
  0
VERTEX
  8
102
 10
105.7000
 20
24.8000
 30
0.0000
  0
VERTEX
  8
102
 10
105.7000
 20
13.4000
 30
0.0000
  0
SEQEND
  8
0
  0
POLYLINE
  8
102
 66
1
 10
0.0000
 20
0.0000
 30
0.0000
 40
0.0635
 41
0.0635
 70
0
  0
VERTEX
  8
102
 10
105.6683
 20
13.4000
 30
0.0000
 42
1.0000
  0
VERTEX
  8
102
 10
105.7318
 20
13.4000
 30
0.0000
  0
SEQEND
  8
0
  0
POLYLINE
  8
102
 66
1
 10
0.0000
 20
0.0000
 30
0.0000
 40
0.0635
 41
0.0635
 70
0
  0
VERTEX
  8
102
 10
105.7318
 20
24.8000
 30
0.0000
 42
1.0000
  0
VERTEX
  8
102
 10
105.6683
 20
24.8000
 30
0.0000
  0
SEQEND
  8
0
  0
POLYLINE
  8
102
 66
1
 10
0.0000
 20
0.0000
 30
0.0000
 40
0.1270
 41
0.1270
 70
0
  0
VERTEX
  8
102
 10
105.7000
 20
13.4000
 30
0.0000
  0
VERTEX
  8
102
 10
93.7000
 20
13.4000
 30
0.0000
  0
SEQEND
  8
0
  0
POLYLINE
  8
102
 66
1
 10
0.0000
 20
0.0000
 30
0.0000
 40
0.0635
 41
0.0635
 70
0
  0
VERTEX
  8
102
 10
93.7000
 20
13.4318
 30
0.0000
 42
1.0000
  0
VERTEX
  8
102
 10
93.7000
 20
13.3682
 30
0.0000
  0
SEQEND
  8
0
  0
POLYLINE
  8
102
 66
1
 10
0.0000
 20
0.0000
 30
0.0000
 40
0.0635
 41
0.0635
 70
0
  0
VERTEX
  8
102
 10
105.7000
 20
13.3682
 30
0.0000
 42
1.0000
  0
VERTEX
  8
102
 10
105.7000
 20
13.4318
 30
0.0000
  0
SEQEND
  8
0
  0
POLYLINE
  8
102
 66
1
 10
0.0000
 20
0.0000
 30
0.0000
 40
0.1270
 41
0.1270
 70
0
  0
VERTEX
  8
102
 10
93.7000
 20
13.4000
 30
0.0000
  0
VERTEX
  8
102
 10
93.7000
 20
24.8000
 30
0.0000
  0
SEQEND
  8
0
  0
POLYLINE
  8
102
 66
1
 10
0.0000
 20
0.0000
 30
0.0000
 40
0.0635
 41
0.0635
 70
0
  0
VERTEX
  8
102
 10
93.7318
 20
24.8000
 30
0.0000
 42
1.0000
  0
VERTEX
  8
102
 10
93.6683
 20
24.8000
 30
0.0000
  0
SEQEND
  8
0
  0
POLYLINE
  8
102
 66
1
 10
0.0000
 20
0.0000
 30
0.0000
 40
0.0635
 41
0.0635
 70
0
  0
VERTEX
  8
102
 10
93.6683
 20
13.4000
 30
0.0000
 42
1.0000
  0
VERTEX
  8
102
 10
93.7318
 20
13.4000
 30
0.0000
  0
SEQEND
  8
0
  0
POLYLINE
  8
102
 66
1
 10
0.0000
 20
0.0000
 30
0.0000
 40
0.1270
 41
0.1270
 70
0
  0
VERTEX
  8
102
 10
112.7000
 20
24.8000
 30
0.0000
  0
VERTEX
  8
102
 10
124.7000
 20
24.8000
 30
0.0000
  0
SEQEND
  8
0
  0
POLYLINE
  8
102
 66
1
 10
0.0000
 20
0.0000
 30
0.0000
 40
0.0635
 41
0.0635
 70
0
  0
VERTEX
  8
102
 10
124.7000
 20
24.7683
 30
0.0000
 42
1.0000
  0
VERTEX
  8
102
 10
124.7000
 20
24.8317
 30
0.0000
  0
SEQEND
  8
0
  0
POLYLINE
  8
102
 66
1
 10
0.0000
 20
0.0000
 30
0.0000
 40
0.0635
 41
0.0635
 70
0
  0
VERTEX
  8
102
 10
112.7000
 20
24.8317
 30
0.0000
 42
1.0000
  0
VERTEX
  8
102
 10
112.7000
 20
24.7683
 30
0.0000
  0
SEQEND
  8
0
  0
POLYLINE
  8
102
 66
1
 10
0.0000
 20
0.0000
 30
0.0000
 40
0.1270
 41
0.1270
 70
0
  0
VERTEX
  8
102
 10
124.7000
 20
24.8000
 30
0.0000
  0
VERTEX
  8
102
 10
124.7000
 20
13.4000
 30
0.0000
  0
SEQEND
  8
0
  0
POLYLINE
  8
102
 66
1
 10
0.0000
 20
0.0000
 30
0.0000
 40
0.0635
 41
0.0635
 70
0
  0
VERTEX
  8
102
 10
124.6683
 20
13.4000
 30
0.0000
 42
1.0000
  0
VERTEX
  8
102
 10
124.7318
 20
13.4000
 30
0.0000
  0
SEQEND
  8
0
  0
POLYLINE
  8
102
 66
1
 10
0.0000
 20
0.0000
 30
0.0000
 40
0.0635
 41
0.0635
 70
0
  0
VERTEX
  8
102
 10
124.7318
 20
24.8000
 30
0.0000
 42
1.0000
  0
VERTEX
  8
102
 10
124.6683
 20
24.8000
 30
0.0000
  0
SEQEND
  8
0
  0
POLYLINE
  8
102
 66
1
 10
0.0000
 20
0.0000
 30
0.0000
 40
0.1270
 41
0.1270
 70
0
  0
VERTEX
  8
102
 10
124.7000
 20
13.4000
 30
0.0000
  0
VERTEX
  8
102
 10
112.7000
 20
13.4000
 30
0.0000
  0
SEQEND
  8
0
  0
POLYLINE
  8
102
 66
1
 10
0.0000
 20
0.0000
 30
0.0000
 40
0.0635
 41
0.0635
 70
0
  0
VERTEX
  8
102
 10
112.7000
 20
13.4318
 30
0.0000
 42
1.0000
  0
VERTEX
  8
102
 10
112.7000
 20
13.3682
 30
0.0000
  0
SEQEND
  8
0
  0
POLYLINE
  8
102
 66
1
 10
0.0000
 20
0.0000
 30
0.0000
 40
0.0635
 41
0.0635
 70
0
  0
VERTEX
  8
102
 10
124.7000
 20
13.3682
 30
0.0000
 42
1.0000
  0
VERTEX
  8
102
 10
124.7000
 20
13.4318
 30
0.0000
  0
SEQEND
  8
0
  0
POLYLINE
  8
102
 66
1
 10
0.0000
 20
0.0000
 30
0.0000
 40
0.1270
 41
0.1270
 70
0
  0
VERTEX
  8
102
 10
112.7000
 20
13.4000
 30
0.0000
  0
VERTEX
  8
102
 10
112.7000
 20
24.8000
 30
0.0000
  0
SEQEND
  8
0
  0
POLYLINE
  8
102
 66
1
 10
0.0000
 20
0.0000
 30
0.0000
 40
0.0635
 41
0.0635
 70
0
  0
VERTEX
  8
102
 10
112.7318
 20
24.8000
 30
0.0000
 42
1.0000
  0
VERTEX
  8
102
 10
112.6683
 20
24.8000
 30
0.0000
  0
SEQEND
  8
0
  0
POLYLINE
  8
102
 66
1
 10
0.0000
 20
0.0000
 30
0.0000
 40
0.0635
 41
0.0635
 70
0
  0
VERTEX
  8
102
 10
112.6683
 20
13.4000
 30
0.0000
 42
1.0000
  0
VERTEX
  8
102
 10
112.7318
 20
13.4000
 30
0.0000
  0
SEQEND
  8
0
  0
POLYLINE
  8
102
 66
1
 10
0.0000
 20
0.0000
 30
0.0000
 40
0.1270
 41
0.1270
 70
0
  0
VERTEX
  8
102
 10
131.7000
 20
24.8000
 30
0.0000
  0
VERTEX
  8
102
 10
143.7000
 20
24.8000
 30
0.0000
  0
SEQEND
  8
0
  0
POLYLINE
  8
102
 66
1
 10
0.0000
 20
0.0000
 30
0.0000
 40
0.0635
 41
0.0635
 70
0
  0
VERTEX
  8
102
 10
143.7000
 20
24.7683
 30
0.0000
 42
1.0000
  0
VERTEX
  8
102
 10
143.7000
 20
24.8317
 30
0.0000
  0
SEQEND
  8
0
  0
POLYLINE
  8
102
 66
1
 10
0.0000
 20
0.0000
 30
0.0000
 40
0.0635
 41
0.0635
 70
0
  0
VERTEX
  8
102
 10
131.7000
 20
24.8317
 30
0.0000
 42
1.0000
  0
VERTEX
  8
102
 10
131.7000
 20
24.7683
 30
0.0000
  0
SEQEND
  8
0
  0
POLYLINE
  8
102
 66
1
 10
0.0000
 20
0.0000
 30
0.0000
 40
0.1270
 41
0.1270
 70
0
  0
VERTEX
  8
102
 10
143.7000
 20
24.8000
 30
0.0000
  0
VERTEX
  8
102
 10
143.7000
 20
13.4000
 30
0.0000
  0
SEQEND
  8
0
  0
POLYLINE
  8
102
 66
1
 10
0.0000
 20
0.0000
 30
0.0000
 40
0.0635
 41
0.0635
 70
0
  0
VERTEX
  8
102
 10
143.6683
 20
13.4000
 30
0.0000
 42
1.0000
  0
VERTEX
  8
102
 10
143.7318
 20
13.4000
 30
0.0000
  0
SEQEND
  8
0
  0
POLYLINE
  8
102
 66
1
 10
0.0000
 20
0.0000
 30
0.0000
 40
0.0635
 41
0.0635
 70
0
  0
VERTEX
  8
102
 10
143.7318
 20
24.8000
 30
0.0000
 42
1.0000
  0
VERTEX
  8
102
 10
143.6683
 20
24.8000
 30
0.0000
  0
SEQEND
  8
0
  0
POLYLINE
  8
102
 66
1
 10
0.0000
 20
0.0000
 30
0.0000
 40
0.1270
 41
0.1270
 70
0
  0
VERTEX
  8
102
 10
143.7000
 20
13.4000
 30
0.0000
  0
VERTEX
  8
102
 10
131.7000
 20
13.4000
 30
0.0000
  0
SEQEND
  8
0
  0
POLYLINE
  8
102
 66
1
 10
0.0000
 20
0.0000
 30
0.0000
 40
0.0635
 41
0.0635
 70
0
  0
VERTEX
  8
102
 10
131.7000
 20
13.4318
 30
0.0000
 42
1.0000
  0
VERTEX
  8
102
 10
131.7000
 20
13.3682
 30
0.0000
  0
SEQEND
  8
0
  0
POLYLINE
  8
102
 66
1
 10
0.0000
 20
0.0000
 30
0.0000
 40
0.0635
 41
0.0635
 70
0
  0
VERTEX
  8
102
 10
143.7000
 20
13.3682
 30
0.0000
 42
1.0000
  0
VERTEX
  8
102
 10
143.7000
 20
13.4318
 30
0.0000
  0
SEQEND
  8
0
  0
POLYLINE
  8
102
 66
1
 10
0.0000
 20
0.0000
 30
0.0000
 40
0.1270
 41
0.1270
 70
0
  0
VERTEX
  8
102
 10
131.7000
 20
13.4000
 30
0.0000
  0
VERTEX
  8
102
 10
131.7000
 20
24.8000
 30
0.0000
  0
SEQEND
  8
0
  0
POLYLINE
  8
102
 66
1
 10
0.0000
 20
0.0000
 30
0.0000
 40
0.0635
 41
0.0635
 70
0
  0
VERTEX
  8
102
 10
131.7318
 20
24.8000
 30
0.0000
 42
1.0000
  0
VERTEX
  8
102
 10
131.6683
 20
24.8000
 30
0.0000
  0
SEQEND
  8
0
  0
POLYLINE
  8
102
 66
1
 10
0.0000
 20
0.0000
 30
0.0000
 40
0.0635
 41
0.0635
 70
0
  0
VERTEX
  8
102
 10
131.6683
 20
13.4000
 30
0.0000
 42
1.0000
  0
VERTEX
  8
102
 10
131.7318
 20
13.4000
 30
0.0000
  0
SEQEND
  8
0
  0
POLYLINE
  8
102
 66
1
 10
0.0000
 20
0.0000
 30
0.0000
 40
0.1270
 41
0.1270
 70
0
  0
VERTEX
  8
102
 10
150.7000
 20
24.8000
 30
0.0000
  0
VERTEX
  8
102
 10
162.7000
 20
24.8000
 30
0.0000
  0
SEQEND
  8
0
  0
POLYLINE
  8
102
 66
1
 10
0.0000
 20
0.0000
 30
0.0000
 40
0.0635
 41
0.0635
 70
0
  0
VERTEX
  8
102
 10
162.7000
 20
24.7683
 30
0.0000
 42
1.0000
  0
VERTEX
  8
102
 10
162.7000
 20
24.8317
 30
0.0000
  0
SEQEND
  8
0
  0
POLYLINE
  8
102
 66
1
 10
0.0000
 20
0.0000
 30
0.0000
 40
0.0635
 41
0.0635
 70
0
  0
VERTEX
  8
102
 10
150.7000
 20
24.8317
 30
0.0000
 42
1.0000
  0
VERTEX
  8
102
 10
150.7000
 20
24.7683
 30
0.0000
  0
SEQEND
  8
0
  0
POLYLINE
  8
102
 66
1
 10
0.0000
 20
0.0000
 30
0.0000
 40
0.1270
 41
0.1270
 70
0
  0
VERTEX
  8
102
 10
162.7000
 20
24.8000
 30
0.0000
  0
VERTEX
  8
102
 10
162.7000
 20
13.4000
 30
0.0000
  0
SEQEND
  8
0
  0
POLYLINE
  8
102
 66
1
 10
0.0000
 20
0.0000
 30
0.0000
 40
0.0635
 41
0.0635
 70
0
  0
VERTEX
  8
102
 10
162.6683
 20
13.4000
 30
0.0000
 42
1.0000
  0
VERTEX
  8
102
 10
162.7318
 20
13.4000
 30
0.0000
  0
SEQEND
  8
0
  0
POLYLINE
  8
102
 66
1
 10
0.0000
 20
0.0000
 30
0.0000
 40
0.0635
 41
0.0635
 70
0
  0
VERTEX
  8
102
 10
162.7318
 20
24.8000
 30
0.0000
 42
1.0000
  0
VERTEX
  8
102
 10
162.6683
 20
24.8000
 30
0.0000
  0
SEQEND
  8
0
  0
POLYLINE
  8
102
 66
1
 10
0.0000
 20
0.0000
 30
0.0000
 40
0.1270
 41
0.1270
 70
0
  0
VERTEX
  8
102
 10
162.7000
 20
13.4000
 30
0.0000
  0
VERTEX
  8
102
 10
150.7000
 20
13.4000
 30
0.0000
  0
SEQEND
  8
0
  0
POLYLINE
  8
102
 66
1
 10
0.0000
 20
0.0000
 30
0.0000
 40
0.0635
 41
0.0635
 70
0
  0
VERTEX
  8
102
 10
150.7000
 20
13.4318
 30
0.0000
 42
1.0000
  0
VERTEX
  8
102
 10
150.7000
 20
13.3682
 30
0.0000
  0
SEQEND
  8
0
  0
POLYLINE
  8
102
 66
1
 10
0.0000
 20
0.0000
 30
0.0000
 40
0.0635
 41
0.0635
 70
0
  0
VERTEX
  8
102
 10
162.7000
 20
13.3682
 30
0.0000
 42
1.0000
  0
VERTEX
  8
102
 10
162.7000
 20
13.4318
 30
0.0000
  0
SEQEND
  8
0
  0
POLYLINE
  8
102
 66
1
 10
0.0000
 20
0.0000
 30
0.0000
 40
0.1270
 41
0.1270
 70
0
  0
VERTEX
  8
102
 10
150.7000
 20
13.4000
 30
0.0000
  0
VERTEX
  8
102
 10
150.7000
 20
24.8000
 30
0.0000
  0
SEQEND
  8
0
  0
POLYLINE
  8
102
 66
1
 10
0.0000
 20
0.0000
 30
0.0000
 40
0.0635
 41
0.0635
 70
0
  0
VERTEX
  8
102
 10
150.7318
 20
24.8000
 30
0.0000
 42
1.0000
  0
VERTEX
  8
102
 10
150.6683
 20
24.8000
 30
0.0000
  0
SEQEND
  8
0
  0
POLYLINE
  8
102
 66
1
 10
0.0000
 20
0.0000
 30
0.0000
 40
0.0635
 41
0.0635
 70
0
  0
VERTEX
  8
102
 10
150.6683
 20
13.4000
 30
0.0000
 42
1.0000
  0
VERTEX
  8
102
 10
150.7318
 20
13.4000
 30
0.0000
  0
SEQEND
  8
0
  0
POLYLINE
  8
102
 66
1
 10
0.0000
 20
0.0000
 30
0.0000
 40
0.1270
 41
0.1270
 70
0
  0
VERTEX
  8
102
 10
169.7000
 20
24.8000
 30
0.0000
  0
VERTEX
  8
102
 10
181.7000
 20
24.8000
 30
0.0000
  0
SEQEND
  8
0
  0
POLYLINE
  8
102
 66
1
 10
0.0000
 20
0.0000
 30
0.0000
 40
0.0635
 41
0.0635
 70
0
  0
VERTEX
  8
102
 10
181.7000
 20
24.7683
 30
0.0000
 42
1.0000
  0
VERTEX
  8
102
 10
181.7000
 20
24.8317
 30
0.0000
  0
SEQEND
  8
0
  0
POLYLINE
  8
102
 66
1
 10
0.0000
 20
0.0000
 30
0.0000
 40
0.0635
 41
0.0635
 70
0
  0
VERTEX
  8
102
 10
169.7000
 20
24.8317
 30
0.0000
 42
1.0000
  0
VERTEX
  8
102
 10
169.7000
 20
24.7683
 30
0.0000
  0
SEQEND
  8
0
  0
POLYLINE
  8
102
 66
1
 10
0.0000
 20
0.0000
 30
0.0000
 40
0.1270
 41
0.1270
 70
0
  0
VERTEX
  8
102
 10
181.7000
 20
24.8000
 30
0.0000
  0
VERTEX
  8
102
 10
181.7000
 20
13.4000
 30
0.0000
  0
SEQEND
  8
0
  0
POLYLINE
  8
102
 66
1
 10
0.0000
 20
0.0000
 30
0.0000
 40
0.0635
 41
0.0635
 70
0
  0
VERTEX
  8
102
 10
181.6683
 20
13.4000
 30
0.0000
 42
1.0000
  0
VERTEX
  8
102
 10
181.7318
 20
13.4000
 30
0.0000
  0
SEQEND
  8
0
  0
POLYLINE
  8
102
 66
1
 10
0.0000
 20
0.0000
 30
0.0000
 40
0.0635
 41
0.0635
 70
0
  0
VERTEX
  8
102
 10
181.7318
 20
24.8000
 30
0.0000
 42
1.0000
  0
VERTEX
  8
102
 10
181.6683
 20
24.8000
 30
0.0000
  0
SEQEND
  8
0
  0
POLYLINE
  8
102
 66
1
 10
0.0000
 20
0.0000
 30
0.0000
 40
0.1270
 41
0.1270
 70
0
  0
VERTEX
  8
102
 10
181.7000
 20
13.4000
 30
0.0000
  0
VERTEX
  8
102
 10
169.7000
 20
13.4000
 30
0.0000
  0
SEQEND
  8
0
  0
POLYLINE
  8
102
 66
1
 10
0.0000
 20
0.0000
 30
0.0000
 40
0.0635
 41
0.0635
 70
0
  0
VERTEX
  8
102
 10
169.7000
 20
13.4318
 30
0.0000
 42
1.0000
  0
VERTEX
  8
102
 10
169.7000
 20
13.3682
 30
0.0000
  0
SEQEND
  8
0
  0
POLYLINE
  8
102
 66
1
 10
0.0000
 20
0.0000
 30
0.0000
 40
0.0635
 41
0.0635
 70
0
  0
VERTEX
  8
102
 10
181.7000
 20
13.3682
 30
0.0000
 42
1.0000
  0
VERTEX
  8
102
 10
181.7000
 20
13.4318
 30
0.0000
  0
SEQEND
  8
0
  0
POLYLINE
  8
102
 66
1
 10
0.0000
 20
0.0000
 30
0.0000
 40
0.1270
 41
0.1270
 70
0
  0
VERTEX
  8
102
 10
169.7000
 20
13.4000
 30
0.0000
  0
VERTEX
  8
102
 10
169.7000
 20
24.8000
 30
0.0000
  0
SEQEND
  8
0
  0
POLYLINE
  8
102
 66
1
 10
0.0000
 20
0.0000
 30
0.0000
 40
0.0635
 41
0.0635
 70
0
  0
VERTEX
  8
102
 10
169.7318
 20
24.8000
 30
0.0000
 42
1.0000
  0
VERTEX
  8
102
 10
169.6683
 20
24.8000
 30
0.0000
  0
SEQEND
  8
0
  0
POLYLINE
  8
102
 66
1
 10
0.0000
 20
0.0000
 30
0.0000
 40
0.0635
 41
0.0635
 70
0
  0
VERTEX
  8
102
 10
169.6683
 20
13.4000
 30
0.0000
 42
1.0000
  0
VERTEX
  8
102
 10
169.7318
 20
13.4000
 30
0.0000
  0
SEQEND
  8
0
  0
POLYLINE
  8
102
 66
1
 10
0.0000
 20
0.0000
 30
0.0000
 40
0.1270
 41
0.1270
 70
0
  0
VERTEX
  8
102
 10
188.7000
 20
24.8000
 30
0.0000
  0
VERTEX
  8
102
 10
200.7000
 20
24.8000
 30
0.0000
  0
SEQEND
  8
0
  0
POLYLINE
  8
102
 66
1
 10
0.0000
 20
0.0000
 30
0.0000
 40
0.0635
 41
0.0635
 70
0
  0
VERTEX
  8
102
 10
200.7000
 20
24.7683
 30
0.0000
 42
1.0000
  0
VERTEX
  8
102
 10
200.7000
 20
24.8317
 30
0.0000
  0
SEQEND
  8
0
  0
POLYLINE
  8
102
 66
1
 10
0.0000
 20
0.0000
 30
0.0000
 40
0.0635
 41
0.0635
 70
0
  0
VERTEX
  8
102
 10
188.7000
 20
24.8317
 30
0.0000
 42
1.0000
  0
VERTEX
  8
102
 10
188.7000
 20
24.7683
 30
0.0000
  0
SEQEND
  8
0
  0
POLYLINE
  8
102
 66
1
 10
0.0000
 20
0.0000
 30
0.0000
 40
0.1270
 41
0.1270
 70
0
  0
VERTEX
  8
102
 10
200.7000
 20
24.8000
 30
0.0000
  0
VERTEX
  8
102
 10
200.7000
 20
13.4000
 30
0.0000
  0
SEQEND
  8
0
  0
POLYLINE
  8
102
 66
1
 10
0.0000
 20
0.0000
 30
0.0000
 40
0.0635
 41
0.0635
 70
0
  0
VERTEX
  8
102
 10
200.6683
 20
13.4000
 30
0.0000
 42
1.0000
  0
VERTEX
  8
102
 10
200.7318
 20
13.4000
 30
0.0000
  0
SEQEND
  8
0
  0
POLYLINE
  8
102
 66
1
 10
0.0000
 20
0.0000
 30
0.0000
 40
0.0635
 41
0.0635
 70
0
  0
VERTEX
  8
102
 10
200.7318
 20
24.8000
 30
0.0000
 42
1.0000
  0
VERTEX
  8
102
 10
200.6683
 20
24.8000
 30
0.0000
  0
SEQEND
  8
0
  0
POLYLINE
  8
102
 66
1
 10
0.0000
 20
0.0000
 30
0.0000
 40
0.1270
 41
0.1270
 70
0
  0
VERTEX
  8
102
 10
200.7000
 20
13.4000
 30
0.0000
  0
VERTEX
  8
102
 10
188.7000
 20
13.4000
 30
0.0000
  0
SEQEND
  8
0
  0
POLYLINE
  8
102
 66
1
 10
0.0000
 20
0.0000
 30
0.0000
 40
0.0635
 41
0.0635
 70
0
  0
VERTEX
  8
102
 10
188.7000
 20
13.4318
 30
0.0000
 42
1.0000
  0
VERTEX
  8
102
 10
188.7000
 20
13.3682
 30
0.0000
  0
SEQEND
  8
0
  0
POLYLINE
  8
102
 66
1
 10
0.0000
 20
0.0000
 30
0.0000
 40
0.0635
 41
0.0635
 70
0
  0
VERTEX
  8
102
 10
200.7000
 20
13.3682
 30
0.0000
 42
1.0000
  0
VERTEX
  8
102
 10
200.7000
 20
13.4318
 30
0.0000
  0
SEQEND
  8
0
  0
POLYLINE
  8
102
 66
1
 10
0.0000
 20
0.0000
 30
0.0000
 40
0.1270
 41
0.1270
 70
0
  0
VERTEX
  8
102
 10
188.7000
 20
13.4000
 30
0.0000
  0
VERTEX
  8
102
 10
188.7000
 20
24.8000
 30
0.0000
  0
SEQEND
  8
0
  0
POLYLINE
  8
102
 66
1
 10
0.0000
 20
0.0000
 30
0.0000
 40
0.0635
 41
0.0635
 70
0
  0
VERTEX
  8
102
 10
188.7318
 20
24.8000
 30
0.0000
 42
1.0000
  0
VERTEX
  8
102
 10
188.6683
 20
24.8000
 30
0.0000
  0
SEQEND
  8
0
  0
POLYLINE
  8
102
 66
1
 10
0.0000
 20
0.0000
 30
0.0000
 40
0.0635
 41
0.0635
 70
0
  0
VERTEX
  8
102
 10
188.6683
 20
13.4000
 30
0.0000
 42
1.0000
  0
VERTEX
  8
102
 10
188.7318
 20
13.4000
 30
0.0000
  0
SEQEND
  8
0
  0
POLYLINE
  8
102
 66
1
 10
0.0000
 20
0.0000
 30
0.0000
 40
0.1270
 41
0.1270
 70
0
  0
VERTEX
  8
102
 10
219.5500
 20
24.8000
 30
0.0000
  0
VERTEX
  8
102
 10
231.5500
 20
24.8000
 30
0.0000
  0
SEQEND
  8
0
  0
POLYLINE
  8
102
 66
1
 10
0.0000
 20
0.0000
 30
0.0000
 40
0.0635
 41
0.0635
 70
0
  0
VERTEX
  8
102
 10
231.5500
 20
24.7683
 30
0.0000
 42
1.0000
  0
VERTEX
  8
102
 10
231.5500
 20
24.8317
 30
0.0000
  0
SEQEND
  8
0
  0
POLYLINE
  8
102
 66
1
 10
0.0000
 20
0.0000
 30
0.0000
 40
0.0635
 41
0.0635
 70
0
  0
VERTEX
  8
102
 10
219.5500
 20
24.8317
 30
0.0000
 42
1.0000
  0
VERTEX
  8
102
 10
219.5500
 20
24.7683
 30
0.0000
  0
SEQEND
  8
0
  0
POLYLINE
  8
102
 66
1
 10
0.0000
 20
0.0000
 30
0.0000
 40
0.1270
 41
0.1270
 70
0
  0
VERTEX
  8
102
 10
231.5500
 20
24.8000
 30
0.0000
  0
VERTEX
  8
102
 10
231.5500
 20
13.4000
 30
0.0000
  0
SEQEND
  8
0
  0
POLYLINE
  8
102
 66
1
 10
0.0000
 20
0.0000
 30
0.0000
 40
0.0635
 41
0.0635
 70
0
  0
VERTEX
  8
102
 10
231.5183
 20
13.4000
 30
0.0000
 42
1.0000
  0
VERTEX
  8
102
 10
231.5817
 20
13.4000
 30
0.0000
  0
SEQEND
  8
0
  0
POLYLINE
  8
102
 66
1
 10
0.0000
 20
0.0000
 30
0.0000
 40
0.0635
 41
0.0635
 70
0
  0
VERTEX
  8
102
 10
231.5817
 20
24.8000
 30
0.0000
 42
1.0000
  0
VERTEX
  8
102
 10
231.5183
 20
24.8000
 30
0.0000
  0
SEQEND
  8
0
  0
POLYLINE
  8
102
 66
1
 10
0.0000
 20
0.0000
 30
0.0000
 40
0.1270
 41
0.1270
 70
0
  0
VERTEX
  8
102
 10
231.5500
 20
13.4000
 30
0.0000
  0
VERTEX
  8
102
 10
219.5500
 20
13.4000
 30
0.0000
  0
SEQEND
  8
0
  0
POLYLINE
  8
102
 66
1
 10
0.0000
 20
0.0000
 30
0.0000
 40
0.0635
 41
0.0635
 70
0
  0
VERTEX
  8
102
 10
219.5500
 20
13.4318
 30
0.0000
 42
1.0000
  0
VERTEX
  8
102
 10
219.5500
 20
13.3682
 30
0.0000
  0
SEQEND
  8
0
  0
POLYLINE
  8
102
 66
1
 10
0.0000
 20
0.0000
 30
0.0000
 40
0.0635
 41
0.0635
 70
0
  0
VERTEX
  8
102
 10
231.5500
 20
13.3682
 30
0.0000
 42
1.0000
  0
VERTEX
  8
102
 10
231.5500
 20
13.4318
 30
0.0000
  0
SEQEND
  8
0
  0
POLYLINE
  8
102
 66
1
 10
0.0000
 20
0.0000
 30
0.0000
 40
0.1270
 41
0.1270
 70
0
  0
VERTEX
  8
102
 10
219.5500
 20
13.4000
 30
0.0000
  0
VERTEX
  8
102
 10
219.5500
 20
24.8000
 30
0.0000
  0
SEQEND
  8
0
  0
POLYLINE
  8
102
 66
1
 10
0.0000
 20
0.0000
 30
0.0000
 40
0.0635
 41
0.0635
 70
0
  0
VERTEX
  8
102
 10
219.5817
 20
24.8000
 30
0.0000
 42
1.0000
  0
VERTEX
  8
102
 10
219.5183
 20
24.8000
 30
0.0000
  0
SEQEND
  8
0
  0
POLYLINE
  8
102
 66
1
 10
0.0000
 20
0.0000
 30
0.0000
 40
0.0635
 41
0.0635
 70
0
  0
VERTEX
  8
102
 10
219.5183
 20
13.4000
 30
0.0000
 42
1.0000
  0
VERTEX
  8
102
 10
219.5817
 20
13.4000
 30
0.0000
  0
SEQEND
  8
0
  0
POLYLINE
  8
102
 66
1
 10
0.0000
 20
0.0000
 30
0.0000
 40
0.1270
 41
0.1270
 70
0
  0
VERTEX
  8
102
 10
-6.0000
 20
5.7000
 30
0.0000
  0
VERTEX
  8
102
 10
6.0000
 20
5.7000
 30
0.0000
  0
SEQEND
  8
0
  0
POLYLINE
  8
102
 66
1
 10
0.0000
 20
0.0000
 30
0.0000
 40
0.0635
 41
0.0635
 70
0
  0
VERTEX
  8
102
 10
6.0000
 20
5.6683
 30
0.0000
 42
1.0000
  0
VERTEX
  8
102
 10
6.0000
 20
5.7317
 30
0.0000
  0
SEQEND
  8
0
  0
POLYLINE
  8
102
 66
1
 10
0.0000
 20
0.0000
 30
0.0000
 40
0.0635
 41
0.0635
 70
0
  0
VERTEX
  8
102
 10
-6.0000
 20
5.7317
 30
0.0000
 42
1.0000
  0
VERTEX
  8
102
 10
-6.0000
 20
5.6683
 30
0.0000
  0
SEQEND
  8
0
  0
POLYLINE
  8
102
 66
1
 10
0.0000
 20
0.0000
 30
0.0000
 40
0.1270
 41
0.1270
 70
0
  0
VERTEX
  8
102
 10
6.0000
 20
5.7000
 30
0.0000
  0
VERTEX
  8
102
 10
6.0000
 20
-5.7000
 30
0.0000
  0
SEQEND
  8
0
  0
POLYLINE
  8
102
 66
1
 10
0.0000
 20
0.0000
 30
0.0000
 40
0.0635
 41
0.0635
 70
0
  0
VERTEX
  8
102
 10
5.9683
 20
-5.7000
 30
0.0000
 42
1.0000
  0
VERTEX
  8
102
 10
6.0317
 20
-5.7000
 30
0.0000
  0
SEQEND
  8
0
  0
POLYLINE
  8
102
 66
1
 10
0.0000
 20
0.0000
 30
0.0000
 40
0.0635
 41
0.0635
 70
0
  0
VERTEX
  8
102
 10
6.0317
 20
5.7000
 30
0.0000
 42
1.0000
  0
VERTEX
  8
102
 10
5.9683
 20
5.7000
 30
0.0000
  0
SEQEND
  8
0
  0
POLYLINE
  8
102
 66
1
 10
0.0000
 20
0.0000
 30
0.0000
 40
0.1270
 41
0.1270
 70
0
  0
VERTEX
  8
102
 10
6.0000
 20
-5.7000
 30
0.0000
  0
VERTEX
  8
102
 10
-6.0000
 20
-5.7000
 30
0.0000
  0
SEQEND
  8
0
  0
POLYLINE
  8
102
 66
1
 10
0.0000
 20
0.0000
 30
0.0000
 40
0.0635
 41
0.0635
 70
0
  0
VERTEX
  8
102
 10
-6.0000
 20
-5.6683
 30
0.0000
 42
1.0000
  0
VERTEX
  8
102
 10
-6.0000
 20
-5.7317
 30
0.0000
  0
SEQEND
  8
0
  0
POLYLINE
  8
102
 66
1
 10
0.0000
 20
0.0000
 30
0.0000
 40
0.0635
 41
0.0635
 70
0
  0
VERTEX
  8
102
 10
6.0000
 20
-5.7317
 30
0.0000
 42
1.0000
  0
VERTEX
  8
102
 10
6.0000
 20
-5.6683
 30
0.0000
  0
SEQEND
  8
0
  0
POLYLINE
  8
102
 66
1
 10
0.0000
 20
0.0000
 30
0.0000
 40
0.1270
 41
0.1270
 70
0
  0
VERTEX
  8
102
 10
-6.0000
 20
-5.7000
 30
0.0000
  0
VERTEX
  8
102
 10
-6.0000
 20
5.7000
 30
0.0000
  0
SEQEND
  8
0
  0
POLYLINE
  8
102
 66
1
 10
0.0000
 20
0.0000
 30
0.0000
 40
0.0635
 41
0.0635
 70
0
  0
VERTEX
  8
102
 10
-5.9683
 20
5.7000
 30
0.0000
 42
1.0000
  0
VERTEX
  8
102
 10
-6.0317
 20
5.7000
 30
0.0000
  0
SEQEND
  8
0
  0
POLYLINE
  8
102
 66
1
 10
0.0000
 20
0.0000
 30
0.0000
 40
0.0635
 41
0.0635
 70
0
  0
VERTEX
  8
102
 10
-6.0317
 20
-5.7000
 30
0.0000
 42
1.0000
  0
VERTEX
  8
102
 10
-5.9683
 20
-5.7000
 30
0.0000
  0
SEQEND
  8
0
  0
POLYLINE
  8
102
 66
1
 10
0.0000
 20
0.0000
 30
0.0000
 40
0.1270
 41
0.1270
 70
0
  0
VERTEX
  8
102
 10
13.0000
 20
5.7000
 30
0.0000
  0
VERTEX
  8
102
 10
25.0000
 20
5.7000
 30
0.0000
  0
SEQEND
  8
0
  0
POLYLINE
  8
102
 66
1
 10
0.0000
 20
0.0000
 30
0.0000
 40
0.0635
 41
0.0635
 70
0
  0
VERTEX
  8
102
 10
25.0000
 20
5.6683
 30
0.0000
 42
1.0000
  0
VERTEX
  8
102
 10
25.0000
 20
5.7317
 30
0.0000
  0
SEQEND
  8
0
  0
POLYLINE
  8
102
 66
1
 10
0.0000
 20
0.0000
 30
0.0000
 40
0.0635
 41
0.0635
 70
0
  0
VERTEX
  8
102
 10
13.0000
 20
5.7317
 30
0.0000
 42
1.0000
  0
VERTEX
  8
102
 10
13.0000
 20
5.6683
 30
0.0000
  0
SEQEND
  8
0
  0
POLYLINE
  8
102
 66
1
 10
0.0000
 20
0.0000
 30
0.0000
 40
0.1270
 41
0.1270
 70
0
  0
VERTEX
  8
102
 10
25.0000
 20
5.7000
 30
0.0000
  0
VERTEX
  8
102
 10
25.0000
 20
-5.7000
 30
0.0000
  0
SEQEND
  8
0
  0
POLYLINE
  8
102
 66
1
 10
0.0000
 20
0.0000
 30
0.0000
 40
0.0635
 41
0.0635
 70
0
  0
VERTEX
  8
102
 10
24.9683
 20
-5.7000
 30
0.0000
 42
1.0000
  0
VERTEX
  8
102
 10
25.0317
 20
-5.7000
 30
0.0000
  0
SEQEND
  8
0
  0
POLYLINE
  8
102
 66
1
 10
0.0000
 20
0.0000
 30
0.0000
 40
0.0635
 41
0.0635
 70
0
  0
VERTEX
  8
102
 10
25.0317
 20
5.7000
 30
0.0000
 42
1.0000
  0
VERTEX
  8
102
 10
24.9683
 20
5.7000
 30
0.0000
  0
SEQEND
  8
0
  0
POLYLINE
  8
102
 66
1
 10
0.0000
 20
0.0000
 30
0.0000
 40
0.1270
 41
0.1270
 70
0
  0
VERTEX
  8
102
 10
25.0000
 20
-5.7000
 30
0.0000
  0
VERTEX
  8
102
 10
13.0000
 20
-5.7000
 30
0.0000
  0
SEQEND
  8
0
  0
POLYLINE
  8
102
 66
1
 10
0.0000
 20
0.0000
 30
0.0000
 40
0.0635
 41
0.0635
 70
0
  0
VERTEX
  8
102
 10
13.0000
 20
-5.6683
 30
0.0000
 42
1.0000
  0
VERTEX
  8
102
 10
13.0000
 20
-5.7317
 30
0.0000
  0
SEQEND
  8
0
  0
POLYLINE
  8
102
 66
1
 10
0.0000
 20
0.0000
 30
0.0000
 40
0.0635
 41
0.0635
 70
0
  0
VERTEX
  8
102
 10
25.0000
 20
-5.7317
 30
0.0000
 42
1.0000
  0
VERTEX
  8
102
 10
25.0000
 20
-5.6683
 30
0.0000
  0
SEQEND
  8
0
  0
POLYLINE
  8
102
 66
1
 10
0.0000
 20
0.0000
 30
0.0000
 40
0.1270
 41
0.1270
 70
0
  0
VERTEX
  8
102
 10
13.0000
 20
-5.7000
 30
0.0000
  0
VERTEX
  8
102
 10
13.0000
 20
5.7000
 30
0.0000
  0
SEQEND
  8
0
  0
POLYLINE
  8
102
 66
1
 10
0.0000
 20
0.0000
 30
0.0000
 40
0.0635
 41
0.0635
 70
0
  0
VERTEX
  8
102
 10
13.0318
 20
5.7000
 30
0.0000
 42
1.0000
  0
VERTEX
  8
102
 10
12.9682
 20
5.7000
 30
0.0000
  0
SEQEND
  8
0
  0
POLYLINE
  8
102
 66
1
 10
0.0000
 20
0.0000
 30
0.0000
 40
0.0635
 41
0.0635
 70
0
  0
VERTEX
  8
102
 10
12.9682
 20
-5.7000
 30
0.0000
 42
1.0000
  0
VERTEX
  8
102
 10
13.0318
 20
-5.7000
 30
0.0000
  0
SEQEND
  8
0
  0
POLYLINE
  8
102
 66
1
 10
0.0000
 20
0.0000
 30
0.0000
 40
0.1270
 41
0.1270
 70
0
  0
VERTEX
  8
102
 10
32.0000
 20
5.7000
 30
0.0000
  0
VERTEX
  8
102
 10
44.0000
 20
5.7000
 30
0.0000
  0
SEQEND
  8
0
  0
POLYLINE
  8
102
 66
1
 10
0.0000
 20
0.0000
 30
0.0000
 40
0.0635
 41
0.0635
 70
0
  0
VERTEX
  8
102
 10
44.0000
 20
5.6683
 30
0.0000
 42
1.0000
  0
VERTEX
  8
102
 10
44.0000
 20
5.7317
 30
0.0000
  0
SEQEND
  8
0
  0
POLYLINE
  8
102
 66
1
 10
0.0000
 20
0.0000
 30
0.0000
 40
0.0635
 41
0.0635
 70
0
  0
VERTEX
  8
102
 10
32.0000
 20
5.7317
 30
0.0000
 42
1.0000
  0
VERTEX
  8
102
 10
32.0000
 20
5.6683
 30
0.0000
  0
SEQEND
  8
0
  0
POLYLINE
  8
102
 66
1
 10
0.0000
 20
0.0000
 30
0.0000
 40
0.1270
 41
0.1270
 70
0
  0
VERTEX
  8
102
 10
44.0000
 20
5.7000
 30
0.0000
  0
VERTEX
  8
102
 10
44.0000
 20
-5.7000
 30
0.0000
  0
SEQEND
  8
0
  0
POLYLINE
  8
102
 66
1
 10
0.0000
 20
0.0000
 30
0.0000
 40
0.0635
 41
0.0635
 70
0
  0
VERTEX
  8
102
 10
43.9682
 20
-5.7000
 30
0.0000
 42
1.0000
  0
VERTEX
  8
102
 10
44.0318
 20
-5.7000
 30
0.0000
  0
SEQEND
  8
0
  0
POLYLINE
  8
102
 66
1
 10
0.0000
 20
0.0000
 30
0.0000
 40
0.0635
 41
0.0635
 70
0
  0
VERTEX
  8
102
 10
44.0318
 20
5.7000
 30
0.0000
 42
1.0000
  0
VERTEX
  8
102
 10
43.9682
 20
5.7000
 30
0.0000
  0
SEQEND
  8
0
  0
POLYLINE
  8
102
 66
1
 10
0.0000
 20
0.0000
 30
0.0000
 40
0.1270
 41
0.1270
 70
0
  0
VERTEX
  8
102
 10
44.0000
 20
-5.7000
 30
0.0000
  0
VERTEX
  8
102
 10
32.0000
 20
-5.7000
 30
0.0000
  0
SEQEND
  8
0
  0
POLYLINE
  8
102
 66
1
 10
0.0000
 20
0.0000
 30
0.0000
 40
0.0635
 41
0.0635
 70
0
  0
VERTEX
  8
102
 10
32.0000
 20
-5.6683
 30
0.0000
 42
1.0000
  0
VERTEX
  8
102
 10
32.0000
 20
-5.7317
 30
0.0000
  0
SEQEND
  8
0
  0
POLYLINE
  8
102
 66
1
 10
0.0000
 20
0.0000
 30
0.0000
 40
0.0635
 41
0.0635
 70
0
  0
VERTEX
  8
102
 10
44.0000
 20
-5.7317
 30
0.0000
 42
1.0000
  0
VERTEX
  8
102
 10
44.0000
 20
-5.6683
 30
0.0000
  0
SEQEND
  8
0
  0
POLYLINE
  8
102
 66
1
 10
0.0000
 20
0.0000
 30
0.0000
 40
0.1270
 41
0.1270
 70
0
  0
VERTEX
  8
102
 10
32.0000
 20
-5.7000
 30
0.0000
  0
VERTEX
  8
102
 10
32.0000
 20
5.7000
 30
0.0000
  0
SEQEND
  8
0
  0
POLYLINE
  8
102
 66
1
 10
0.0000
 20
0.0000
 30
0.0000
 40
0.0635
 41
0.0635
 70
0
  0
VERTEX
  8
102
 10
32.0318
 20
5.7000
 30
0.0000
 42
1.0000
  0
VERTEX
  8
102
 10
31.9683
 20
5.7000
 30
0.0000
  0
SEQEND
  8
0
  0
POLYLINE
  8
102
 66
1
 10
0.0000
 20
0.0000
 30
0.0000
 40
0.0635
 41
0.0635
 70
0
  0
VERTEX
  8
102
 10
31.9683
 20
-5.7000
 30
0.0000
 42
1.0000
  0
VERTEX
  8
102
 10
32.0318
 20
-5.7000
 30
0.0000
  0
SEQEND
  8
0
  0
POLYLINE
  8
102
 66
1
 10
0.0000
 20
0.0000
 30
0.0000
 40
0.1270
 41
0.1270
 70
0
  0
VERTEX
  8
102
 10
51.0000
 20
5.7000
 30
0.0000
  0
VERTEX
  8
102
 10
63.0000
 20
5.7000
 30
0.0000
  0
SEQEND
  8
0
  0
POLYLINE
  8
102
 66
1
 10
0.0000
 20
0.0000
 30
0.0000
 40
0.0635
 41
0.0635
 70
0
  0
VERTEX
  8
102
 10
63.0000
 20
5.6683
 30
0.0000
 42
1.0000
  0
VERTEX
  8
102
 10
63.0000
 20
5.7317
 30
0.0000
  0
SEQEND
  8
0
  0
POLYLINE
  8
102
 66
1
 10
0.0000
 20
0.0000
 30
0.0000
 40
0.0635
 41
0.0635
 70
0
  0
VERTEX
  8
102
 10
51.0000
 20
5.7317
 30
0.0000
 42
1.0000
  0
VERTEX
  8
102
 10
51.0000
 20
5.6683
 30
0.0000
  0
SEQEND
  8
0
  0
POLYLINE
  8
102
 66
1
 10
0.0000
 20
0.0000
 30
0.0000
 40
0.1270
 41
0.1270
 70
0
  0
VERTEX
  8
102
 10
63.0000
 20
5.7000
 30
0.0000
  0
VERTEX
  8
102
 10
63.0000
 20
-5.7000
 30
0.0000
  0
SEQEND
  8
0
  0
POLYLINE
  8
102
 66
1
 10
0.0000
 20
0.0000
 30
0.0000
 40
0.0635
 41
0.0635
 70
0
  0
VERTEX
  8
102
 10
62.9682
 20
-5.7000
 30
0.0000
 42
1.0000
  0
VERTEX
  8
102
 10
63.0318
 20
-5.7000
 30
0.0000
  0
SEQEND
  8
0
  0
POLYLINE
  8
102
 66
1
 10
0.0000
 20
0.0000
 30
0.0000
 40
0.0635
 41
0.0635
 70
0
  0
VERTEX
  8
102
 10
63.0318
 20
5.7000
 30
0.0000
 42
1.0000
  0
VERTEX
  8
102
 10
62.9682
 20
5.7000
 30
0.0000
  0
SEQEND
  8
0
  0
POLYLINE
  8
102
 66
1
 10
0.0000
 20
0.0000
 30
0.0000
 40
0.1270
 41
0.1270
 70
0
  0
VERTEX
  8
102
 10
63.0000
 20
-5.7000
 30
0.0000
  0
VERTEX
  8
102
 10
51.0000
 20
-5.7000
 30
0.0000
  0
SEQEND
  8
0
  0
POLYLINE
  8
102
 66
1
 10
0.0000
 20
0.0000
 30
0.0000
 40
0.0635
 41
0.0635
 70
0
  0
VERTEX
  8
102
 10
51.0000
 20
-5.6683
 30
0.0000
 42
1.0000
  0
VERTEX
  8
102
 10
51.0000
 20
-5.7317
 30
0.0000
  0
SEQEND
  8
0
  0
POLYLINE
  8
102
 66
1
 10
0.0000
 20
0.0000
 30
0.0000
 40
0.0635
 41
0.0635
 70
0
  0
VERTEX
  8
102
 10
63.0000
 20
-5.7317
 30
0.0000
 42
1.0000
  0
VERTEX
  8
102
 10
63.0000
 20
-5.6683
 30
0.0000
  0
SEQEND
  8
0
  0
POLYLINE
  8
102
 66
1
 10
0.0000
 20
0.0000
 30
0.0000
 40
0.1270
 41
0.1270
 70
0
  0
VERTEX
  8
102
 10
51.0000
 20
-5.7000
 30
0.0000
  0
VERTEX
  8
102
 10
51.0000
 20
5.7000
 30
0.0000
  0
SEQEND
  8
0
  0
POLYLINE
  8
102
 66
1
 10
0.0000
 20
0.0000
 30
0.0000
 40
0.0635
 41
0.0635
 70
0
  0
VERTEX
  8
102
 10
51.0318
 20
5.7000
 30
0.0000
 42
1.0000
  0
VERTEX
  8
102
 10
50.9682
 20
5.7000
 30
0.0000
  0
SEQEND
  8
0
  0
POLYLINE
  8
102
 66
1
 10
0.0000
 20
0.0000
 30
0.0000
 40
0.0635
 41
0.0635
 70
0
  0
VERTEX
  8
102
 10
50.9682
 20
-5.7000
 30
0.0000
 42
1.0000
  0
VERTEX
  8
102
 10
51.0318
 20
-5.7000
 30
0.0000
  0
SEQEND
  8
0
  0
POLYLINE
  8
102
 66
1
 10
0.0000
 20
0.0000
 30
0.0000
 40
0.1270
 41
0.1270
 70
0
  0
VERTEX
  8
102
 10
70.0000
 20
5.7000
 30
0.0000
  0
VERTEX
  8
102
 10
82.0000
 20
5.7000
 30
0.0000
  0
SEQEND
  8
0
  0
POLYLINE
  8
102
 66
1
 10
0.0000
 20
0.0000
 30
0.0000
 40
0.0635
 41
0.0635
 70
0
  0
VERTEX
  8
102
 10
82.0000
 20
5.6683
 30
0.0000
 42
1.0000
  0
VERTEX
  8
102
 10
82.0000
 20
5.7317
 30
0.0000
  0
SEQEND
  8
0
  0
POLYLINE
  8
102
 66
1
 10
0.0000
 20
0.0000
 30
0.0000
 40
0.0635
 41
0.0635
 70
0
  0
VERTEX
  8
102
 10
70.0000
 20
5.7317
 30
0.0000
 42
1.0000
  0
VERTEX
  8
102
 10
70.0000
 20
5.6683
 30
0.0000
  0
SEQEND
  8
0
  0
POLYLINE
  8
102
 66
1
 10
0.0000
 20
0.0000
 30
0.0000
 40
0.1270
 41
0.1270
 70
0
  0
VERTEX
  8
102
 10
82.0000
 20
5.7000
 30
0.0000
  0
VERTEX
  8
102
 10
82.0000
 20
-5.7000
 30
0.0000
  0
SEQEND
  8
0
  0
POLYLINE
  8
102
 66
1
 10
0.0000
 20
0.0000
 30
0.0000
 40
0.0635
 41
0.0635
 70
0
  0
VERTEX
  8
102
 10
81.9682
 20
-5.7000
 30
0.0000
 42
1.0000
  0
VERTEX
  8
102
 10
82.0318
 20
-5.7000
 30
0.0000
  0
SEQEND
  8
0
  0
POLYLINE
  8
102
 66
1
 10
0.0000
 20
0.0000
 30
0.0000
 40
0.0635
 41
0.0635
 70
0
  0
VERTEX
  8
102
 10
82.0318
 20
5.7000
 30
0.0000
 42
1.0000
  0
VERTEX
  8
102
 10
81.9682
 20
5.7000
 30
0.0000
  0
SEQEND
  8
0
  0
POLYLINE
  8
102
 66
1
 10
0.0000
 20
0.0000
 30
0.0000
 40
0.1270
 41
0.1270
 70
0
  0
VERTEX
  8
102
 10
82.0000
 20
-5.7000
 30
0.0000
  0
VERTEX
  8
102
 10
70.0000
 20
-5.7000
 30
0.0000
  0
SEQEND
  8
0
  0
POLYLINE
  8
102
 66
1
 10
0.0000
 20
0.0000
 30
0.0000
 40
0.0635
 41
0.0635
 70
0
  0
VERTEX
  8
102
 10
70.0000
 20
-5.6683
 30
0.0000
 42
1.0000
  0
VERTEX
  8
102
 10
70.0000
 20
-5.7317
 30
0.0000
  0
SEQEND
  8
0
  0
POLYLINE
  8
102
 66
1
 10
0.0000
 20
0.0000
 30
0.0000
 40
0.0635
 41
0.0635
 70
0
  0
VERTEX
  8
102
 10
82.0000
 20
-5.7317
 30
0.0000
 42
1.0000
  0
VERTEX
  8
102
 10
82.0000
 20
-5.6683
 30
0.0000
  0
SEQEND
  8
0
  0
POLYLINE
  8
102
 66
1
 10
0.0000
 20
0.0000
 30
0.0000
 40
0.1270
 41
0.1270
 70
0
  0
VERTEX
  8
102
 10
70.0000
 20
-5.7000
 30
0.0000
  0
VERTEX
  8
102
 10
70.0000
 20
5.7000
 30
0.0000
  0
SEQEND
  8
0
  0
POLYLINE
  8
102
 66
1
 10
0.0000
 20
0.0000
 30
0.0000
 40
0.0635
 41
0.0635
 70
0
  0
VERTEX
  8
102
 10
70.0318
 20
5.7000
 30
0.0000
 42
1.0000
  0
VERTEX
  8
102
 10
69.9682
 20
5.7000
 30
0.0000
  0
SEQEND
  8
0
  0
POLYLINE
  8
102
 66
1
 10
0.0000
 20
0.0000
 30
0.0000
 40
0.0635
 41
0.0635
 70
0
  0
VERTEX
  8
102
 10
69.9682
 20
-5.7000
 30
0.0000
 42
1.0000
  0
VERTEX
  8
102
 10
70.0318
 20
-5.7000
 30
0.0000
  0
SEQEND
  8
0
  0
POLYLINE
  8
102
 66
1
 10
0.0000
 20
0.0000
 30
0.0000
 40
0.1270
 41
0.1270
 70
0
  0
VERTEX
  8
102
 10
122.2500
 20
5.7000
 30
0.0000
  0
VERTEX
  8
102
 10
134.2500
 20
5.7000
 30
0.0000
  0
SEQEND
  8
0
  0
POLYLINE
  8
102
 66
1
 10
0.0000
 20
0.0000
 30
0.0000
 40
0.0635
 41
0.0635
 70
0
  0
VERTEX
  8
102
 10
134.2500
 20
5.6683
 30
0.0000
 42
1.0000
  0
VERTEX
  8
102
 10
134.2500
 20
5.7317
 30
0.0000
  0
SEQEND
  8
0
  0
POLYLINE
  8
102
 66
1
 10
0.0000
 20
0.0000
 30
0.0000
 40
0.0635
 41
0.0635
 70
0
  0
VERTEX
  8
102
 10
122.2500
 20
5.7317
 30
0.0000
 42
1.0000
  0
VERTEX
  8
102
 10
122.2500
 20
5.6683
 30
0.0000
  0
SEQEND
  8
0
  0
POLYLINE
  8
102
 66
1
 10
0.0000
 20
0.0000
 30
0.0000
 40
0.1270
 41
0.1270
 70
0
  0
VERTEX
  8
102
 10
134.2500
 20
5.7000
 30
0.0000
  0
VERTEX
  8
102
 10
134.2500
 20
-5.7000
 30
0.0000
  0
SEQEND
  8
0
  0
POLYLINE
  8
102
 66
1
 10
0.0000
 20
0.0000
 30
0.0000
 40
0.0635
 41
0.0635
 70
0
  0
VERTEX
  8
102
 10
134.2183
 20
-5.7000
 30
0.0000
 42
1.0000
  0
VERTEX
  8
102
 10
134.2817
 20
-5.7000
 30
0.0000
  0
SEQEND
  8
0
  0
POLYLINE
  8
102
 66
1
 10
0.0000
 20
0.0000
 30
0.0000
 40
0.0635
 41
0.0635
 70
0
  0
VERTEX
  8
102
 10
134.2817
 20
5.7000
 30
0.0000
 42
1.0000
  0
VERTEX
  8
102
 10
134.2183
 20
5.7000
 30
0.0000
  0
SEQEND
  8
0
  0
POLYLINE
  8
102
 66
1
 10
0.0000
 20
0.0000
 30
0.0000
 40
0.1270
 41
0.1270
 70
0
  0
VERTEX
  8
102
 10
134.2500
 20
-5.7000
 30
0.0000
  0
VERTEX
  8
102
 10
122.2500
 20
-5.7000
 30
0.0000
  0
SEQEND
  8
0
  0
POLYLINE
  8
102
 66
1
 10
0.0000
 20
0.0000
 30
0.0000
 40
0.0635
 41
0.0635
 70
0
  0
VERTEX
  8
102
 10
122.2500
 20
-5.6683
 30
0.0000
 42
1.0000
  0
VERTEX
  8
102
 10
122.2500
 20
-5.7317
 30
0.0000
  0
SEQEND
  8
0
  0
POLYLINE
  8
102
 66
1
 10
0.0000
 20
0.0000
 30
0.0000
 40
0.0635
 41
0.0635
 70
0
  0
VERTEX
  8
102
 10
134.2500
 20
-5.7317
 30
0.0000
 42
1.0000
  0
VERTEX
  8
102
 10
134.2500
 20
-5.6683
 30
0.0000
  0
SEQEND
  8
0
  0
POLYLINE
  8
102
 66
1
 10
0.0000
 20
0.0000
 30
0.0000
 40
0.1270
 41
0.1270
 70
0
  0
VERTEX
  8
102
 10
122.2500
 20
-5.7000
 30
0.0000
  0
VERTEX
  8
102
 10
122.2500
 20
5.7000
 30
0.0000
  0
SEQEND
  8
0
  0
POLYLINE
  8
102
 66
1
 10
0.0000
 20
0.0000
 30
0.0000
 40
0.0635
 41
0.0635
 70
0
  0
VERTEX
  8
102
 10
122.2818
 20
5.7000
 30
0.0000
 42
1.0000
  0
VERTEX
  8
102
 10
122.2182
 20
5.7000
 30
0.0000
  0
SEQEND
  8
0
  0
POLYLINE
  8
102
 66
1
 10
0.0000
 20
0.0000
 30
0.0000
 40
0.0635
 41
0.0635
 70
0
  0
VERTEX
  8
102
 10
122.2182
 20
-5.7000
 30
0.0000
 42
1.0000
  0
VERTEX
  8
102
 10
122.2818
 20
-5.7000
 30
0.0000
  0
SEQEND
  8
0
  0
POLYLINE
  8
102
 66
1
 10
0.0000
 20
0.0000
 30
0.0000
 40
0.1270
 41
0.1270
 70
0
  0
VERTEX
  8
102
 10
174.5000
 20
5.7000
 30
0.0000
  0
VERTEX
  8
102
 10
186.5000
 20
5.7000
 30
0.0000
  0
SEQEND
  8
0
  0
POLYLINE
  8
102
 66
1
 10
0.0000
 20
0.0000
 30
0.0000
 40
0.0635
 41
0.0635
 70
0
  0
VERTEX
  8
102
 10
186.5000
 20
5.6683
 30
0.0000
 42
1.0000
  0
VERTEX
  8
102
 10
186.5000
 20
5.7317
 30
0.0000
  0
SEQEND
  8
0
  0
POLYLINE
  8
102
 66
1
 10
0.0000
 20
0.0000
 30
0.0000
 40
0.0635
 41
0.0635
 70
0
  0
VERTEX
  8
102
 10
174.5000
 20
5.7317
 30
0.0000
 42
1.0000
  0
VERTEX
  8
102
 10
174.5000
 20
5.6683
 30
0.0000
  0
SEQEND
  8
0
  0
POLYLINE
  8
102
 66
1
 10
0.0000
 20
0.0000
 30
0.0000
 40
0.1270
 41
0.1270
 70
0
  0
VERTEX
  8
102
 10
186.5000
 20
5.7000
 30
0.0000
  0
VERTEX
  8
102
 10
186.5000
 20
-5.7000
 30
0.0000
  0
SEQEND
  8
0
  0
POLYLINE
  8
102
 66
1
 10
0.0000
 20
0.0000
 30
0.0000
 40
0.0635
 41
0.0635
 70
0
  0
VERTEX
  8
102
 10
186.4683
 20
-5.7000
 30
0.0000
 42
1.0000
  0
VERTEX
  8
102
 10
186.5317
 20
-5.7000
 30
0.0000
  0
SEQEND
  8
0
  0
POLYLINE
  8
102
 66
1
 10
0.0000
 20
0.0000
 30
0.0000
 40
0.0635
 41
0.0635
 70
0
  0
VERTEX
  8
102
 10
186.5317
 20
5.7000
 30
0.0000
 42
1.0000
  0
VERTEX
  8
102
 10
186.4683
 20
5.7000
 30
0.0000
  0
SEQEND
  8
0
  0
POLYLINE
  8
102
 66
1
 10
0.0000
 20
0.0000
 30
0.0000
 40
0.1270
 41
0.1270
 70
0
  0
VERTEX
  8
102
 10
186.5000
 20
-5.7000
 30
0.0000
  0
VERTEX
  8
102
 10
174.5000
 20
-5.7000
 30
0.0000
  0
SEQEND
  8
0
  0
POLYLINE
  8
102
 66
1
 10
0.0000
 20
0.0000
 30
0.0000
 40
0.0635
 41
0.0635
 70
0
  0
VERTEX
  8
102
 10
174.5000
 20
-5.6683
 30
0.0000
 42
1.0000
  0
VERTEX
  8
102
 10
174.5000
 20
-5.7317
 30
0.0000
  0
SEQEND
  8
0
  0
POLYLINE
  8
102
 66
1
 10
0.0000
 20
0.0000
 30
0.0000
 40
0.0635
 41
0.0635
 70
0
  0
VERTEX
  8
102
 10
186.5000
 20
-5.7317
 30
0.0000
 42
1.0000
  0
VERTEX
  8
102
 10
186.5000
 20
-5.6683
 30
0.0000
  0
SEQEND
  8
0
  0
POLYLINE
  8
102
 66
1
 10
0.0000
 20
0.0000
 30
0.0000
 40
0.1270
 41
0.1270
 70
0
  0
VERTEX
  8
102
 10
174.5000
 20
-5.7000
 30
0.0000
  0
VERTEX
  8
102
 10
174.5000
 20
5.7000
 30
0.0000
  0
SEQEND
  8
0
  0
POLYLINE
  8
102
 66
1
 10
0.0000
 20
0.0000
 30
0.0000
 40
0.0635
 41
0.0635
 70
0
  0
VERTEX
  8
102
 10
174.5317
 20
5.7000
 30
0.0000
 42
1.0000
  0
VERTEX
  8
102
 10
174.4683
 20
5.7000
 30
0.0000
  0
SEQEND
  8
0
  0
POLYLINE
  8
102
 66
1
 10
0.0000
 20
0.0000
 30
0.0000
 40
0.0635
 41
0.0635
 70
0
  0
VERTEX
  8
102
 10
174.4683
 20
-5.7000
 30
0.0000
 42
1.0000
  0
VERTEX
  8
102
 10
174.5317
 20
-5.7000
 30
0.0000
  0
SEQEND
  8
0
  0
POLYLINE
  8
102
 66
1
 10
0.0000
 20
0.0000
 30
0.0000
 40
0.1270
 41
0.1270
 70
0
  0
VERTEX
  8
102
 10
193.5000
 20
5.7000
 30
0.0000
  0
VERTEX
  8
102
 10
205.5000
 20
5.7000
 30
0.0000
  0
SEQEND
  8
0
  0
POLYLINE
  8
102
 66
1
 10
0.0000
 20
0.0000
 30
0.0000
 40
0.0635
 41
0.0635
 70
0
  0
VERTEX
  8
102
 10
205.5000
 20
5.6683
 30
0.0000
 42
1.0000
  0
VERTEX
  8
102
 10
205.5000
 20
5.7317
 30
0.0000
  0
SEQEND
  8
0
  0
POLYLINE
  8
102
 66
1
 10
0.0000
 20
0.0000
 30
0.0000
 40
0.0635
 41
0.0635
 70
0
  0
VERTEX
  8
102
 10
193.5000
 20
5.7317
 30
0.0000
 42
1.0000
  0
VERTEX
  8
102
 10
193.5000
 20
5.6683
 30
0.0000
  0
SEQEND
  8
0
  0
POLYLINE
  8
102
 66
1
 10
0.0000
 20
0.0000
 30
0.0000
 40
0.1270
 41
0.1270
 70
0
  0
VERTEX
  8
102
 10
205.5000
 20
5.7000
 30
0.0000
  0
VERTEX
  8
102
 10
205.5000
 20
-5.7000
 30
0.0000
  0
SEQEND
  8
0
  0
POLYLINE
  8
102
 66
1
 10
0.0000
 20
0.0000
 30
0.0000
 40
0.0635
 41
0.0635
 70
0
  0
VERTEX
  8
102
 10
205.4683
 20
-5.7000
 30
0.0000
 42
1.0000
  0
VERTEX
  8
102
 10
205.5317
 20
-5.7000
 30
0.0000
  0
SEQEND
  8
0
  0
POLYLINE
  8
102
 66
1
 10
0.0000
 20
0.0000
 30
0.0000
 40
0.0635
 41
0.0635
 70
0
  0
VERTEX
  8
102
 10
205.5317
 20
5.7000
 30
0.0000
 42
1.0000
  0
VERTEX
  8
102
 10
205.4683
 20
5.7000
 30
0.0000
  0
SEQEND
  8
0
  0
POLYLINE
  8
102
 66
1
 10
0.0000
 20
0.0000
 30
0.0000
 40
0.1270
 41
0.1270
 70
0
  0
VERTEX
  8
102
 10
205.5000
 20
-5.7000
 30
0.0000
  0
VERTEX
  8
102
 10
193.5000
 20
-5.7000
 30
0.0000
  0
SEQEND
  8
0
  0
POLYLINE
  8
102
 66
1
 10
0.0000
 20
0.0000
 30
0.0000
 40
0.0635
 41
0.0635
 70
0
  0
VERTEX
  8
102
 10
193.5000
 20
-5.6683
 30
0.0000
 42
1.0000
  0
VERTEX
  8
102
 10
193.5000
 20
-5.7317
 30
0.0000
  0
SEQEND
  8
0
  0
POLYLINE
  8
102
 66
1
 10
0.0000
 20
0.0000
 30
0.0000
 40
0.0635
 41
0.0635
 70
0
  0
VERTEX
  8
102
 10
205.5000
 20
-5.7317
 30
0.0000
 42
1.0000
  0
VERTEX
  8
102
 10
205.5000
 20
-5.6683
 30
0.0000
  0
SEQEND
  8
0
  0
POLYLINE
  8
102
 66
1
 10
0.0000
 20
0.0000
 30
0.0000
 40
0.1270
 41
0.1270
 70
0
  0
VERTEX
  8
102
 10
193.5000
 20
-5.7000
 30
0.0000
  0
VERTEX
  8
102
 10
193.5000
 20
5.7000
 30
0.0000
  0
SEQEND
  8
0
  0
POLYLINE
  8
102
 66
1
 10
0.0000
 20
0.0000
 30
0.0000
 40
0.0635
 41
0.0635
 70
0
  0
VERTEX
  8
102
 10
193.5317
 20
5.7000
 30
0.0000
 42
1.0000
  0
VERTEX
  8
102
 10
193.4683
 20
5.7000
 30
0.0000
  0
SEQEND
  8
0
  0
POLYLINE
  8
102
 66
1
 10
0.0000
 20
0.0000
 30
0.0000
 40
0.0635
 41
0.0635
 70
0
  0
VERTEX
  8
102
 10
193.4683
 20
-5.7000
 30
0.0000
 42
1.0000
  0
VERTEX
  8
102
 10
193.5317
 20
-5.7000
 30
0.0000
  0
SEQEND
  8
0
  0
POLYLINE
  8
102
 66
1
 10
0.0000
 20
0.0000
 30
0.0000
 40
0.1270
 41
0.1270
 70
0
  0
VERTEX
  8
102
 10
212.5000
 20
5.7000
 30
0.0000
  0
VERTEX
  8
102
 10
224.5000
 20
5.7000
 30
0.0000
  0
SEQEND
  8
0
  0
POLYLINE
  8
102
 66
1
 10
0.0000
 20
0.0000
 30
0.0000
 40
0.0635
 41
0.0635
 70
0
  0
VERTEX
  8
102
 10
224.5000
 20
5.6683
 30
0.0000
 42
1.0000
  0
VERTEX
  8
102
 10
224.5000
 20
5.7317
 30
0.0000
  0
SEQEND
  8
0
  0
POLYLINE
  8
102
 66
1
 10
0.0000
 20
0.0000
 30
0.0000
 40
0.0635
 41
0.0635
 70
0
  0
VERTEX
  8
102
 10
212.5000
 20
5.7317
 30
0.0000
 42
1.0000
  0
VERTEX
  8
102
 10
212.5000
 20
5.6683
 30
0.0000
  0
SEQEND
  8
0
  0
POLYLINE
  8
102
 66
1
 10
0.0000
 20
0.0000
 30
0.0000
 40
0.1270
 41
0.1270
 70
0
  0
VERTEX
  8
102
 10
224.5000
 20
5.7000
 30
0.0000
  0
VERTEX
  8
102
 10
224.5000
 20
-5.7000
 30
0.0000
  0
SEQEND
  8
0
  0
POLYLINE
  8
102
 66
1
 10
0.0000
 20
0.0000
 30
0.0000
 40
0.0635
 41
0.0635
 70
0
  0
VERTEX
  8
102
 10
224.4683
 20
-5.7000
 30
0.0000
 42
1.0000
  0
VERTEX
  8
102
 10
224.5317
 20
-5.7000
 30
0.0000
  0
SEQEND
  8
0
  0
POLYLINE
  8
102
 66
1
 10
0.0000
 20
0.0000
 30
0.0000
 40
0.0635
 41
0.0635
 70
0
  0
VERTEX
  8
102
 10
224.5317
 20
5.7000
 30
0.0000
 42
1.0000
  0
VERTEX
  8
102
 10
224.4683
 20
5.7000
 30
0.0000
  0
SEQEND
  8
0
  0
POLYLINE
  8
102
 66
1
 10
0.0000
 20
0.0000
 30
0.0000
 40
0.1270
 41
0.1270
 70
0
  0
VERTEX
  8
102
 10
224.5000
 20
-5.7000
 30
0.0000
  0
VERTEX
  8
102
 10
212.5000
 20
-5.7000
 30
0.0000
  0
SEQEND
  8
0
  0
POLYLINE
  8
102
 66
1
 10
0.0000
 20
0.0000
 30
0.0000
 40
0.0635
 41
0.0635
 70
0
  0
VERTEX
  8
102
 10
212.5000
 20
-5.6683
 30
0.0000
 42
1.0000
  0
VERTEX
  8
102
 10
212.5000
 20
-5.7317
 30
0.0000
  0
SEQEND
  8
0
  0
POLYLINE
  8
102
 66
1
 10
0.0000
 20
0.0000
 30
0.0000
 40
0.0635
 41
0.0635
 70
0
  0
VERTEX
  8
102
 10
224.5000
 20
-5.7317
 30
0.0000
 42
1.0000
  0
VERTEX
  8
102
 10
224.5000
 20
-5.6683
 30
0.0000
  0
SEQEND
  8
0
  0
POLYLINE
  8
102
 66
1
 10
0.0000
 20
0.0000
 30
0.0000
 40
0.1270
 41
0.1270
 70
0
  0
VERTEX
  8
102
 10
212.5000
 20
-5.7000
 30
0.0000
  0
VERTEX
  8
102
 10
212.5000
 20
5.7000
 30
0.0000
  0
SEQEND
  8
0
  0
POLYLINE
  8
102
 66
1
 10
0.0000
 20
0.0000
 30
0.0000
 40
0.0635
 41
0.0635
 70
0
  0
VERTEX
  8
102
 10
212.5317
 20
5.7000
 30
0.0000
 42
1.0000
  0
VERTEX
  8
102
 10
212.4683
 20
5.7000
 30
0.0000
  0
SEQEND
  8
0
  0
POLYLINE
  8
102
 66
1
 10
0.0000
 20
0.0000
 30
0.0000
 40
0.0635
 41
0.0635
 70
0
  0
VERTEX
  8
102
 10
212.4683
 20
-5.7000
 30
0.0000
 42
1.0000
  0
VERTEX
  8
102
 10
212.5317
 20
-5.7000
 30
0.0000
  0
SEQEND
  8
0
  0
POLYLINE
  8
102
 66
1
 10
0.0000
 20
0.0000
 30
0.0000
 40
0.1270
 41
0.1270
 70
0
  0
VERTEX
  8
102
 10
231.5000
 20
5.7000
 30
0.0000
  0
VERTEX
  8
102
 10
243.5000
 20
5.7000
 30
0.0000
  0
SEQEND
  8
0
  0
POLYLINE
  8
102
 66
1
 10
0.0000
 20
0.0000
 30
0.0000
 40
0.0635
 41
0.0635
 70
0
  0
VERTEX
  8
102
 10
243.5000
 20
5.6683
 30
0.0000
 42
1.0000
  0
VERTEX
  8
102
 10
243.5000
 20
5.7317
 30
0.0000
  0
SEQEND
  8
0
  0
POLYLINE
  8
102
 66
1
 10
0.0000
 20
0.0000
 30
0.0000
 40
0.0635
 41
0.0635
 70
0
  0
VERTEX
  8
102
 10
231.5000
 20
5.7317
 30
0.0000
 42
1.0000
  0
VERTEX
  8
102
 10
231.5000
 20
5.6683
 30
0.0000
  0
SEQEND
  8
0
  0
POLYLINE
  8
102
 66
1
 10
0.0000
 20
0.0000
 30
0.0000
 40
0.1270
 41
0.1270
 70
0
  0
VERTEX
  8
102
 10
243.5000
 20
5.7000
 30
0.0000
  0
VERTEX
  8
102
 10
243.5000
 20
-5.7000
 30
0.0000
  0
SEQEND
  8
0
  0
POLYLINE
  8
102
 66
1
 10
0.0000
 20
0.0000
 30
0.0000
 40
0.0635
 41
0.0635
 70
0
  0
VERTEX
  8
102
 10
243.4683
 20
-5.7000
 30
0.0000
 42
1.0000
  0
VERTEX
  8
102
 10
243.5317
 20
-5.7000
 30
0.0000
  0
SEQEND
  8
0
  0
POLYLINE
  8
102
 66
1
 10
0.0000
 20
0.0000
 30
0.0000
 40
0.0635
 41
0.0635
 70
0
  0
VERTEX
  8
102
 10
243.5317
 20
5.7000
 30
0.0000
 42
1.0000
  0
VERTEX
  8
102
 10
243.4683
 20
5.7000
 30
0.0000
  0
SEQEND
  8
0
  0
POLYLINE
  8
102
 66
1
 10
0.0000
 20
0.0000
 30
0.0000
 40
0.1270
 41
0.1270
 70
0
  0
VERTEX
  8
102
 10
243.5000
 20
-5.7000
 30
0.0000
  0
VERTEX
  8
102
 10
231.5000
 20
-5.7000
 30
0.0000
  0
SEQEND
  8
0
  0
POLYLINE
  8
102
 66
1
 10
0.0000
 20
0.0000
 30
0.0000
 40
0.0635
 41
0.0635
 70
0
  0
VERTEX
  8
102
 10
231.5000
 20
-5.6683
 30
0.0000
 42
1.0000
  0
VERTEX
  8
102
 10
231.5000
 20
-5.7317
 30
0.0000
  0
SEQEND
  8
0
  0
POLYLINE
  8
102
 66
1
 10
0.0000
 20
0.0000
 30
0.0000
 40
0.0635
 41
0.0635
 70
0
  0
VERTEX
  8
102
 10
243.5000
 20
-5.7317
 30
0.0000
 42
1.0000
  0
VERTEX
  8
102
 10
243.5000
 20
-5.6683
 30
0.0000
  0
SEQEND
  8
0
  0
POLYLINE
  8
102
 66
1
 10
0.0000
 20
0.0000
 30
0.0000
 40
0.1270
 41
0.1270
 70
0
  0
VERTEX
  8
102
 10
231.5000
 20
-5.7000
 30
0.0000
  0
VERTEX
  8
102
 10
231.5000
 20
5.7000
 30
0.0000
  0
SEQEND
  8
0
  0
POLYLINE
  8
102
 66
1
 10
0.0000
 20
0.0000
 30
0.0000
 40
0.0635
 41
0.0635
 70
0
  0
VERTEX
  8
102
 10
231.5317
 20
5.7000
 30
0.0000
 42
1.0000
  0
VERTEX
  8
102
 10
231.4683
 20
5.7000
 30
0.0000
  0
SEQEND
  8
0
  0
POLYLINE
  8
102
 66
1
 10
0.0000
 20
0.0000
 30
0.0000
 40
0.0635
 41
0.0635
 70
0
  0
VERTEX
  8
102
 10
231.4683
 20
-5.7000
 30
0.0000
 42
1.0000
  0
VERTEX
  8
102
 10
231.5317
 20
-5.7000
 30
0.0000
  0
SEQEND
  8
0
  0
ENDSEC
  0
EOF
